SplineFontDB: 3.0
FontName: MedievalSharp-Bold
FullName: Medieval Sharp Bold
FamilyName: Medieval Sharp
Weight: Bold
Copyright: Copyright (c) 2011, wmk69 (wmk69@o2.pl)\nwith Reserved Font Names 'MedievalSharp' and 'Medieval Sharp Bold'.\n\nThis Font Software is licensed under the SIL Open Font License, Version 1.1.\nThis license is available with a FAQ at:\nhttp://scripts.sil.org/OFL
Version: 2.001
ItalicAngle: 0
UnderlinePosition: -81
UnderlineWidth: 122
Ascent: 1638
Descent: 410
LayerCount: 2
Layer: 0 1 "Warstwa t+AUIA-a"  1
Layer: 1 1 "Plan pierwszy"  0
XUID: [1021 783 23647091 8578152]
FSType: 0
OS2Version: 3
OS2_WeightWidthSlopeOnly: 0
OS2_UseTypoMetrics: 1
CreationTime: 1260698820
ModificationTime: 1316699016
PfmFamily: 17
TTFWeight: 700
TTFWidth: 5
LineGap: 0
VLineGap: 0
Panose: 2 1 8 4 2 2 2 1 2 4
OS2TypoAscent: 1951
OS2TypoAOffset: 0
OS2TypoDescent: -543
OS2TypoDOffset: 0
OS2TypoLinegap: 0
OS2WinAscent: 1951
OS2WinAOffset: 0
OS2WinDescent: 543
OS2WinDOffset: 0
HheadAscent: 1951
HheadAOffset: 0
HheadDescent: -543
HheadDOffset: 0
OS2SubXSize: 1434
OS2SubYSize: 1331
OS2SubXOff: 0
OS2SubYOff: 287
OS2SupXSize: 1434
OS2SupYSize: 1331
OS2SupXOff: 0
OS2SupYOff: 977
OS2StrikeYSize: 102
OS2StrikeYPos: 512
OS2Vendor: '    '
OS2CodePages: 20000093.00000000
OS2UnicodeRanges: 8000002f.4000204b.00000000.00000000
Lookup: 258 0 0 "'kern' Kerning poziomy w tablicy 0"  {"Podtablica 'kern' Kerning poziomy w tablicy 0"  } ['kern' ('DFLT' <'dflt' > 'grek' <'dflt' > 'latn' <'dflt' > ) ]
DEI: 91125
KernClass2: 20 15 "Podtablica 'kern' Kerning poziomy w tablicy 0" 
 90 A Agrave Aacute Acircumflex Atilde Adieresis Aring Amacron Abreve Aogonek Aringacute Delta

StartChar: .notdef
Encoding: 65536 -1 0
Width: 1014
Flags: W
HStem: 0 238<388 626> 1272 238<388 626>
VStem: 150 238<238 1272> 626 238<238 1272>
LayerCount: 2
Fore
SplineSet
150 0 m 1,0,-1
 150 1510 l 1,1,-1
 864 1510 l 1,2,-1
 864 0 l 1,3,-1
 150 0 l 1,0,-1
626 238 m 1,4,-1
 626 1272 l 1,5,-1
 388 1272 l 1,6,-1
 388 238 l 1,7,-1
 626 238 l 1,4,-1
EndSplineSet
Validated: 1
EndChar

StartChar: exclam
Encoding: 33 33 4
Width: 742
GlyphClass: 2
Flags: W
HStem: 0 21G<170 278> 1490 20G<464 572>
VStem: 188 367<95.0568 372.91> 243 256<575.733 1265.77>
LayerCount: 2
Fore
SplineSet
180 0 m 1,0,-1
 170 6 l 1,1,2
 188 106 188 106 188 191.5 c 128,-1,3
 188 277 188 277 170 376 c 1,4,5
 366 393 366 393 562 468 c 1,6,-1
 572 462 l 1,7,8
 555 339 555 339 555 264.5 c 128,-1,9
 555 190 555 190 572 92 c 1,10,11
 376 75 376 75 180 0 c 1,0,-1
562 1510 m 1,12,-1
 572 1504 l 1,13,14
 499 1119 499 1119 499 868 c 0,15,16
 499 691 499 691 522 572 c 1,17,18
 387 551 387 551 230 492 c 1,19,-1
 220 498 l 1,20,21
 243 637 243 637 243 817 c 0,22,23
 243 1077 243 1077 170 1418 c 1,24,25
 366 1435 366 1435 562 1510 c 1,12,-1
EndSplineSet
Validated: 1
EndChar

StartChar: quotedbl
Encoding: 34 34 5
Width: 1122
GlyphClass: 2
Flags: W
HStem: 1490 20G<444 552 864 972>
VStem: 223 256<875.723 1351.1> 643 256<875.723 1351.1>
LayerCount: 2
Fore
SplineSet
962 1510 m 1,0,-1
 972 1504 l 1,1,2
 899 1304 899 1304 899 1128 c 0,3,4
 899 991 899 991 922 872 c 1,5,6
 787 851 787 851 630 792 c 1,7,-1
 620 798 l 1,8,9
 643 937 643 937 643 1077 c 0,10,11
 643 1270 643 1270 570 1418 c 1,12,13
 766 1435 766 1435 962 1510 c 1,0,-1
542 1510 m 1,14,-1
 552 1504 l 1,15,16
 479 1304 479 1304 479 1128 c 0,17,18
 479 991 479 991 502 872 c 1,19,20
 367 851 367 851 210 792 c 1,21,-1
 200 798 l 1,22,23
 223 937 223 937 223 1077 c 0,24,25
 223 1270 223 1270 150 1418 c 1,26,27
 346 1435 346 1435 542 1510 c 1,14,-1
EndSplineSet
Validated: 1
EndChar

StartChar: numbersign
Encoding: 35 35 6
Width: 1730
GlyphClass: 2
Flags: W
HStem: 392 312<231.882 526.217 1206.47 1497.31> 432 226<780 953> 806 312<229.976 523.177 1203.69 1496.56> 852 226<777 950>
VStem: 496 312<119.976 416.217 1096.47 1386.56> 542 226<670 843> 916 312<119.976 413.177 1093.69 1386.56> 962 226<667 840>
LayerCount: 2
Fore
SplineSet
156 806 m 1,0,-1
 150 816 l 1,1,2
 212 959 212 959 238 1118 c 1,3,4
 388 1101 388 1101 529 1091 c 1,5,6
 519 1235 519 1235 502 1382 c 1,7,8
 665 1400 665 1400 804 1470 c 1,9,-1
 814 1464 l 1,10,11
 789 1265 789 1265 777 1079 c 1,12,13
 835 1078 835 1078 890 1078 c 0,14,15
 920 1078 920 1078 950 1078 c 1,16,17
 940 1228 940 1228 922 1382 c 1,18,19
 1085 1400 1085 1400 1224 1470 c 1,20,-1
 1234 1464 l 1,21,22
 1209 1270 1209 1270 1198 1088 c 1,23,24
 1380 1099 1380 1099 1574 1124 c 1,25,-1
 1580 1114 l 1,26,27
 1510 975 1510 975 1492 812 c 1,28,29
 1338 830 1338 830 1188 840 c 1,30,31
 1188 810 1188 810 1188 780 c 0,32,33
 1188 725 1188 725 1189 667 c 1,34,35
 1375 679 1375 679 1574 704 c 1,36,-1
 1580 694 l 1,37,38
 1510 555 1510 555 1492 392 c 1,39,40
 1345 409 1345 409 1201 419 c 1,41,42
 1211 278 1211 278 1228 128 c 1,43,44
 1069 102 1069 102 926 40 c 1,45,-1
 916 46 l 1,46,47
 942 241 942 241 953 431 c 1,48,49
 896 432 896 432 840 432 c 0,50,51
 810 432 810 432 780 432 c 1,52,53
 790 285 790 285 808 128 c 1,54,55
 649 102 649 102 506 40 c 1,56,-1
 496 46 l 1,57,58
 521 237 521 237 532 422 c 1,59,60
 347 411 347 411 156 386 c 1,61,-1
 150 396 l 1,62,63
 212 539 212 539 238 698 c 1,64,65
 395 680 395 680 542 670 c 1,66,67
 542 700 542 700 542 730 c 0,68,69
 542 782 542 782 541 843 c 1,70,71
 351 832 351 832 156 806 c 1,0,-1
961 659 m 1,72,73
 962 694 962 694 962 730 c 0,74,75
 962 785 962 785 960 850 c 1,76,77
 900 852 900 852 840 852 c 0,78,79
 804 852 804 852 769 851 c 1,80,81
 768 815 768 815 768 780 c 0,82,83
 768 721 768 721 770 660 c 1,84,85
 831 658 831 658 890 658 c 0,86,87
 925 658 925 658 961 659 c 1,72,73
EndSplineSet
Validated: 1
EndChar

StartChar: percent
Encoding: 37 37 7
Width: 1921
GlyphClass: 2
Flags: W
HStem: 0 21G<594 690 1354 1497> 1490 20G<421.5 566.5 1208 1304>
VStem: 150 225<1045.22 1273.91> 661 214<930.688 1167.66> 1046 225<348.219 576.911> 1557 214<233.688 470.655>
LayerCount: 2
Fore
SplineSet
1310 586 m 1,0,1
 1271 524 1271 524 1271 453 c 0,2,3
 1271 363 1271 363 1388 283 c 0,4,5
 1448 242 1448 242 1524 229 c 1,6,7
 1557 283 1557 283 1557 357 c 0,8,9
 1557 459 1557 459 1439 536 c 0,10,11
 1379 574 1379 574 1310 586 c 1,0,1
1428 0 m 1,12,-1
 1418 0 l 1,13,14
 1290 33 1290 33 1191 115 c 0,15,16
 1046 235 1046 235 1046 407 c 0,17,18
 1046 557 1046 557 1169 680 c 0,19,20
 1246 757 1246 757 1389 813 c 1,21,-1
 1399 813 l 1,22,23
 1526 780 1526 780 1626 698 c 0,24,25
 1771 580 1771 580 1771 406 c 0,26,27
 1771 251 1771 251 1648 133 c 24,28,29
 1566 54 1566 54 1428 0 c 1,12,-1
680 0 m 1,30,31
 508 66 508 66 328 88 c 1,32,33
 644 448 644 448 859 804 c 0,34,35
 1040 1105 1040 1105 1208 1504 c 1,36,-1
 1218 1510 l 1,37,38
 1390 1444 1390 1444 1570 1422 c 1,39,40
 1308 1079 1308 1079 1099 749 c 0,41,42
 869 385 869 385 690 6 c 1,43,-1
 680 0 l 1,30,31
628 926 m 1,44,45
 661 980 661 980 661 1054 c 0,46,47
 661 1156 661 1156 543 1233 c 0,48,49
 483 1271 483 1271 414 1283 c 1,50,51
 375 1221 375 1221 375 1150 c 0,52,53
 375 1060 375 1060 492 980 c 0,54,55
 552 939 552 939 628 926 c 1,44,45
503 1510 m 1,56,57
 630 1477 630 1477 730 1395 c 0,58,59
 875 1277 875 1277 875 1103 c 0,60,61
 875 948 875 948 752 830 c 24,62,63
 670 751 670 751 532 697 c 1,64,-1
 522 697 l 1,65,66
 394 730 394 730 295 812 c 0,67,68
 150 932 150 932 150 1104 c 0,69,70
 150 1254 150 1254 273 1377 c 0,71,72
 350 1454 350 1454 493 1510 c 1,73,-1
 503 1510 l 1,56,57
EndSplineSet
Validated: 1
EndChar

StartChar: ampersand
Encoding: 38 38 8
Width: 1552
VWidth: 0
GlyphClass: 2
Flags: W
HStem: 0 21G<622 814.5 1100 1208> 1490 20G<552 787>
VStem: 120 320<317.5 581.673> 161 263<1024.51 1180> 1090 318<507.159 742.772>
LayerCount: 2
Fore
SplineSet
725 0 m 1,0,1
 704 0 l 1,2,3
 540 27 540 27 389 98 c 0,4,5
 120 224 120 224 120 411 c 0,6,7
 120 621 120 621 327 729 c 2,8,-1
 348 740 l 1,9,10
 282 775 282 775 238 824 c 0,11,12
 161 909 161 909 161 1028 c 0,13,14
 161 1150 161 1150 270 1261 c 0,15,16
 439 1433 439 1433 665 1510 c 1,17,-1
 675 1510 l 1,18,19
 899 1434 899 1434 1014 1336 c 0,20,21
 1034 1319 1034 1319 1050 1302 c 1,22,-1
 810 1090 l 1,23,24
 795 1107 795 1107 771 1119 c 0,25,26
 650 1180 650 1180 488 1217 c 1,27,28
 424 1178 424 1178 424 1108 c 0,29,30
 424 1026 424 1026 548 984 c 2,31,-1
 724 924 l 1,32,33
 876 712 876 712 1070 505 c 1,34,35
 1090 565 1090 565 1090 630 c 0,36,37
 1090 764 1090 764 906 822 c 1,38,39
 1076 882 1076 882 1203 1000 c 1,40,-1
 1216 1000 l 1,41,42
 1274 968 1274 968 1320 918 c 0,43,44
 1408 822 1408 822 1408 664 c 0,45,46
 1408 464 1408 464 1272 300 c 1,47,48
 1382 196 1382 196 1502 92 c 1,49,50
 1306 75 1306 75 1110 0 c 1,51,-1
 1100 6 l 1,52,-1
 1028 108 l 1,53,54
 904 46 904 46 725 0 c 1,0,1
858 325 m 1,55,56
 711 503 711 503 559 645 c 1,57,-1
 513 663 l 1,58,59
 440 621 440 621 440 545 c 0,60,61
 440 466 440 466 544 419 c 0,62,63
 689 354 689 354 858 325 c 1,55,56
EndSplineSet
Validated: 1
EndChar

StartChar: quotesingle
Encoding: 39 39 9
Width: 702
GlyphClass: 2
Flags: W
HStem: 1490 20G<444 552>
VStem: 223 256<875.723 1351.1>
LayerCount: 2
Fore
SplineSet
542 1510 m 1,0,-1
 552 1504 l 1,1,2
 479 1304 479 1304 479 1128 c 0,3,4
 479 991 479 991 502 872 c 1,5,6
 367 851 367 851 210 792 c 1,7,-1
 200 798 l 1,8,9
 223 937 223 937 223 1077 c 0,10,11
 223 1270 223 1270 150 1418 c 1,12,13
 346 1435 346 1435 542 1510 c 1,0,-1
EndSplineSet
Validated: 1
EndChar

StartChar: parenleft
Encoding: 40 40 10
Width: 1022
GlyphClass: 2
Flags: W
HStem: 1567 153<909.814 996>
VStem: 150 298<395.12 975.151>
LayerCount: 2
Fore
SplineSet
675 -324 m 1,0,1
 458 -189 458 -189 297 67 c 0,2,3
 150 300 150 300 150 630 c 0,4,5
 150 968 150 968 296 1225 c 0,6,7
 525 1628 525 1628 996 1720 c 1,8,-1
 996 1567 l 1,9,10
 681 1444 681 1444 545 1158 c 0,11,12
 448 954 448 954 448 688 c 0,13,14
 448 424 448 424 568 235 c 0,15,16
 693 38 693 38 1012 -138 c 1,17,-1
 675 -324 l 1,0,1
EndSplineSet
Validated: 1
EndChar

StartChar: parenright
Encoding: 41 41 11
Width: 1022
GlyphClass: 2
Flags: W
HStem: -324 153<26 112.186>
VStem: 574 298<420.849 1000.88>
LayerCount: 2
Fore
SplineSet
347 1720 m 1,0,1
 564 1585 564 1585 725 1329 c 0,2,3
 872 1096 872 1096 872 766 c 0,4,5
 872 428 872 428 726 171 c 0,6,7
 497 -232 497 -232 26 -324 c 1,8,-1
 26 -171 l 1,9,10
 341 -48 341 -48 477 238 c 0,11,12
 574 442 574 442 574 708 c 0,13,14
 574 972 574 972 454 1161 c 0,15,16
 329 1358 329 1358 10 1534 c 1,17,-1
 347 1720 l 1,0,1
EndSplineSet
Validated: 1
EndChar

StartChar: asterisk
Encoding: 42 42 12
Width: 1421
GlyphClass: 2
Flags: W
HStem: 1490 20G<796.5 882>
LayerCount: 2
Fore
SplineSet
872 1510 m 1,0,-1
 882 1504 l 1,1,2
 850 1345 850 1345 837 1179 c 1,3,4
 943 1255 943 1255 1034 1340 c 1,5,6
 1146 1195 1146 1195 1271 1093 c 1,7,-1
 1271 1082 l 1,8,9
 1115 1029 1115 1029 962 955 c 1,10,11
 1109 885 1109 885 1271 829 c 1,12,-1
 1271 818 l 1,13,14
 1146 716 1146 716 1034 571 c 1,15,16
 940 657 940 657 841 730 c 1,17,18
 854 608 854 608 882 483 c 1,19,20
 701 459 701 459 550 401 c 1,21,-1
 540 407 l 1,22,23
 572 573 572 573 585 733 c 1,24,25
 483 659 483 659 387 571 c 1,26,27
 276 716 276 716 150 818 c 1,28,-1
 150 829 l 1,29,30
 312 885 312 885 459 955 c 1,31,32
 306 1029 306 1029 150 1082 c 1,33,-1
 150 1093 l 1,34,35
 276 1195 276 1195 387 1340 c 1,36,37
 477 1256 477 1256 580 1182 c 1,38,39
 567 1308 567 1308 540 1428 c 1,40,41
 721 1452 721 1452 872 1510 c 1,0,-1
EndSplineSet
Validated: 1
EndChar

StartChar: plus
Encoding: 43 43 13
Width: 1409
GlyphClass: 2
Flags: W
LayerCount: 2
Fore
SplineSet
156 606 m 1,0,-1
 150 616 l 1,1,2
 208 767 208 767 232 948 c 1,3,4
 410 909 410 909 582 899 c 1,5,6
 572 1081 572 1081 534 1250 c 1,7,8
 714 1274 714 1274 866 1332 c 1,9,-1
 876 1326 l 1,10,11
 834 1118 834 1118 825 897 c 1,12,13
 1045 906 1045 906 1253 948 c 1,14,-1
 1259 938 l 1,15,16
 1201 787 1201 787 1177 606 c 1,17,18
 1009 644 1009 644 826 655 c 1,19,20
 837 482 837 482 876 304 c 1,21,22
 694 280 694 280 544 222 c 1,23,-1
 534 228 l 1,24,25
 576 448 576 448 585 657 c 1,26,27
 375 649 375 649 156 606 c 1,0,-1
EndSplineSet
Validated: 1
EndChar

StartChar: comma
Encoding: 44 44 14
Width: 804
GlyphClass: 2
Flags: W
HStem: -226 623<363 569>
VStem: 289 355<-38.3135 242.99>
LayerCount: 2
Fore
SplineSet
559 397 m 1,0,-1
 569 391 l 1,1,2
 644 294 644 294 644 140 c 0,3,4
 644 -226 644 -226 124 -226 c 1,5,-1
 124 -210 l 1,6,7
 289 -117 289 -117 289 88 c 0,8,9
 289 250 289 250 167 305 c 1,10,11
 363 322 363 322 559 397 c 1,0,-1
EndSplineSet
Validated: 1
EndChar

StartChar: hyphen
Encoding: 45 45 15
Width: 1409
GlyphClass: 2
Flags: W
HStem: 659 236<269.751 1140.43>
LayerCount: 2
Fore
SplineSet
156 606 m 1,0,-1
 150 616 l 1,1,2
 208 767 208 767 232 948 c 1,3,4
 474 895 474 895 706 895 c 0,5,6
 990 895 990 895 1253 948 c 1,7,-1
 1259 938 l 1,8,9
 1201 787 1201 787 1177 606 c 1,10,11
 944 659 944 659 684 659 c 0,12,13
 428 659 428 659 156 606 c 1,0,-1
EndSplineSet
Validated: 1
EndChar

StartChar: period
Encoding: 46 46 16
Width: 702
GlyphClass: 2
Flags: W
HStem: 0 518
VStem: 168 367<95.0629 422.903>
LayerCount: 2
Fore
SplineSet
160 0 m 1,0,-1
 150 6 l 1,1,2
 168 106 168 106 168 216.5 c 128,-1,3
 168 327 168 327 150 426 c 1,4,5
 346 443 346 443 542 518 c 1,6,-1
 552 512 l 1,7,8
 535 389 535 389 535 289.5 c 128,-1,9
 535 190 535 190 552 92 c 1,10,11
 356 75 356 75 160 0 c 1,0,-1
EndSplineSet
Validated: 1
EndChar

StartChar: slash
Encoding: 47 47 17
Width: 1259
GlyphClass: 2
Flags: W
LayerCount: 2
Fore
SplineSet
362 -150 m 1,0,1
 190 -84 190 -84 10 -62 c 1,2,3
 289 382 289 382 543 868 c 0,4,5
 749 1263 749 1263 887 1654 c 1,6,-1
 897 1660 l 1,7,8
 1069 1594 1069 1594 1249 1572 c 1,9,10
 962 1114 962 1114 716 642 c 0,11,12
 512 250 512 250 372 -144 c 1,13,-1
 362 -150 l 1,0,1
EndSplineSet
Validated: 1
EndChar

StartChar: zero
Encoding: 48 48 18
Width: 1504
VWidth: 0
GlyphClass: 2
Flags: W
HStem: 0 21G<619.5 898.5> 1490 20G<607.5 882>
VStem: 120 313<631.98 1004.46> 1071 313<506.208 877.161>
LayerCount: 2
Fore
SplineSet
782 0 m 1,0,-1
 772 0 l 1,1,2
 467 103 467 103 317 255 c 0,3,4
 120 455 120 455 120 751 c 128,-1,5
 120 1047 120 1047 327 1261 c 24,6,7
 493 1433 493 1433 722 1510 c 1,8,-1
 732 1510 l 1,9,10
 1032 1408 1032 1408 1186 1254 c 24,11,12
 1384 1056 1384 1056 1384 759 c 0,13,14
 1384 467 1384 467 1177 248 c 0,15,16
 1015 78 1015 78 782 0 c 1,0,-1
494 1174 m 1,17,18
 433 1033 433 1033 433 864 c 0,19,20
 433 600 433 600 613 453 c 0,21,22
 742 346 742 346 1010 336 c 1,23,24
 1071 486 1071 486 1071 646 c 0,25,26
 1071 906 1071 906 891 1057 c 0,27,28
 766 1161 766 1161 494 1174 c 1,17,18
EndSplineSet
Validated: 1
EndChar

StartChar: one
Encoding: 49 49 19
Width: 1023
GlyphClass: 2
Flags: W
HStem: 0 21G<418 526> 1490 20G<715 823>
VStem: 462 316<134.188 1057.91>
LayerCount: 2
Fore
SplineSet
428 0 m 1,0,-1
 418 6 l 1,1,2
 462 364 462 364 462 730 c 0,3,4
 462 895 462 895 452 1066 c 1,5,6
 348 954 348 954 302 851 c 1,7,8
 145 910 145 910 10 931 c 1,9,10
 268 1146 268 1146 421 1418 c 1,11,12
 617 1435 617 1435 813 1510 c 1,13,-1
 823 1504 l 1,14,15
 779 1154 779 1154 778 782 c 0,16,17
 778 429 778 429 820 92 c 1,18,19
 624 75 624 75 428 0 c 1,0,-1
EndSplineSet
Validated: 1
EndChar

StartChar: four
Encoding: 52 52 20
Width: 1304
GlyphClass: 2
Flags: W
HStem: 0 21G<699 807> 289 224<388.391 724.181> 1490 20G<996 1104>
VStem: 743 316<521.375 1065.46>
LayerCount: 2
Fore
SplineSet
709 0 m 1,0,-1
 699 6 l 1,1,2
 717 145 717 145 727 285 c 1,3,4
 609 289 609 289 498 289 c 0,5,6
 337 289 337 289 84 247 c 1,7,-1
 10 448 l 1,8,9
 425 906 425 906 702 1418 c 1,10,11
 898 1435 898 1435 1094 1510 c 1,12,-1
 1104 1504 l 1,13,14
 1059 1146 1059 1146 1059 782 c 0,15,16
 1059 433 1059 433 1101 92 c 1,17,18
 905 75 905 75 709 0 c 1,0,-1
383 517 m 1,19,20
 453 513 453 513 579 513 c 0,21,22
 637 513 637 513 740 524 c 1,23,24
 743 597 743 597 743 730 c 0,25,26
 743 882 743 882 733 1066 c 1,27,28
 565 845 565 845 383 517 c 1,19,20
EndSplineSet
Validated: 1
EndChar

StartChar: six
Encoding: 54 54 21
Width: 1460
VWidth: 0
GlyphClass: 2
Flags: W
HStem: 0 21G<619.5 892.5> 1490 20G<607.5 882>
VStem: 120 313<632.98 1004.46> 1037 303<409.805 758.5>
LayerCount: 2
Fore
SplineSet
782 0 m 1,0,1
 772 0 l 1,2,3
 467 103 467 103 317 255 c 0,4,5
 120 455 120 455 120 751 c 128,-1,6
 120 1047 120 1047 327 1261 c 24,7,8
 493 1433 493 1433 722 1510 c 1,9,-1
 732 1510 l 1,10,11
 1032 1408 1032 1408 1186 1254 c 16,12,13
 1205 1235 1205 1235 1221 1216 c 1,14,-1
 933 1018 l 1,15,16
 913 1038 913 1038 891 1057 c 0,17,18
 771 1161 771 1161 494 1174 c 1,19,20
 433 1033 433 1033 433 864 c 0,21,22
 433 604 433 604 613 453 c 0,23,24
 737 349 737 349 1010 336 c 1,25,26
 1037 396 1037 396 1037 471 c 0,27,28
 1037 660 1037 660 551 671 c 1,29,-1
 852 979 l 17,30,31
 1340 924 1340 924 1340 593 c 0,32,33
 1340 413 1340 413 1177 248 c 0,34,35
 1003 73 1003 73 782 0 c 1,0,1
EndSplineSet
Validated: 1
EndChar

StartChar: seven
Encoding: 55 55 22
Width: 1149
GlyphClass: 2
Flags: W
HStem: 0 21G<203 311> 1224 241<210.265 619.43> 1490 20G<94 222 967.5 1129>
LayerCount: 2
Fore
SplineSet
213 0 m 1,0,-1
 203 6 l 1,1,2
 563 828 563 828 620 1223 c 1,3,4
 599 1224 599 1224 516 1224 c 0,5,6
 256 1224 256 1224 26 1108 c 1,7,-1
 20 1118 l 1,8,9
 76 1250 76 1250 112 1510 c 1,10,11
 332 1465 332 1465 591 1465 c 0,12,13
 816 1465 816 1465 1119 1510 c 1,14,-1
 1129 1504 l 1,15,16
 875 1012 875 1012 605 92 c 1,17,18
 409 75 409 75 213 0 c 1,0,-1
EndSplineSet
Validated: 1
EndChar

StartChar: eight
Encoding: 56 56 23
Width: 1362
VWidth: 0
GlyphClass: 2
Flags: W
HStem: 0 21G<622 837.5> 1490 20G<552 786.5>
VStem: 120 320<317.5 580.929> 161 263<1023.3 1180> 833 288<998.155 1191> 967 275<352.944 580>
LayerCount: 2
Fore
SplineSet
941 314 m 1,0,1
 967 360 967 360 967 406 c 24,2,3
 967 509 967 509 806 564 c 2,4,-1
 513 663 l 1,5,6
 440 621 440 621 440 545 c 0,7,8
 440 466 440 466 544 419 c 0,9,10
 723 338 723 338 941 314 c 1,0,1
488 1217 m 1,11,12
 424 1178 424 1178 424 1108 c 0,13,14
 424 1021 424 1021 548 984 c 2,15,-1
 767 918 l 1,16,17
 833 948 833 948 833 1021 c 0,18,19
 833 1089 833 1089 771 1119 c 0,20,21
 648 1180 648 1180 488 1217 c 1,11,12
725 0 m 1,22,-1
 704 0 l 1,23,24
 540 27 540 27 389 98 c 0,25,26
 120 224 120 224 120 411 c 24,27,28
 120 618 120 618 327 729 c 2,29,-1
 348 740 l 1,30,31
 282 775 282 775 238 824 c 0,32,33
 161 909 161 909 161 1028 c 0,34,35
 161 1150 161 1150 270 1261 c 0,36,37
 439 1433 439 1433 665 1510 c 1,38,-1
 675 1510 l 1,39,40
 898 1434 898 1434 1014 1336 c 0,41,42
 1121 1246 1121 1246 1121 1136 c 0,43,44
 1121 994 1121 994 959 888 c 1,45,-1
 924 866 l 1,46,-1
 938 861 l 2,47,48
 1096 804 1096 804 1168 719 c 0,49,50
 1242 632 1242 632 1242 528 c 0,51,52
 1242 373 1242 373 1120 248 c 0,53,54
 950 74 950 74 725 0 c 1,22,-1
EndSplineSet
Validated: 1
EndChar

StartChar: nine
Encoding: 57 57 24
Width: 1460
VWidth: 0
GlyphClass: 2
Flags: W
HStem: 0 21G<578 852.5> 1490 20G<567.5 840.5>
VStem: 120 303<751.5 1100.2> 1027 313<505.535 877.02>
LayerCount: 2
Fore
SplineSet
738 0 m 1,0,-1
 728 0 l 1,1,2
 428 102 428 102 274 256 c 16,3,4
 255 275 255 275 239 294 c 1,5,-1
 527 492 l 1,6,7
 547 472 547 472 569 453 c 0,8,9
 689 349 689 349 966 336 c 1,10,11
 1027 477 1027 477 1027 646 c 0,12,13
 1027 906 1027 906 847 1057 c 0,14,15
 723 1161 723 1161 450 1174 c 1,16,17
 423 1114 423 1114 423 1039 c 0,18,19
 423 850 423 850 909 839 c 1,20,-1
 608 531 l 17,21,22
 120 586 120 586 120 917 c 0,23,24
 120 1097 120 1097 283 1262 c 0,25,26
 457 1437 457 1437 678 1510 c 1,27,-1
 688 1510 l 1,28,29
 993 1407 993 1407 1143 1255 c 0,30,31
 1340 1055 1340 1055 1340 759 c 128,-1,32
 1340 463 1340 463 1133 249 c 24,33,34
 967 77 967 77 738 0 c 1,0,-1
EndSplineSet
Validated: 1
EndChar

StartChar: colon
Encoding: 58 58 25
Width: 702
GlyphClass: 2
Flags: W
HStem: 0 21G<150 258>
VStem: 168 367<95.0568 372.91 665.057 942.91>
LayerCount: 2
Fore
SplineSet
160 0 m 1,0,-1
 150 6 l 1,1,2
 168 106 168 106 168 191.5 c 128,-1,3
 168 277 168 277 150 376 c 1,4,5
 346 393 346 393 542 468 c 1,6,-1
 552 462 l 1,7,8
 535 339 535 339 535 264.5 c 128,-1,9
 535 190 535 190 552 92 c 1,10,11
 356 75 356 75 160 0 c 1,0,-1
160 570 m 1,12,-1
 150 576 l 1,13,14
 168 676 168 676 168 761.5 c 128,-1,15
 168 847 168 847 150 946 c 1,16,17
 346 963 346 963 542 1038 c 1,18,-1
 552 1032 l 1,19,20
 535 909 535 909 535 834.5 c 128,-1,21
 535 760 535 760 552 662 c 1,22,23
 356 645 356 645 160 570 c 1,12,-1
EndSplineSet
Validated: 1
EndChar

StartChar: semicolon
Encoding: 59 59 26
Width: 804
GlyphClass: 2
Flags: W
VStem: 168 367<615.063 942.903> 289 355<-38.3135 242.99>
LayerCount: 2
Fore
SplineSet
559 397 m 1,0,-1
 569 391 l 1,1,2
 644 294 644 294 644 140 c 0,3,4
 644 -226 644 -226 124 -226 c 1,5,-1
 124 -210 l 1,6,7
 289 -117 289 -117 289 88 c 0,8,9
 289 250 289 250 167 305 c 1,10,11
 363 322 363 322 559 397 c 1,0,-1
160 520 m 1,12,-1
 150 526 l 1,13,14
 168 626 168 626 168 736.5 c 128,-1,15
 168 847 168 847 150 946 c 1,16,17
 346 963 346 963 542 1038 c 1,18,-1
 552 1032 l 1,19,20
 535 909 535 909 535 809.5 c 128,-1,21
 535 710 535 710 552 612 c 1,22,23
 356 595 356 595 160 520 c 1,12,-1
EndSplineSet
Validated: 1
EndChar

StartChar: less
Encoding: 60 60 27
Width: 1480
GlyphClass: 2
Flags: W
LayerCount: 2
Fore
SplineSet
150 588 m 1,0,1
 226 784 226 784 242 980 c 1,2,3
 782 1062 782 1062 1274 1363 c 1,4,-1
 1280 1353 l 1,5,6
 1214 1182 1214 1182 1192 1001 c 1,7,8
 852 970 852 970 569 800 c 1,9,10
 852 648 852 648 1274 592 c 1,11,-1
 1280 582 l 1,12,13
 1206 386 1206 386 1188 190 c 1,14,15
 708 452 708 452 156 578 c 1,16,-1
 150 588 l 1,0,1
EndSplineSet
Validated: 1
EndChar

StartChar: equal
Encoding: 61 61 28
Width: 1409
GlyphClass: 2
Flags: W
HStem: 453 236<269.751 1140.43> 869 236<269.751 1140.43>
LayerCount: 2
Fore
SplineSet
156 400 m 1,0,-1
 150 410 l 1,1,2
 208 561 208 561 232 742 c 1,3,4
 474 689 474 689 706 689 c 0,5,6
 990 689 990 689 1253 742 c 1,7,-1
 1259 732 l 1,8,9
 1201 581 1201 581 1177 400 c 1,10,11
 944 453 944 453 684 453 c 0,12,13
 428 453 428 453 156 400 c 1,0,-1
156 816 m 1,14,-1
 150 826 l 1,15,16
 208 977 208 977 232 1158 c 1,17,18
 474 1105 474 1105 706 1105 c 0,19,20
 990 1105 990 1105 1253 1158 c 1,21,-1
 1259 1148 l 1,22,23
 1201 997 1201 997 1177 816 c 1,24,25
 944 869 944 869 684 869 c 0,26,27
 428 869 428 869 156 816 c 1,14,-1
EndSplineSet
Validated: 1
EndChar

StartChar: greater
Encoding: 62 62 29
Width: 1480
GlyphClass: 2
Flags: W
LayerCount: 2
Fore
SplineSet
1330 965 m 1,0,1
 1254 769 1254 769 1238 573 c 1,2,3
 698 491 698 491 206 190 c 1,4,-1
 200 200 l 1,5,6
 266 371 266 371 288 552 c 1,7,8
 628 583 628 583 911 753 c 1,9,10
 628 905 628 905 206 961 c 1,11,-1
 200 971 l 1,12,13
 274 1167 274 1167 292 1363 c 1,14,15
 772 1101 772 1101 1324 975 c 1,16,-1
 1330 965 l 1,0,1
EndSplineSet
Validated: 1
EndChar

StartChar: question
Encoding: 63 63 30
Width: 1381
VWidth: 0
GlyphClass: 2
Flags: W
HStem: 0 21G<489 597> 1490 20G<539 828>
VStem: 150 253<929.5 1168.24> 507 367<95.0568 372.91> 883 348<871.334 1044.99>
LayerCount: 2
Fore
SplineSet
657 1510 m 1,0,-1
 667 1510 l 1,1,2
 989 1399 989 1399 1121 1254 c 0,3,4
 1231 1133 1231 1133 1231 994 c 0,5,6
 1231 720 1231 720 928 600 c 0,7,8
 802 550 802 550 795 534 c 1,9,-1
 559 479 l 1,10,11
 559 715 559 715 809 848 c 24,12,13
 883 889 883 889 883 956 c 0,14,15
 883 1007 883 1007 826 1057 c 0,16,17
 711 1158 711 1158 429 1174 c 1,18,19
 403 1133 403 1133 403 1088 c 0,20,21
 403 979 403 979 631 937 c 1,22,-1
 307 753 l 1,23,24
 150 862 150 862 150 997 c 0,25,26
 150 1141 150 1141 262 1261 c 0,27,28
 421 1430 421 1430 657 1510 c 1,0,-1
499 0 m 1,29,-1
 489 6 l 1,30,31
 507 106 507 106 507 191.5 c 128,-1,32
 507 277 507 277 489 376 c 1,33,34
 685 393 685 393 881 468 c 1,35,-1
 891 462 l 1,36,37
 874 339 874 339 874 264.5 c 128,-1,38
 874 190 874 190 891 92 c 1,39,40
 695 75 695 75 499 0 c 1,29,-1
EndSplineSet
Validated: 1
EndChar

StartChar: at
Encoding: 64 64 31
Width: 1390
GlyphClass: 2
Flags: W
HStem: -380 21G<599.5 878.5> 0 289<742.973 889.385> 1110 20G<587.5 819>
VStem: 100 251<237.49 622.788> 478 228<326.295 533.27> 926 316<294.998 677.875>
LayerCount: 2
Fore
SplineSet
849 0 m 9,0,-1
 839 0 l 17,1,2
 736 22 736 22 649 77 c 0,3,4
 478 186 478 186 478 358 c 0,5,6
 478 517 478 517 574 590 c 128,-1,7
 670 663 670 663 755 663 c 0,8,9
 812 663 812 663 878 654 c 1,10,11
 706 534 706 534 706 427 c 0,12,13
 706 325 706 325 807 300 c 0,14,15
 851 289 851 289 897 289 c 0,16,17
 903 289 903 289 911 289 c 1,18,19
 926 455 926 455 926 484 c 0,20,21
 926 675 926 675 812 753 c 24,22,23
 670 850 670 850 483 850 c 1,24,25
 351 709 351 709 351 471 c 0,26,27
 351 168 351 168 573 30 c 0,28,29
 787 -103 787 -103 1157 -132 c 1,30,31
 995 -302 995 -302 762 -380 c 1,32,-1
 752 -380 l 1,33,34
 447 -277 447 -277 297 -125 c 0,35,36
 100 75 100 75 100 371 c 128,-1,37
 100 667 100 667 307 881 c 24,38,39
 473 1053 473 1053 702 1130 c 1,40,-1
 712 1130 l 1,41,42
 926 1071 926 1071 1053 964 c 0,43,44
 1242 804 1242 804 1242 562 c 0,45,46
 1242 352 1242 352 1290 92 c 1,47,48
 1094 75 1094 75 898 0 c 1,49,-1
 888 6 l 1,50,-1
 893 50 l 1,51,52
 874 19 874 19 849 0 c 9,0,-1
EndSplineSet
Validated: 1
EndChar

StartChar: A
Encoding: 65 65 32
Width: 1483
GlyphClass: 2
Flags: W
HStem: 0 21G<5 101 1076 1184> 421 231<528.469 904.804> 1490 20G<832 940>
LayerCount: 2
Fore
SplineSet
15 0 m 1,0,-1
 5 6 l 1,1,2
 365 692 365 692 538 1418 c 1,3,4
 734 1435 734 1435 930 1510 c 1,5,-1
 940 1504 l 1,6,7
 1125 723 1125 723 1478 92 c 1,8,9
 1282 75 1282 75 1086 0 c 1,10,-1
 1076 6 l 1,11,12
 1044 219 1044 219 984 411 c 1,13,14
 873 421 873 421 703 421 c 0,15,16
 544 421 544 421 447 411 c 1,17,18
 401 253 401 253 367 88 c 1,19,20
 187 66 187 66 15 0 c 1,0,-1
527 655 m 1,21,22
 589 652 589 652 715 652 c 0,23,24
 849 652 849 652 907 654 c 1,25,26
 825 888 825 888 718 1091 c 1,27,28
 609 881 609 881 527 655 c 1,21,22
EndSplineSet
Validated: 1
EndChar

StartChar: C
Encoding: 67 67 33
Width: 1456
VWidth: 0
GlyphClass: 2
Flags: W
HStem: 0 21G<619.5 899> 1490 20G<607.5 882>
VStem: 120 313<632.48 1004.46>
LayerCount: 2
Fore
SplineSet
782 0 m 1,0,-1
 772 0 l 1,1,2
 467 103 467 103 317 255 c 0,3,4
 120 455 120 455 120 751 c 128,-1,5
 120 1047 120 1047 327 1261 c 24,6,7
 493 1433 493 1433 722 1510 c 1,8,-1
 732 1510 l 1,9,10
 1032 1408 1032 1408 1186 1254 c 16,11,12
 1230 1210 1230 1210 1264 1161 c 1,13,-1
 946 1004 l 1,14,15
 921 1032 921 1032 891 1057 c 0,16,17
 766 1161 766 1161 494 1174 c 1,18,19
 433 1033 433 1033 433 864 c 0,20,21
 433 602 433 602 613 453 c 0,22,23
 742 346 742 346 1010 336 c 1,24,25
 1027 397 1027 397 1027 460 c 0,26,27
 1027 556 1027 556 989 654 c 9,28,-1
 1356 554 l 17,29,30
 1308 386 1308 386 1177 248 c 0,31,32
 1016 78 1016 78 782 0 c 1,0,-1
EndSplineSet
Validated: 1
EndChar

StartChar: E
Encoding: 69 69 34
Width: 1249
GlyphClass: 2
Flags: W
HStem: 0 21G<180 293.5 1029.5 1125> 45 241<567.119 1015.89> 593 242<543 863.315> 1490 20G<477 585 1060.5 1143>
VStem: 224 319<301.148 593 835 1384.77>
LayerCount: 2
Fore
SplineSet
190 0 m 1,0,-1
 180 6 l 1,1,2
 224 364 224 364 224 730 c 0,3,4
 224 1063 224 1063 183 1418 c 1,5,6
 379 1435 379 1435 575 1510 c 1,7,-1
 585 1504 l 1,8,9
 688 1461 688 1461 865 1461 c 0,10,11
 984 1461 984 1461 1137 1510 c 1,12,-1
 1143 1500 l 1,13,14
 1087 1368 1087 1368 1051 1108 c 1,15,16
 867 1121 867 1121 766 1183 c 0,17,18
 650 1254 650 1254 576 1428 c 1,19,20
 544 1136 544 1136 540 835 c 1,21,22
 816 835 816 835 1044 950 c 1,23,-1
 1050 940 l 1,24,25
 994 808 994 808 958 548 c 1,26,27
 805 593 805 593 543 593 c 1,28,29
 546 461 546 461 561 296 c 1,30,31
 632 286 632 286 753 286 c 0,32,33
 962 286 962 286 1193 402 c 1,34,-1
 1199 392 l 1,35,36
 1143 260 1143 260 1107 0 c 1,37,38
 952 45 952 45 758 45 c 0,39,40
 397 45 397 45 190 0 c 1,0,-1
EndSplineSet
Validated: 1
EndChar

StartChar: G
Encoding: 71 71 35
Width: 1504
GlyphClass: 2
Flags: W
HStem: 0 21G<619.5 898.5> 1490 20G<607.5 882>
VStem: 120 313<632.48 1004.46>
LayerCount: 2
Fore
SplineSet
782 0 m 1,0,-1
 772 0 l 1,1,2
 467 103 467 103 317 255 c 0,3,4
 120 455 120 455 120 751 c 128,-1,5
 120 1047 120 1047 327 1261 c 24,6,7
 493 1433 493 1433 722 1510 c 1,8,-1
 732 1510 l 1,9,10
 1032 1408 1032 1408 1186 1254 c 16,11,12
 1230 1210 1230 1210 1264 1161 c 1,13,-1
 946 1004 l 1,14,15
 921 1032 921 1032 891 1057 c 0,16,17
 766 1161 766 1161 494 1174 c 1,18,19
 433 1033 433 1033 433 864 c 0,20,21
 433 602 433 602 613 453 c 0,22,23
 742 346 742 346 1010 336 c 1,24,25
 1063 466 1063 466 1070 605 c 1,26,27
 910 583 910 583 732 495 c 1,28,-1
 726 505 l 1,29,30
 782 637 782 637 818 897 c 1,31,32
 973 852 973 852 1167 852 c 2,33,-1
 1378 852 l 1,34,-1
 1384 759 l 17,35,36
 1384 467 1384 467 1177 248 c 0,37,38
 1015 78 1015 78 782 0 c 1,0,-1
EndSplineSet
Validated: 1
EndChar

StartChar: H
Encoding: 72 72 36
Width: 1524
GlyphClass: 2
Flags: W
HStem: 0 21G<180 288 939 1047> 659 241<545.311 976.036> 1490 20G<477 585 1236 1344>
VStem: 180 402<87.5874 640.189 917.497 1421.7> 939 402<87.5874 639.845 918.753 1421.7>
LayerCount: 2
Fore
SplineSet
190 0 m 1,0,-1
 180 6 l 1,1,2
 224 364 224 364 224 733 c 0,3,4
 224 1063 224 1063 183 1418 c 1,5,6
 379 1435 379 1435 575 1510 c 1,7,-1
 585 1504 l 1,8,9
 548 1212 548 1212 542 908 c 1,10,11
 648 900 648 900 747 900 c 0,12,13
 853 900 853 900 980 911 c 1,14,15
 972 1159 972 1159 942 1418 c 1,16,17
 1138 1435 1138 1435 1334 1510 c 1,18,-1
 1344 1504 l 1,19,20
 1300 1154 1300 1154 1299 782 c 0,21,22
 1299 429 1299 429 1341 92 c 1,23,24
 1145 75 1145 75 949 0 c 1,25,-1
 939 6 l 1,26,27
 978 325 978 325 982 650 c 1,28,29
 871 659 871 659 749 659 c 0,30,31
 648 659 648 659 542 649 c 1,32,33
 548 367 548 367 582 92 c 1,34,35
 386 75 386 75 190 0 c 1,0,-1
EndSplineSet
Validated: 1
EndChar

StartChar: I
Encoding: 73 73 37
Width: 765
GlyphClass: 2
Flags: W
HStem: 0 21G<180 288> 1490 20G<477 585>
VStem: 180 402<87.5874 718.564 740.412 770.973 793.62 1421.7> 224 316<134.188 1384.77>
LayerCount: 2
Fore
SplineSet
190 0 m 1,0,-1
 180 6 l 1,1,2
 224 364 224 364 224 730 c 0,3,4
 224 1063 224 1063 183 1418 c 1,5,6
 379 1435 379 1435 575 1510 c 1,7,-1
 585 1504 l 1,8,9
 541 1154 541 1154 540 782 c 0,10,11
 540 429 540 429 582 92 c 1,12,13
 386 75 386 75 190 0 c 1,0,-1
EndSplineSet
Validated: 1
EndChar

StartChar: L
Encoding: 76 76 38
Width: 1204
GlyphClass: 2
Flags: W
HStem: 0 21G<180 293.5 1029.5 1125> 45 241<567.119 1015.89> 1490 20G<477 585>
VStem: 224 316<302.086 1384.86>
LayerCount: 2
Fore
SplineSet
190 0 m 1,0,-1
 180 6 l 1,1,2
 224 364 224 364 224 730 c 0,3,4
 224 1064 224 1064 183 1418 c 1,5,6
 379 1435 379 1435 575 1510 c 1,7,-1
 585 1504 l 1,8,9
 540 1146 540 1146 540 782 c 0,10,11
 540 490 540 490 561 296 c 1,12,13
 632 287 632 287 753 286 c 0,14,15
 962 286 962 286 1193 402 c 1,16,-1
 1199 392 l 1,17,18
 1143 260 1143 260 1107 0 c 1,19,20
 952 45 952 45 758 45 c 0,21,22
 397 45 397 45 190 0 c 1,0,-1
EndSplineSet
Validated: 1
EndChar

StartChar: N
Encoding: 78 78 39
Width: 1584
GlyphClass: 2
Flags: W
HStem: 0 21G<267 328 1002 1110> 1490 20G<414 522 1320.5 1404>
VStem: 326 208<155.821 825.227> 1148 206<478.547 1297.44>
LayerCount: 2
Fore
SplineSet
277 0 m 1,0,-1
 267 6 l 1,1,2
 326 318 326 318 326 695 c 0,3,4
 326 940 326 940 304 1186 c 1,5,6
 229 1286 229 1286 120 1418 c 1,7,8
 316 1435 316 1435 512 1510 c 1,9,-1
 522 1504 l 1,10,11
 801 870 801 870 1143 478 c 1,12,13
 1148 626 1148 626 1148 781 c 0,14,15
 1147 1095 1147 1095 1082 1422 c 1,16,17
 1247 1444 1247 1444 1394 1510 c 1,18,-1
 1404 1504 l 1,19,20
 1354 1075 1354 1075 1354 773 c 0,21,22
 1354 461 1354 461 1404 92 c 1,23,24
 1208 75 1208 75 1012 0 c 1,25,-1
 1002 6 l 1,26,27
 786 504 786 504 535 826 c 1,28,29
 534 779 534 779 534 642 c 0,30,31
 534 389 534 389 589 88 c 1,32,33
 379 51 379 51 277 0 c 1,0,-1
EndSplineSet
Validated: 1
EndChar

StartChar: O
Encoding: 79 79 40
Width: 1504
VWidth: 0
GlyphClass: 2
Flags: W
HStem: 0 21G<619.5 898.5> 1490 20G<607.5 882>
VStem: 120 313<631.98 1004.46> 1071 313<506.208 877.161>
LayerCount: 2
Fore
SplineSet
782 0 m 1,0,-1
 772 0 l 1,1,2
 467 103 467 103 317 255 c 0,3,4
 120 455 120 455 120 751 c 128,-1,5
 120 1047 120 1047 327 1261 c 24,6,7
 493 1433 493 1433 722 1510 c 1,8,-1
 732 1510 l 1,9,10
 1032 1408 1032 1408 1186 1254 c 24,11,12
 1384 1056 1384 1056 1384 759 c 0,13,14
 1384 467 1384 467 1177 248 c 0,15,16
 1015 78 1015 78 782 0 c 1,0,-1
494 1174 m 1,17,18
 433 1033 433 1033 433 864 c 0,19,20
 433 600 433 600 613 453 c 0,21,22
 742 346 742 346 1010 336 c 1,23,24
 1071 486 1071 486 1071 646 c 0,25,26
 1071 906 1071 906 891 1057 c 0,27,28
 766 1161 766 1161 494 1174 c 1,17,18
EndSplineSet
Validated: 1
EndChar

StartChar: T
Encoding: 84 84 41
Width: 1246
GlyphClass: 2
Flags: W
HStem: 0 21G<417 525> 1240 227<228.75 441.453 794.247 969.072> 1490 20G<79 231.5 1099.5 1241>
VStem: 461 316<134.305 1231.85>
LayerCount: 2
Fore
SplineSet
427 0 m 1,0,-1
 417 6 l 1,1,2
 461 364 461 364 461 730 c 0,3,4
 461 979 461 979 438 1240 c 1,5,6
 233 1220 233 1220 11 1108 c 1,7,-1
 5 1118 l 1,8,9
 61 1250 61 1250 97 1510 c 1,10,11
 366 1467 366 1467 639 1467 c 0,12,13
 964 1467 964 1467 1235 1510 c 1,14,-1
 1241 1500 l 1,15,16
 1185 1368 1185 1368 1149 1108 c 1,17,18
 968 1219 968 1219 798 1240 c 1,19,20
 777 1006 777 1006 777 782 c 0,21,22
 777 430 777 430 819 92 c 1,23,24
 623 75 623 75 427 0 c 1,0,-1
EndSplineSet
Validated: 1
EndChar

StartChar: V
Encoding: 86 86 42
Width: 1483
GlyphClass: 2
Flags: W
HStem: 0 21G<543 651> 1490 20G<299 407 1382 1478>
LayerCount: 2
Fore
SplineSet
553 0 m 1,0,-1
 543 6 l 1,1,2
 351 792 351 792 5 1418 c 1,3,4
 201 1435 201 1435 397 1510 c 1,5,-1
 407 1504 l 1,6,7
 504 900 504 900 765 419 c 1,8,9
 1004 880 1004 880 1116 1422 c 1,10,11
 1296 1444 1296 1444 1468 1510 c 1,12,-1
 1478 1504 l 1,13,14
 1118 818 1118 818 945 92 c 1,15,16
 749 75 749 75 553 0 c 1,0,-1
EndSplineSet
Validated: 1
EndChar

StartChar: W
Encoding: 87 87 43
Width: 2022
GlyphClass: 2
Flags: W
HStem: 0 21G<543 651 1082 1190> 1490 20G<299 407 838 946 1382 1478 1921 2017>
LayerCount: 2
Fore
SplineSet
553 0 m 1,0,-1
 543 6 l 1,1,2
 372 796 372 796 5 1418 c 1,3,4
 201 1435 201 1435 397 1510 c 1,5,-1
 407 1504 l 1,6,7
 488 898 488 898 765 419 c 1,8,9
 845 540 845 540 908 669 c 1,10,11
 765 1071 765 1071 544 1418 c 1,12,13
 740 1435 740 1435 936 1510 c 1,14,-1
 946 1504 l 1,15,16
 972 1239 972 1239 1038 1007 c 1,17,18
 1096 1207 1096 1207 1116 1422 c 1,19,20
 1296 1444 1296 1444 1468 1510 c 1,21,-1
 1478 1504 l 1,22,23
 1260 1139 1260 1139 1123 761 c 1,24,25
 1199 577 1199 577 1304 419 c 1,26,27
 1543 880 1543 880 1655 1422 c 1,28,29
 1835 1444 1835 1444 2007 1510 c 1,30,-1
 2017 1504 l 1,31,32
 1657 818 1657 818 1484 92 c 1,33,34
 1288 75 1288 75 1092 0 c 1,35,-1
 1082 6 l 1,36,37
 1049 190 1049 190 1002 364 c 1,38,39
 969 229 969 229 945 92 c 1,40,41
 749 75 749 75 553 0 c 1,0,-1
EndSplineSet
Validated: 1
EndChar

StartChar: bracketleft
Encoding: 91 91 44
Width: 1003
GlyphClass: 2
Flags: W
HStem: -245 241<551.876 816.702>
VStem: 214 316<186.532 1377.33>
LayerCount: 2
Fore
SplineSet
180 -290 m 1,0,1
 170 -284 l 1,2,3
 214 74 214 74 214 732 c 0,4,5
 214 1355 214 1355 173 1710 c 1,6,7
 369 1727 369 1727 565 1802 c 1,8,-1
 575 1796 l 1,9,10
 669 1754 669 1754 753 1754 c 0,11,12
 843 1754 843 1754 947 1802 c 1,13,-1
 953 1792 l 1,14,15
 897 1660 897 1660 861 1402 c 1,16,17
 729 1425 729 1425 662 1498 c 0,18,19
 582 1584 582 1584 566 1720 c 1,20,21
 530 1406 530 1406 530 837 c 0,22,23
 530 263 530 263 551 6 c 1,24,25
 579 -4 579 -4 611 -4 c 0,26,27
 781 -4 781 -4 947 112 c 1,28,-1
 953 102 l 1,29,30
 897 -30 897 -30 861 -290 c 1,31,32
 706 -245 706 -245 533 -245 c 0,33,34
 393 -245 393 -245 180 -290 c 1,0,1
EndSplineSet
Validated: 1
EndChar

StartChar: backslash
Encoding: 92 92 45
Width: 1259
GlyphClass: 2
Flags: W
LayerCount: 2
Fore
SplineSet
897 -150 m 1,0,1
 887 -144 l 1,2,3
 747 250 747 250 543 642 c 0,4,5
 297 1114 297 1114 10 1572 c 1,6,7
 190 1594 190 1594 362 1660 c 1,8,-1
 372 1654 l 1,9,10
 510 1263 510 1263 716 868 c 0,11,12
 970 382 970 382 1249 -62 c 1,13,14
 1069 -84 1069 -84 897 -150 c 1,0,1
EndSplineSet
Validated: 1
EndChar

StartChar: bracketright
Encoding: 93 93 46
Width: 1003
GlyphClass: 2
Flags: W
HStem: 1516 241<186.298 451.124>
VStem: 473 316<134.668 1325.47>
LayerCount: 2
Fore
SplineSet
56 -290 m 1,0,-1
 50 -280 l 1,1,2
 106 -148 106 -148 142 110 c 1,3,4
 274 87 274 87 341 14 c 0,5,6
 421 -72 421 -72 437 -208 c 1,7,8
 473 106 473 106 473 675 c 0,9,10
 473 1249 473 1249 452 1506 c 1,11,12
 424 1516 424 1516 392 1516 c 0,13,14
 222 1516 222 1516 56 1400 c 1,15,-1
 50 1410 l 1,16,17
 106 1542 106 1542 142 1802 c 1,18,19
 297 1757 297 1757 470 1757 c 0,20,21
 610 1757 610 1757 823 1802 c 1,22,-1
 833 1796 l 1,23,24
 789 1438 789 1438 789 780 c 0,25,26
 789 157 789 157 830 -198 c 1,27,28
 634 -215 634 -215 438 -290 c 1,29,-1
 428 -284 l 1,30,31
 334 -242 334 -242 250 -242 c 0,32,33
 160 -242 160 -242 56 -290 c 1,0,-1
EndSplineSet
Validated: 1
EndChar

StartChar: asciicircum
Encoding: 94 94 47
Width: 1473
GlyphClass: 2
Flags: W
HStem: 1490 20G<827 935>
LayerCount: 2
Fore
SplineSet
925 1510 m 1,0,-1
 935 1504 l 1,1,2
 1068 1150 1068 1150 1323 872 c 1,3,4
 1127 855 1127 855 931 780 c 1,5,-1
 921 786 l 1,6,7
 854 983 854 983 713 1122 c 1,8,9
 572 1002 572 1002 512 868 c 1,10,11
 332 846 332 846 160 780 c 1,12,-1
 150 786 l 1,13,14
 428 1118 428 1118 533 1418 c 1,15,16
 729 1435 729 1435 925 1510 c 1,0,-1
EndSplineSet
Validated: 1
EndChar

StartChar: underscore
Encoding: 95 95 48
Width: 1409
GlyphClass: 2
Flags: W
HStem: -380 21G<150 292 1060.5 1189> -327 236<269.751 1140.43>
LayerCount: 2
Fore
SplineSet
156 -380 m 1,0,-1
 150 -370 l 1,1,2
 208 -219 208 -219 232 -38 c 1,3,4
 474 -91 474 -91 706 -91 c 0,5,6
 990 -91 990 -91 1253 -38 c 1,7,-1
 1259 -48 l 1,8,9
 1201 -199 1201 -199 1177 -380 c 1,10,11
 944 -327 944 -327 684 -327 c 0,12,13
 428 -327 428 -327 156 -380 c 1,0,-1
EndSplineSet
Validated: 1
EndChar

StartChar: grave
Encoding: 96 96 49
Width: 1024
GlyphClass: 2
Flags: W
HStem: 952 558
LayerCount: 2
Fore
SplineSet
546 1510 m 1,0,-1
 556 1504 l 1,1,2
 652 1248 652 1248 874 1042 c 1,3,-1
 868 1032 l 1,4,5
 733 1011 733 1011 576 952 c 1,6,-1
 566 958 l 1,7,8
 432 1208 432 1208 150 1408 c 1,9,-1
 154 1418 l 1,10,11
 350 1435 350 1435 546 1510 c 1,0,-1
EndSplineSet
Validated: 1
EndChar

StartChar: a
Encoding: 97 97 50
Width: 1261
GlyphClass: 2
Flags: W
HStem: 0 289<480.025 752.706> 1110 20G<451 690>
VStem: 100 331<337.732 522.769> 797 316<294.998 670.172>
LayerCount: 2
Fore
SplineSet
639 0 m 9,0,-1
 629 0 l 17,1,2
 444 0 444 0 299 79 c 0,3,4
 100 187 100 187 100 360 c 0,5,6
 100 513 100 513 217 600 c 0,7,8
 316 674 316 674 480 674 c 0,9,10
 537 674 537 674 603 665 c 1,11,12
 431 545 431 545 431 438 c 0,13,14
 431 335 431 335 532 311 c 0,15,16
 625 289 625 289 782 289 c 1,17,18
 797 455 797 455 797 484 c 0,19,20
 797 657 797 657 683 753 c 24,21,22
 561 856 561 856 175 856 c 1,23,24
 329 1056 329 1056 573 1130 c 1,25,-1
 583 1130 l 1,26,27
 797 1071 797 1071 924 964 c 0,28,29
 1113 804 1113 804 1113 562 c 0,30,31
 1113 352 1113 352 1161 92 c 1,32,33
 965 75 965 75 769 0 c 1,34,-1
 759 6 l 1,35,-1
 764 50 l 1,36,37
 704 20 704 20 639 0 c 9,0,-1
EndSplineSet
Validated: 1
EndChar

StartChar: b
Encoding: 98 98 51
Width: 1320
GlyphClass: 2
Flags: W
HStem: 0 291<699.95 839.354> 1110 20G<634.5 797> 1490 20G<444 552>
VStem: 191 316<460.012 843 1057 1384.77> 936 284<353.137 642.017>
LayerCount: 2
Fore
SplineSet
730 0 m 1,0,-1
 720 0 l 1,1,2
 504 59 504 59 379 166 c 0,3,4
 191 327 191 327 191 569 c 9,5,-1
 191 730 l 17,6,7
 191 1063 191 1063 150 1418 c 1,8,9
 346 1435 346 1435 542 1510 c 1,10,-1
 552 1504 l 1,11,12
 521 1272 521 1272 511 1057 c 1,13,14
 589 1102 589 1102 680 1130 c 1,15,-1
 690 1130 l 1,16,17
 904 1071 904 1071 1031 964 c 0,18,19
 1220 804 1220 804 1220 562 c 0,20,21
 1220 361 1220 361 1080 216 c 0,22,23
 932 63 932 63 730 0 c 1,0,-1
505 843 m 1,24,25
 507 770 507 770 507 646 c 0,26,27
 507 465 507 465 626 377 c 0,28,29
 727 302 727 302 894 291 c 1,30,31
 936 398 936 398 936 484 c 0,32,33
 936 639 936 639 790 753 c 0,34,35
 704 820 704 820 505 843 c 1,24,25
EndSplineSet
Validated: 1
EndChar

StartChar: c
Encoding: 99 99 52
Width: 1188
GlyphClass: 2
Flags: W
HStem: 0 291<608.95 749.162> 839 291<476.412 625.176>
VStem: 100 289<486.981 774.402>
LayerCount: 2
Fore
SplineSet
639 0 m 9,0,-1
 629 0 l 17,1,2
 413 59 413 59 288 166 c 0,3,4
 100 327 100 327 100 569 c 0,5,6
 100 765 100 765 239 914 c 24,7,8
 379 1065 379 1065 589 1130 c 9,9,-1
 599 1130 l 17,10,11
 811 1071 811 1071 940 964 c 16,12,13
 1013 903 1013 903 1057 829 c 1,14,-1
 787 665 l 1,15,16
 753 712 753 712 699 753 c 0,17,18
 603 826 603 826 431 839 c 1,19,20
 389 732 389 732 389 646 c 0,21,22
 389 485 389 485 535 377 c 0,23,24
 636 302 636 302 803 291 c 1,25,26
 803 370 803 370 782 458 c 9,27,-1
 1088 361 l 17,28,29
 1053 283 1053 283 989 216 c 0,30,31
 843 63 843 63 639 0 c 9,0,-1
EndSplineSet
Validated: 1
EndChar

StartChar: d
Encoding: 100 100 53
Width: 1330
GlyphClass: 2
Flags: W
HStem: 0 21G<521 676.5 775 883> 839 291<476.816 627.817> 1490 20G<1072 1180>
VStem: 100 289<486.981 774.402> 818 317<295.969 681.829>
LayerCount: 2
Fore
SplineSet
639 0 m 1,0,-1
 629 0 l 1,1,2
 413 59 413 59 288 166 c 0,3,4
 100 327 100 327 100 569 c 0,5,6
 100 765 100 765 239 914 c 0,7,8
 380 1065 380 1065 589 1130 c 1,9,-1
 599 1130 l 1,10,11
 738 1082 738 1082 810 984 c 1,12,13
 800 1165 800 1165 778 1418 c 1,14,15
 974 1435 974 1435 1170 1510 c 1,16,-1
 1180 1504 l 1,17,18
 1136 1154 1136 1154 1135 782 c 0,19,20
 1135 429 1135 429 1177 92 c 1,21,22
 981 75 981 75 785 0 c 1,23,-1
 775 6 l 1,24,-1
 781 59 l 1,25,26
 714 23 714 23 639 0 c 1,0,-1
431 839 m 1,27,28
 389 732 389 732 389 646 c 0,29,30
 389 485 389 485 535 377 c 0,31,32
 636 302 636 302 803 291 c 1,33,34
 815 450 815 450 818 612 c 1,35,36
 782 690 782 690 699 753 c 0,37,38
 603 826 603 826 431 839 c 1,27,28
EndSplineSet
Validated: 1
EndChar

StartChar: e
Encoding: 101 101 54
Width: 1188
GlyphClass: 2
Flags: W
HStem: 0 291<608.95 749.162> 498 20<573.737 735> 839 291<476.412 624.238>
VStem: 100 289<486.981 774.402> 735 321<615.341 758.944>
LayerCount: 2
Fore
SplineSet
639 0 m 9,0,-1
 629 0 l 17,1,2
 413 59 413 59 288 166 c 0,3,4
 100 327 100 327 100 569 c 0,5,6
 100 765 100 765 239 914 c 24,7,8
 379 1065 379 1065 589 1130 c 9,9,-1
 599 1130 l 17,10,11
 803 1073 803 1073 940 964 c 16,12,13
 1056 872 1056 872 1056 751 c 0,14,15
 1056 611 1056 611 920 540 c 0,16,17
 839 498 839 498 722 498 c 0,18,19
 643 498 643 498 543 518 c 1,20,21
 735 570 735 570 735 671 c 0,22,23
 735 725 735 725 699 753 c 0,24,25
 614 822 614 822 431 839 c 1,26,27
 389 732 389 732 389 646 c 0,28,29
 389 485 389 485 535 377 c 0,30,31
 636 302 636 302 803 291 c 1,32,33
 803 370 803 370 782 458 c 9,34,-1
 1088 361 l 17,35,36
 1054 283 1054 283 989 216 c 0,37,38
 843 63 843 63 639 0 c 9,0,-1
EndSplineSet
Validated: 1
EndChar

StartChar: f
Encoding: 102 102 55
Width: 1145
GlyphClass: 2
Flags: W
HStem: 0 21G<164 272> 551 243<532 858.719> 1217 293<623.434 774.199>
VStem: 212 316<99.0642 535>
LayerCount: 2
Fore
SplineSet
174 0 m 1,0,-1
 164 6 l 1,1,2
 212 292 212 292 212 503 c 0,3,4
 212 519 212 519 212 535 c 1,5,6
 136 525 136 525 56 509 c 1,7,-1
 50 519 l 1,8,9
 89 646 89 646 115 836 c 1,10,11
 157 827 157 827 199 819 c 1,12,13
 193 869 193 869 186 909 c 1,14,15
 201 1102 201 1102 384 1294 c 0,16,17
 529 1446 529 1446 734 1510 c 1,18,-1
 744 1510 l 1,19,20
 989 1444 989 1444 1125 1307 c 9,21,-1
 886 1097 l 17,22,23
 794 1195 794 1195 603 1217 c 1,24,25
 568 1111 568 1111 550 998 c 0,26,27
 537 915 537 915 532 794 c 1,28,29
 736 798 736 798 923 836 c 1,30,-1
 929 826 l 1,31,32
 890 699 890 699 864 509 c 1,33,34
 695 545 695 545 528 551 c 1,35,36
 530 318 530 318 566 92 c 1,37,38
 370 75 370 75 174 0 c 1,0,-1
EndSplineSet
Validated: 1
EndChar

StartChar: g
Encoding: 103 103 56
Width: 1306
GlyphClass: 2
Flags: W
HStem: -380 255<527.008 718.566> 0 21G<523 692> 839 291<480.646 619.871>
VStem: 100 284<472.954 776.863> 814 316<267.03 663.951>
LayerCount: 2
Fore
SplineSet
640 0 m 1,0,-1
 630 0 l 1,1,2
 416 59 416 59 289 166 c 0,3,4
 100 326 100 326 100 568 c 0,5,6
 100 769 100 769 240 914 c 0,7,8
 388 1067 388 1067 590 1130 c 9,9,-1
 600 1130 l 17,10,11
 814 1071 814 1071 941 964 c 24,12,13
 1130 804 1130 804 1130 562 c 0,14,15
 1130 364 1130 364 1156 221 c 1,16,17
 1141 28 1141 28 958 -164 c 0,18,19
 813 -316 813 -316 608 -380 c 9,20,-1
 598 -380 l 17,21,22
 384 -320 384 -320 257 -214 c 16,23,24
 184 -153 184 -153 140 -79 c 1,25,-1
 372 50 l 1,26,27
 402 6 402 6 460 -38 c 0,28,29
 575 -125 575 -125 670 -125 c 0,30,31
 710 -125 710 -125 758 -121 c 1,32,33
 814 -14 814 -14 814 104 c 1,34,35
 744 36 744 36 640 0 c 1,0,-1
815 267 m 1,36,37
 813 340 813 340 813 484 c 0,38,39
 813 665 813 665 694 753 c 0,40,41
 593 828 593 828 426 839 c 1,42,43
 384 732 384 732 384 646 c 0,44,45
 384 471 384 471 530 357 c 0,46,47
 616 290 616 290 815 267 c 1,36,37
EndSplineSet
Validated: 1
EndChar

StartChar: h
Encoding: 104 104 57
Width: 1360
GlyphClass: 2
Flags: W
HStem: 0 21G<150 258 858 966> 1110 20G<630.5 789> 1490 20G<447 555>
VStem: 150 402<87.5874 718.564 1072 1421.7> 194 316<134.188 840 1065 1384.77> 896 316<108.201 677.203>
LayerCount: 2
Fore
SplineSet
160 0 m 1,0,-1
 150 6 l 1,1,2
 194 364 194 364 194 730 c 0,3,4
 194 1063 194 1063 153 1418 c 1,5,6
 349 1435 349 1435 545 1510 c 1,7,-1
 555 1504 l 1,8,9
 528 1289 528 1289 517 1065 c 1,10,11
 589 1104 589 1104 672 1130 c 1,12,-1
 682 1130 l 1,13,14
 896 1071 896 1071 1023 964 c 0,15,16
 1212 804 1212 804 1212 562 c 0,17,18
 1212 352 1212 352 1260 92 c 1,19,20
 1064 75 1064 75 868 0 c 1,21,-1
 858 6 l 1,22,23
 896 339 896 339 896 484 c 0,24,25
 896 672 896 672 782 753 c 0,26,27
 675 828 675 828 514 839 c 1,28,-1
 510 840 l 1,29,30
 510 811 510 811 510 782 c 0,31,32
 510 429 510 429 552 92 c 1,33,34
 356 75 356 75 160 0 c 1,0,-1
EndSplineSet
Validated: 1
EndChar

StartChar: i
Encoding: 105 105 58
Width: 702
GlyphClass: 2
Flags: W
HStem: 0 21G<150 258> 1110 20G<444 552> 1490 20G<444 552>
VStem: 168 367<1226 1415.78> 188 316<108.265 1030.53>
LayerCount: 2
Fore
SplineSet
150 1138 m 1,0,1
 168 1202 168 1202 168 1276 c 0,2,3
 168 1347 168 1347 150 1418 c 1,4,5
 346 1435 346 1435 542 1510 c 1,6,-1
 552 1504 l 1,7,8
 535 1423 535 1423 535 1355.5 c 128,-1,9
 535 1288 535 1288 552 1224 c 1,10,11
 356 1207 356 1207 160 1132 c 1,12,-1
 150 1138 l 1,0,1
160 0 m 1,13,-1
 150 6 l 1,14,15
 188 339 188 339 188 565 c 0,16,17
 188 799 188 799 150 1038 c 1,18,19
 346 1055 346 1055 542 1130 c 1,20,-1
 552 1124 l 1,21,22
 504 838 504 838 504 627 c 0,23,24
 504 352 504 352 552 92 c 1,25,26
 356 75 356 75 160 0 c 1,13,-1
EndSplineSet
Validated: 1
EndChar

StartChar: j
Encoding: 106 106 59
Width: 702
GlyphClass: 2
Flags: W
HStem: -380 21G<-28 84.5> 1110 20G<444 552> 1490 20G<444 552>
VStem: 168 367<64.3525 556.096 1226 1415.78> 188 316<22.4204 1030.69>
LayerCount: 2
Fore
SplineSet
150 1138 m 1,0,1
 168 1202 168 1202 168 1276 c 0,2,3
 168 1347 168 1347 150 1418 c 1,4,5
 346 1435 346 1435 542 1510 c 1,6,-1
 552 1504 l 1,7,8
 535 1423 535 1423 535 1355.5 c 128,-1,9
 535 1288 535 1288 552 1224 c 1,10,11
 356 1207 356 1207 160 1132 c 1,12,-1
 150 1138 l 1,0,1
-18 -380 m 9,13,-1
 -28 -374 l 17,14,15
 125 -142 125 -142 166 132 c 0,16,17
 188 279 188 279 188 565 c 0,18,19
 188 804 188 804 150 1038 c 1,20,21
 346 1055 346 1055 542 1130 c 1,22,-1
 552 1124 l 1,23,24
 504 838 504 838 504 627 c 0,25,26
 504 364 504 364 530 221 c 1,27,28
 515 28 515 28 332 -164 c 0,29,30
 187 -316 187 -316 -18 -380 c 9,13,-1
EndSplineSet
Validated: 1
EndChar

StartChar: k
Encoding: 107 107 60
Width: 1234
GlyphClass: 2
Flags: W
HStem: 0 21G<150 258 822 930> 1110 20G<862 928.5> 1490 20G<447 555>
VStem: 150 402<87.5874 440.469 780.054 1421.7> 194 316<768 1384.77>
LayerCount: 2
Fore
SplineSet
160 0 m 1,0,-1
 150 6 l 1,1,2
 194 364 194 364 194 730 c 0,3,4
 194 1063 194 1063 153 1418 c 1,5,6
 349 1435 349 1435 545 1510 c 1,7,-1
 555 1504 l 1,8,9
 511 1154 511 1154 510 768 c 1,10,11
 714 898 714 898 862 1124 c 1,12,-1
 872 1130 l 1,13,14
 985 1024 985 1024 1124 962 c 1,15,16
 934 847 934 847 796 694 c 1,17,18
 962 400 962 400 1224 92 c 1,19,20
 1028 75 1028 75 832 0 c 1,21,-1
 822 6 l 1,22,23
 710 268 710 268 560 504 c 1,24,25
 536 475 536 475 520 446 c 1,26,27
 530 269 530 269 552 92 c 1,28,29
 356 75 356 75 160 0 c 1,0,-1
EndSplineSet
Validated: 1
EndChar

StartChar: l
Encoding: 108 108 61
Width: 705
GlyphClass: 2
Flags: W
HStem: 0 21G<150 258> 1490 20G<447 555>
VStem: 150 402<87.5874 718.564 740.412 770.973 793.62 1421.7> 194 316<134.188 1384.77>
LayerCount: 2
Fore
SplineSet
160 0 m 1,0,-1
 150 6 l 1,1,2
 194 364 194 364 194 730 c 0,3,4
 194 1063 194 1063 153 1418 c 1,5,6
 349 1435 349 1435 545 1510 c 1,7,-1
 555 1504 l 1,8,9
 511 1154 511 1154 510 782 c 0,10,11
 510 429 510 429 552 92 c 1,12,13
 356 75 356 75 160 0 c 1,0,-1
EndSplineSet
Validated: 1
EndChar

StartChar: m
Encoding: 109 109 62
Width: 2068
GlyphClass: 2
Flags: W
HStem: 0 21G<150 258 858 966 1566 1674> 810 320<1265.21 1467.19> 839 291<556.312 705.967>
VStem: 188 316<108.265 835.441> 896 316<108.201 677.672> 1604 316<108.201 677.203>
CounterMasks: 1 1c
LayerCount: 2
Fore
SplineSet
160 0 m 1,0,-1
 150 6 l 1,1,2
 188 339 188 339 188 565 c 0,3,4
 188 799 188 799 150 1038 c 1,5,6
 346 1055 346 1055 542 1130 c 1,7,-1
 552 1124 l 1,8,-1
 545 1080 l 1,9,10
 605 1109 605 1109 672 1130 c 1,11,-1
 682 1130 l 1,12,13
 901 1070 901 1070 1023 964 c 0,14,15
 1038 951 1038 951 1053 937 c 1,16,17
 1187 1070 1187 1070 1380 1130 c 1,18,-1
 1390 1130 l 1,19,20
 1604 1071 1604 1071 1731 964 c 0,21,22
 1920 804 1920 804 1920 562 c 0,23,24
 1920 352 1920 352 1968 92 c 1,25,26
 1772 75 1772 75 1576 0 c 1,27,-1
 1566 6 l 1,28,29
 1604 339 1604 339 1604 484 c 0,30,31
 1604 672 1604 672 1490 753 c 0,32,33
 1410 810 1410 810 1307 810 c 0,34,35
 1232 810 1232 810 1162 790 c 1,36,37
 1212 687 1212 687 1212 562 c 0,38,39
 1212 352 1212 352 1260 92 c 1,40,41
 1064 75 1064 75 868 0 c 1,42,-1
 858 6 l 1,43,44
 896 339 896 339 896 484 c 0,45,46
 896 673 896 673 782 753 c 0,47,48
 675 828 675 828 514 839 c 1,49,50
 504 725 504 725 504 627 c 0,51,52
 504 352 504 352 552 92 c 1,53,54
 356 75 356 75 160 0 c 1,0,-1
EndSplineSet
Validated: 1
EndChar

StartChar: n
Encoding: 110 110 63
Width: 1360
GlyphClass: 2
Flags: W
HStem: 0 21G<150 258 858 966> 839 291<556.312 705.967>
VStem: 188 316<108.265 835.441> 896 316<108.201 677.672>
LayerCount: 2
Fore
SplineSet
160 0 m 1,0,-1
 150 6 l 1,1,2
 188 339 188 339 188 565 c 0,3,4
 188 799 188 799 150 1038 c 1,5,6
 346 1055 346 1055 542 1130 c 1,7,-1
 552 1124 l 1,8,-1
 545 1080 l 1,9,10
 605 1109 605 1109 672 1130 c 1,11,-1
 682 1130 l 1,12,13
 896 1071 896 1071 1023 964 c 0,14,15
 1212 804 1212 804 1212 562 c 0,16,17
 1212 352 1212 352 1260 92 c 1,18,19
 1064 75 1064 75 868 0 c 1,20,-1
 858 6 l 1,21,22
 896 339 896 339 896 484 c 0,23,24
 896 673 896 673 782 753 c 0,25,26
 675 828 675 828 514 839 c 1,27,28
 504 725 504 725 504 627 c 0,29,30
 504 352 504 352 552 92 c 1,31,32
 356 75 356 75 160 0 c 1,0,-1
EndSplineSet
Validated: 1
EndChar

StartChar: o
Encoding: 111 111 64
Width: 1229
GlyphClass: 2
Flags: W
HStem: 0 291<608.95 748.758> 839 291<476.412 625.41>
VStem: 100 289<486.981 774.402> 845 284<353.137 642.761>
LayerCount: 2
Fore
SplineSet
431 839 m 1,0,1
 389 732 389 732 389 646 c 0,2,3
 389 485 389 485 535 377 c 0,4,5
 636 302 636 302 803 291 c 1,6,7
 845 398 845 398 845 484 c 0,8,9
 845 642 845 642 699 753 c 0,10,11
 603 826 603 826 431 839 c 1,0,1
639 0 m 9,12,-1
 629 0 l 17,13,14
 413 59 413 59 288 166 c 0,15,16
 100 327 100 327 100 569 c 0,17,18
 100 765 100 765 239 914 c 24,19,20
 379 1065 379 1065 589 1130 c 9,21,-1
 599 1130 l 17,22,23
 813 1071 813 1071 940 964 c 24,24,25
 1129 804 1129 804 1129 562 c 0,26,27
 1129 361 1129 361 989 216 c 0,28,29
 842 63 842 63 639 0 c 9,12,-1
EndSplineSet
Validated: 1
EndChar

StartChar: p
Encoding: 112 112 65
Width: 1330
GlyphClass: 2
Flags: W
HStem: -380 21G<150 258> 0 291<702.183 853.184> 839 291<576.549 721.05>
VStem: 150 402<-292.413 140.326> 195 317<448.171 834.031> 941 289<355.598 643.019>
LayerCount: 2
Fore
SplineSet
741 0 m 1,0,-1
 731 0 l 1,1,2
 592 48 592 48 520 146 c 1,3,4
 530 -35 530 -35 552 -288 c 1,5,6
 356 -305 356 -305 160 -380 c 1,7,-1
 150 -374 l 1,8,9
 194 -24 194 -24 195 348 c 0,10,11
 195 701 195 701 153 1038 c 1,12,13
 349 1055 349 1055 545 1130 c 1,14,-1
 555 1124 l 1,15,-1
 549 1071 l 1,16,17
 616 1107 616 1107 691 1130 c 1,18,-1
 701 1130 l 1,19,20
 917 1071 917 1071 1042 964 c 0,21,22
 1230 803 1230 803 1230 561 c 0,23,24
 1230 365 1230 365 1091 216 c 0,25,26
 950 65 950 65 741 0 c 1,0,-1
899 291 m 1,27,28
 941 398 941 398 941 484 c 0,29,30
 941 645 941 645 795 753 c 0,31,32
 694 828 694 828 527 839 c 1,33,34
 515 680 515 680 512 518 c 1,35,36
 548 440 548 440 631 377 c 0,37,38
 727 304 727 304 899 291 c 1,27,28
EndSplineSet
Validated: 1
EndChar

StartChar: q
Encoding: 113 113 66
Width: 1320
GlyphClass: 2
Flags: W
HStem: -380 21G<768 876> 0 21G<523 685.5> 839 291<480.646 620.05>
VStem: 100 284<487.983 776.863> 809 320<-254.767 73 287 676.938>
LayerCount: 2
Fore
SplineSet
640 0 m 1,0,-1
 630 0 l 1,1,2
 416 59 416 59 289 166 c 0,3,4
 100 326 100 326 100 568 c 0,5,6
 100 769 100 769 240 914 c 0,7,8
 388 1067 388 1067 590 1130 c 1,9,-1
 600 1130 l 1,10,11
 816 1071 816 1071 941 964 c 0,12,13
 1129 803 1129 803 1129 561 c 9,14,-1
 1129 400 l 17,15,16
 1129 67 1129 67 1170 -288 c 1,17,18
 974 -305 974 -305 778 -380 c 1,19,-1
 768 -374 l 1,20,21
 799 -142 799 -142 809 73 c 1,22,23
 731 28 731 28 640 0 c 1,0,-1
815 287 m 1,24,25
 813 360 813 360 813 484 c 0,26,27
 813 665 813 665 694 753 c 0,28,29
 593 828 593 828 426 839 c 1,30,31
 384 732 384 732 384 646 c 0,32,33
 384 491 384 491 530 377 c 0,34,35
 616 310 616 310 815 287 c 1,24,25
EndSplineSet
Validated: 1
EndChar

StartChar: r
Encoding: 114 114 67
Width: 1208
GlyphClass: 2
Flags: W
HStem: 0 21G<150 258> 839 291<556.312 706.849>
VStem: 188 316<108.265 835.441>
LayerCount: 2
Fore
SplineSet
160 0 m 1,0,-1
 150 6 l 1,1,2
 188 339 188 339 188 565 c 0,3,4
 188 799 188 799 150 1038 c 1,5,6
 346 1055 346 1055 542 1130 c 1,7,-1
 552 1124 l 1,8,-1
 545 1080 l 1,9,10
 605 1109 605 1109 672 1130 c 1,11,-1
 682 1130 l 1,12,13
 896 1071 896 1071 1023 964 c 0,14,15
 1145 861 1145 861 1188 723 c 9,16,-1
 879 614 l 17,17,18
 852 703 852 703 782 753 c 0,19,20
 677 828 677 828 514 839 c 1,21,22
 504 725 504 725 504 627 c 0,23,24
 504 352 504 352 552 92 c 1,25,26
 356 75 356 75 160 0 c 1,0,-1
EndSplineSet
Validated: 1
EndChar

StartChar: s
Encoding: 115 115 68
Width: 1144
GlyphClass: 2
Flags: W
HStem: 0 21G<472.5 699.5> 1110 20G<422 666>
VStem: 116 326<757.495 904.616> 724 320<267.821 438.949>
DStem2: 529 733 386 520 0.973988 -0.226601<-78.3932 252.658>
LayerCount: 2
Fore
SplineSet
589 0 m 1,0,-1
 579 0 l 1,1,2
 366 57 366 57 238 166 c 0,3,4
 148 243 148 243 100 341 c 1,5,-1
 382 447 l 1,6,7
 423 379 423 379 485 337 c 0,8,9
 593 263 593 263 713 251 c 1,10,11
 724 276 724 276 724 328 c 0,12,13
 724 441 724 441 631 463 c 2,14,-1
 386 520 l 2,15,16
 116 583 116 583 116 769 c 0,17,18
 116 855 116 855 169 914 c 0,19,20
 305 1065 305 1065 539 1130 c 1,21,-1
 549 1130 l 1,22,23
 783 1073 783 1073 910 964 c 0,24,25
 945 934 945 934 971 905 c 9,26,-1
 715 763 l 17,27,28
 703 779 703 779 682 797 c 0,29,30
 582 885 582 885 442 922 c 1,31,32
 442 752 442 752 529 733 c 2,33,-1
 770 680 l 2,34,35
 1044 620 1044 620 1044 419 c 0,36,37
 1044 306 1044 306 959 216 c 0,38,39
 810 59 810 59 589 0 c 1,0,-1
EndSplineSet
Validated: 1
EndChar

StartChar: t
Encoding: 116 116 69
Width: 929
GlyphClass: 2
Flags: W
HStem: 0 21G<262 370> 1110 20G<62 129.5 844.5 919> 1490 20G<559 667>
VStem: 262 402<87.5874 718.564 1099.97 1421.7> 306 316<134.188 838>
LayerCount: 2
Fore
SplineSet
272 0 m 1,0,-1
 262 6 l 1,1,2
 306 364 306 364 306 730 c 0,3,4
 306 785 306 785 305 841 c 1,5,6
 161 831 161 831 16 803 c 1,7,-1
 10 813 l 1,8,9
 49 940 49 940 75 1130 c 1,10,11
 184 1106 184 1106 294 1095 c 1,12,13
 284 1254 284 1254 265 1418 c 1,14,15
 461 1435 461 1435 657 1510 c 1,16,-1
 667 1504 l 1,17,18
 642 1302 642 1302 631 1092 c 1,19,20
 776 1102 776 1102 913 1130 c 1,21,-1
 919 1120 l 1,22,23
 880 993 880 993 854 803 c 1,24,25
 738 828 738 828 622 838 c 1,26,27
 622 810 622 810 622 782 c 0,28,29
 622 429 622 429 664 92 c 1,30,31
 468 75 468 75 272 0 c 1,0,-1
EndSplineSet
Validated: 1
EndChar

StartChar: u
Encoding: 117 117 70
Width: 1360
GlyphClass: 2
Flags: W
HStem: 0 21G<571 721.5 808 916> 1110 20G<394 502 1102 1210>
VStem: 148 316<452.328 1021.8> 856 316<294.559 1021.74>
LayerCount: 2
Fore
SplineSet
688 0 m 1,0,-1
 678 0 l 1,1,2
 464 59 464 59 337 166 c 0,3,4
 148 326 148 326 148 568 c 0,5,6
 148 778 148 778 100 1038 c 1,7,8
 296 1055 296 1055 492 1130 c 1,9,-1
 502 1124 l 1,10,11
 464 791 464 791 464 646 c 0,12,13
 464 457 464 457 578 377 c 0,14,15
 685 302 685 302 846 291 c 1,16,17
 856 405 856 405 856 503 c 0,18,19
 856 778 856 778 808 1038 c 1,20,21
 1004 1055 1004 1055 1200 1130 c 1,22,-1
 1210 1124 l 1,23,24
 1172 791 1172 791 1172 565 c 0,25,26
 1172 331 1172 331 1210 92 c 1,27,28
 1014 75 1014 75 818 0 c 1,29,-1
 808 6 l 1,30,-1
 815 50 l 1,31,32
 755 21 755 21 688 0 c 1,0,-1
EndSplineSet
Validated: 1
EndChar

StartChar: v
Encoding: 118 118 71
Width: 1183
GlyphClass: 2
Flags: W
HStem: 0 21G<393 501> 1110 20G<299 407 1082 1178>
LayerCount: 2
Fore
SplineSet
403 0 m 1,0,-1
 393 6 l 1,1,2
 278 560 278 560 5 1038 c 1,3,4
 201 1055 201 1055 397 1130 c 1,5,-1
 407 1124 l 1,6,7
 448 698 448 698 615 419 c 1,8,9
 785 702 785 702 816 1042 c 1,10,11
 996 1064 996 1064 1168 1130 c 1,12,-1
 1178 1124 l 1,13,14
 877 632 877 632 795 92 c 1,15,16
 599 75 599 75 403 0 c 1,0,-1
EndSplineSet
Validated: 1
EndChar

StartChar: w
Encoding: 119 119 72
Width: 2068
GlyphClass: 2
Flags: W
HStem: 0 320<600.809 802.792> 1110 20G<394 502 1102 1210 1810 1918>
VStem: 148 316<452.797 1021.8> 856 316<452.328 1021.8> 1564 316<294.559 1021.74>
CounterMasks: 1 38
LayerCount: 2
Fore
SplineSet
688 0 m 1,0,-1
 678 0 l 1,1,2
 464 59 464 59 337 166 c 0,3,4
 148 326 148 326 148 568 c 0,5,6
 148 778 148 778 100 1038 c 1,7,8
 296 1055 296 1055 492 1130 c 1,9,-1
 502 1124 l 1,10,11
 464 791 464 791 464 646 c 0,12,13
 464 458 464 458 578 377 c 0,14,15
 658 320 658 320 761 320 c 0,16,17
 836 320 836 320 906 340 c 1,18,19
 856 443 856 443 856 568 c 0,20,21
 856 778 856 778 808 1038 c 1,22,23
 1004 1055 1004 1055 1200 1130 c 1,24,-1
 1210 1124 l 1,25,26
 1172 791 1172 791 1172 646 c 0,27,28
 1172 457 1172 457 1286 377 c 0,29,30
 1393 302 1393 302 1554 291 c 1,31,32
 1564 405 1564 405 1564 503 c 0,33,34
 1564 778 1564 778 1516 1038 c 1,35,36
 1712 1055 1712 1055 1908 1130 c 1,37,-1
 1918 1124 l 1,38,39
 1880 791 1880 791 1880 565 c 0,40,41
 1880 331 1880 331 1918 92 c 1,42,43
 1722 75 1722 75 1526 0 c 1,44,-1
 1516 6 l 1,45,-1
 1523 50 l 1,46,47
 1463 21 1463 21 1396 0 c 1,48,-1
 1386 0 l 1,49,50
 1167 60 1167 60 1045 166 c 0,51,52
 1030 179 1030 179 1015 193 c 1,53,54
 881 60 881 60 688 0 c 1,0,-1
EndSplineSet
Validated: 1
EndChar

StartChar: x
Encoding: 120 120 73
Width: 1178
GlyphClass: 2
Flags: W
HStem: 0 21G<275.5 372 766 874> 1110 20G<304 412 806 902>
LayerCount: 2
Fore
SplineSet
362 0 m 1,0,1
 189 68 189 68 10 88 c 1,2,3
 258 315 258 315 423 534 c 1,4,5
 245 794 245 794 10 1038 c 1,6,7
 206 1055 206 1055 402 1130 c 1,8,-1
 412 1124 l 1,9,10
 499 928 499 928 614 766 c 1,11,12
 734 924 734 924 806 1124 c 1,13,-1
 816 1130 l 1,14,15
 988 1064 988 1064 1168 1042 c 1,16,17
 905 804 905 804 745 605 c 1,18,19
 934 339 934 339 1168 92 c 1,20,21
 972 75 972 75 776 0 c 1,22,-1
 766 6 l 1,23,24
 653 238 653 238 550 378 c 1,25,26
 445 222 445 222 372 6 c 1,27,-1
 362 0 l 1,0,1
EndSplineSet
Validated: 1
EndChar

StartChar: y
Encoding: 121 121 74
Width: 1360
GlyphClass: 2
Flags: W
HStem: -380 21G<805 913> 0 21G<571 729.5> 1110 20G<394 502 1102 1210>
VStem: 148 316<452.797 1021.8> 805 402<-292.413 58.0022 411.436 1041.7> 850 316<-254.767 65 290 995.812>
LayerCount: 2
Fore
SplineSet
688 0 m 1,0,-1
 678 0 l 1,1,2
 464 59 464 59 337 166 c 0,3,4
 148 326 148 326 148 568 c 0,5,6
 148 778 148 778 100 1038 c 1,7,8
 296 1055 296 1055 492 1130 c 1,9,-1
 502 1124 l 1,10,11
 464 791 464 791 464 646 c 0,12,13
 464 458 464 458 578 377 c 0,14,15
 685 302 685 302 846 291 c 1,16,-1
 850 290 l 1,17,18
 850 319 850 319 850 348 c 0,19,20
 850 701 850 701 808 1038 c 1,21,22
 1004 1055 1004 1055 1200 1130 c 1,23,-1
 1210 1124 l 1,24,25
 1166 766 1166 766 1166 400 c 0,26,27
 1166 67 1166 67 1207 -288 c 1,28,29
 1011 -305 1011 -305 815 -380 c 1,30,-1
 805 -374 l 1,31,32
 832 -159 832 -159 843 65 c 1,33,34
 771 26 771 26 688 0 c 1,0,-1
EndSplineSet
Validated: 1
EndChar

StartChar: z
Encoding: 122 122 75
Width: 1160
GlyphClass: 2
Flags: W
HStem: 0 21G<50 206.5 894.5 1036> 44 242<657 908.205> 844 241<306.976 600> 1110 20G<193 313.5 975.5 1108>
LayerCount: 2
Fore
SplineSet
60 0 m 1,0,-1
 50 6 l 1,1,2
 435 478 435 478 600 844 c 1,3,4
 355 844 355 844 125 728 c 1,5,-1
 119 738 l 1,6,7
 175 870 175 870 211 1130 c 1,8,9
 416 1085 416 1085 662 1085 c 0,10,11
 853 1085 853 1085 1098 1130 c 1,12,-1
 1108 1124 l 1,13,14
 714 546 714 546 657 286 c 1,15,16
 836 286 836 286 1104 402 c 1,17,-1
 1110 392 l 1,18,19
 1054 260 1054 260 1018 0 c 1,20,21
 771 44 771 44 573 44 c 0,22,23
 353 44 353 44 60 0 c 1,0,-1
EndSplineSet
Validated: 1
EndChar

StartChar: braceleft
Encoding: 123 123 76
Width: 1212
GlyphClass: 2
Flags: W
VStem: 352 219<570.323 648 910 1247.15>
LayerCount: 2
Fore
SplineSet
817 -345 m 1,0,-1
 810 -345 l 1,1,2
 593 -191 593 -191 488 34 c 0,3,4
 370 287 370 287 352 648 c 1,5,6
 207 635 207 635 56 606 c 1,7,-1
 50 616 l 1,8,9
 108 767 108 767 132 948 c 1,10,11
 243 924 243 924 352 910 c 1,12,13
 371 1282 371 1282 496 1555 c 0,14,15
 613 1812 613 1812 775 1927 c 1,16,-1
 782 1927 l 1,17,18
 1010 1806 1010 1806 1109 1599 c 1,19,-1
 900 1304 l 1,20,21
 815 1476 815 1476 678 1572 c 1,22,23
 571 1361 571 1361 571 946 c 0,24,25
 571 602 571 602 698 332 c 0,26,27
 779 160 779 160 895 95 c 1,28,29
 895 170 895 170 877 228 c 0,30,31
 856 297 856 297 818 366 c 1,32,-1
 1162 172 l 1,33,34
 1124 74 1124 74 1097 25 c 0,35,36
 939 -260 939 -260 817 -345 c 1,0,-1
EndSplineSet
Validated: 1
EndChar

StartChar: bar
Encoding: 124 124 77
Width: 768
GlyphClass: 2
Flags: W
VStem: 200 362<-68.1875 545.347 964.653 1576.51> 246 276<165.514 1344.49>
LayerCount: 2
Fore
SplineSet
210 -150 m 1,0,-1
 200 -144 l 1,1,2
 246 271 246 271 246 730 c 0,3,4
 246 1174 246 1174 206 1572 c 1,5,6
 386 1594 386 1594 558 1660 c 1,7,-1
 568 1654 l 1,8,9
 522 1239 522 1239 522 780 c 0,10,11
 522 336 522 336 562 -62 c 1,12,13
 382 -84 382 -84 210 -150 c 1,0,-1
EndSplineSet
Validated: 1
EndChar

StartChar: braceright
Encoding: 125 125 78
Width: 1212
GlyphClass: 2
Flags: W
VStem: 641 219<334.852 672 934 1011.68>
LayerCount: 2
Fore
SplineSet
437 -345 m 1,0,-1
 430 -345 l 1,1,2
 202 -224 202 -224 103 -17 c 1,3,-1
 312 278 l 1,4,5
 397 106 397 106 534 10 c 1,6,7
 641 221 641 221 641 636 c 0,8,9
 641 980 641 980 514 1250 c 0,10,11
 433 1422 433 1422 317 1487 c 1,12,13
 317 1412 317 1412 335 1354 c 0,14,15
 356 1285 356 1285 394 1216 c 1,16,-1
 50 1410 l 1,17,18
 88 1508 88 1508 115 1557 c 0,19,20
 273 1842 273 1842 395 1927 c 1,21,-1
 402 1927 l 1,22,23
 619 1773 619 1773 724 1548 c 0,24,25
 842 1295 842 1295 860 934 c 1,26,27
 1005 947 1005 947 1156 976 c 1,28,-1
 1162 966 l 1,29,30
 1104 815 1104 815 1080 634 c 1,31,32
 969 658 969 658 860 672 c 1,33,34
 841 300 841 300 716 27 c 0,35,36
 599 -230 599 -230 437 -345 c 1,0,-1
EndSplineSet
Validated: 1
EndChar

StartChar: asciitilde
Encoding: 126 126 79
Width: 1383
GlyphClass: 2
Flags: W
HStem: 538 316<771.479 1036.96> 703 316<346.038 611.521>
LayerCount: 2
Fore
SplineSet
156 538 m 1,0,-1
 150 548 l 1,1,2
 206 680 206 680 242 940 c 1,3,4
 345 1019 345 1019 461 1019 c 0,5,6
 591 1019 591 1019 710 893 c 0,7,8
 747 854 747 854 810 854 c 0,9,10
 1040 854 1040 854 1227 1019 c 1,11,-1
 1233 1009 l 1,12,13
 1177 877 1177 877 1141 617 c 1,14,15
 1038 538 1038 538 922 538 c 0,16,17
 792 538 792 538 673 664 c 0,18,19
 636 703 636 703 573 703 c 0,20,21
 343 703 343 703 156 538 c 1,0,-1
EndSplineSet
Validated: 1
EndChar

StartChar: exclamdown
Encoding: 161 161 81
Width: 742
GlyphClass: 2
Flags: W
HStem: 0 21G<170 278> 1490 20G<464 572>
VStem: 187 367<1137.09 1414.94> 243 256<244.229 934.267>
LayerCount: 2
Fore
SplineSet
562 1510 m 1,0,-1
 572 1504 l 1,1,2
 554 1404 554 1404 554 1318.5 c 128,-1,3
 554 1233 554 1233 572 1134 c 1,4,5
 376 1117 376 1117 180 1042 c 1,6,-1
 170 1048 l 1,7,8
 187 1171 187 1171 187 1245.5 c 128,-1,9
 187 1320 187 1320 170 1418 c 1,10,11
 366 1435 366 1435 562 1510 c 1,0,-1
180 0 m 1,12,-1
 170 6 l 1,13,14
 243 391 243 391 243 642 c 0,15,16
 243 819 243 819 220 938 c 1,17,18
 355 959 355 959 512 1018 c 1,19,-1
 522 1012 l 1,20,21
 499 873 499 873 499 693 c 0,22,23
 499 433 499 433 572 92 c 1,24,25
 376 75 376 75 180 0 c 1,12,-1
EndSplineSet
Validated: 1
EndChar

StartChar: sterling
Encoding: 163 163 82
Width: 1333
GlyphClass: 2
Flags: W
HStem: 0 21G<214 327.5 1063.5 1159> 45 241<601.119 1049.89> 551 243<582 908.719> 1217 293<673.434 824.199>
VStem: 262 316<299.631 535>
LayerCount: 2
Fore
SplineSet
224 0 m 1,0,1
 214 6 l 1,2,3
 262 292 262 292 262 503 c 2,4,-1
 262 535 l 1,5,6
 186 525 186 525 106 509 c 1,7,-1
 100 519 l 1,8,9
 139 646 139 646 165 836 c 1,10,11
 207 827 207 827 249 819 c 1,12,13
 243 869 243 869 236 909 c 1,14,15
 251 1102 251 1102 434 1294 c 0,16,17
 579 1446 579 1446 784 1510 c 1,18,-1
 794 1510 l 1,19,20
 1039 1444 1039 1444 1175 1307 c 1,21,-1
 936 1097 l 1,22,23
 844 1195 844 1195 653 1217 c 1,24,25
 618 1111 618 1111 600 998 c 0,26,27
 587 915 587 915 582 794 c 1,28,29
 786 798 786 798 973 836 c 1,30,-1
 979 826 l 1,31,32
 940 699 940 699 914 509 c 1,33,34
 745 545 745 545 578 551 c 1,35,36
 583 412 583 412 595 296 c 1,37,38
 666 286 666 286 787 286 c 0,39,40
 996 286 996 286 1227 402 c 1,41,-1
 1233 392 l 1,42,43
 1177 260 1177 260 1141 0 c 1,44,45
 986 45 986 45 792 45 c 0,46,47
 431 45 431 45 224 0 c 1,0,1
EndSplineSet
Validated: 1
EndChar

StartChar: currency
Encoding: 164 164 83
Width: 1548
GlyphClass: 2
Flags: W
HStem: 302 320<705.219 937.841> 918 322<622.816 857.079>
VStem: 265 289<726.823 915.612> 1010 284<623.026 810.618>
LayerCount: 2
Fore
SplineSet
596 918 m 1,0,1
 554 860 554 860 554 814 c 0,2,3
 554 725 554 725 700 668 c 0,4,5
 802 628 802 628 968 622 c 1,6,7
 1010 680 1010 680 1010 726 c 0,8,9
 1010 811 1010 811 864 871 c 0,10,11
 768 911 768 911 596 918 c 1,0,1
153 363 m 1,12,-1
 150 375 l 1,13,14
 256 445 256 445 356 527 c 1,15,16
 265 636 265 636 265 774 c 0,17,18
 265 899 265 899 349 1003 c 1,19,20
 254 1078 254 1078 150 1149 c 1,21,-1
 153 1160 l 1,22,23
 301 1226 301 1226 446 1337 c 1,24,25
 502 1249 502 1249 564 1169 c 1,26,27
 651 1213 651 1213 754 1240 c 1,28,-1
 764 1240 l 1,29,30
 889 1211 889 1211 984 1169 c 1,31,32
 1046 1249 1046 1249 1102 1337 c 1,33,34
 1247 1226 1247 1226 1395 1160 c 1,35,-1
 1398 1149 l 1,36,37
 1298 1081 1298 1081 1207 1009 c 1,38,39
 1294 904 1294 904 1294 768 c 0,40,41
 1294 630 1294 630 1197 522 c 1,42,43
 1295 443 1295 443 1398 375 c 1,44,-1
 1395 363 l 1,45,46
 1247 298 1247 298 1102 187 c 1,47,48
 1045 277 1045 277 976 364 c 1,49,50
 896 325 896 325 804 302 c 1,51,-1
 794 302 l 1,52,53
 670 330 670 330 576 371 c 1,54,55
 505 281 505 281 446 187 c 1,56,57
 301 298 301 298 153 363 c 1,12,-1
EndSplineSet
Validated: 1
EndChar

StartChar: yen
Encoding: 165 165 84
Width: 1453
GlyphClass: 2
Flags: W
HStem: 0 21G<542 650> 1490 20G<344 452 1307 1403>
LayerCount: 2
Fore
SplineSet
552 0 m 1,0,-1
 542 6 l 1,1,2
 561 162 561 162 571 298 c 1,3,4
 379 288 379 288 178 249 c 1,5,-1
 172 259 l 1,6,7
 230 410 230 410 254 591 c 1,8,9
 388 562 388 562 518 549 c 1,10,-1
 445 705 l 1,11,12
 314 691 314 691 178 665 c 1,13,-1
 172 675 l 1,14,15
 230 826 230 826 254 1007 c 1,16,-1
 295 998 l 1,17,18
 182 1207 182 1207 50 1418 c 1,19,20
 246 1435 246 1435 442 1510 c 1,21,-1
 452 1504 l 1,22,23
 550 1190 550 1190 655 955 c 1,24,25
 692 954 692 954 728 954 c 0,26,27
 809 954 809 954 889 958 c 1,28,29
 979 1173 979 1173 1041 1422 c 1,30,31
 1221 1444 1221 1444 1393 1510 c 1,32,-1
 1403 1504 l 1,33,34
 1232 1214 1232 1214 1117 980 c 1,35,36
 1197 991 1197 991 1275 1007 c 1,37,-1
 1281 997 l 1,38,39
 1223 846 1223 846 1199 665 c 1,40,41
 1098 688 1098 688 992 701 c 1,42,43
 959 618 959 618 936 545 c 1,44,45
 1110 558 1110 558 1275 591 c 1,46,-1
 1281 581 l 1,47,48
 1223 430 1223 430 1199 249 c 1,49,50
 1065 279 1065 279 923 292 c 1,51,52
 931 192 931 192 944 92 c 1,53,54
 748 75 748 75 552 0 c 1,0,-1
EndSplineSet
Validated: 1
EndChar

StartChar: brokenbar
Encoding: 166 166 85
Width: 768
GlyphClass: 2
Flags: W
VStem: 246 276<-55.9426 615.881 894.057 1565.88>
LayerCount: 2
Fore
SplineSet
210 -150 m 1,0,-1
 200 -144 l 1,1,2
 246 68 246 68 246 255 c 0,3,4
 246 426 246 426 206 622 c 1,5,6
 386 644 386 644 558 710 c 1,7,-1
 568 704 l 1,8,9
 522 486 522 486 522 305 c 0,10,11
 522 132 522 132 562 -62 c 1,12,13
 382 -84 382 -84 210 -150 c 1,0,-1
558 1660 m 1,14,-1
 568 1654 l 1,15,16
 522 1436 522 1436 522 1255 c 0,17,18
 522 1082 522 1082 562 888 c 1,19,20
 382 866 382 866 210 800 c 1,21,-1
 200 806 l 1,22,23
 246 1018 246 1018 246 1205 c 0,24,25
 246 1376 246 1376 206 1572 c 1,26,27
 386 1594 386 1594 558 1660 c 1,14,-1
EndSplineSet
Validated: 1
EndChar

StartChar: section
Encoding: 167 167 86
Width: 1220
GlyphClass: 2
Flags: W
HStem: 0 21G<516 739> 1490 20G<481 704>
VStem: 150 260<611 849.214> 182 266<1174.77 1281.36> 772 266<228.645 335.235> 810 260<660.786 899>
DStem2: 523 697 407 439 0.963993 -0.265929<-121.4 333.306> 555 1143 436 885 0.963993 -0.265929<-108.662 346.044>
LayerCount: 2
Fore
SplineSet
635 0 m 1,0,-1
 625 0 l 1,1,2
 407 60 407 60 284 166 c 0,3,4
 249 196 249 196 223 225 c 9,5,-1
 479 387 l 17,6,7
 494 368 494 368 512 353 c 0,8,9
 619 263 619 263 772 228 c 1,10,11
 772 337 772 337 665 367 c 2,12,-1
 407 439 l 2,13,14
 150 511 150 511 150 711 c 0,15,16
 150 828 150 828 235 914 c 9,17,-1
 421 839 l 17,18,19
 410 814 410 814 410 802 c 0,20,21
 410 728 410 728 523 697 c 2,22,-1
 784 625 l 2,23,24
 1038 555 1038 555 1038 361 c 0,25,26
 1038 272 1038 272 985 216 c 0,27,28
 843 66 843 66 635 0 c 1,0,-1
585 1510 m 1,29,-1
 595 1510 l 1,30,31
 813 1450 813 1450 936 1344 c 0,32,33
 971 1314 971 1314 997 1285 c 9,34,-1
 741 1123 l 17,35,36
 726 1142 726 1142 708 1157 c 0,37,38
 601 1247 601 1247 448 1282 c 1,39,40
 448 1173 448 1173 555 1143 c 2,41,-1
 813 1071 l 2,42,43
 1070 999 1070 999 1070 799 c 0,44,45
 1070 682 1070 682 985 596 c 9,46,-1
 799 671 l 17,47,48
 810 696 810 696 810 708 c 0,49,50
 810 782 810 782 697 813 c 2,51,-1
 436 885 l 2,52,53
 182 955 182 955 182 1149 c 0,54,55
 182 1238 182 1238 235 1294 c 0,56,57
 377 1444 377 1444 585 1510 c 1,29,-1
EndSplineSet
Validated: 1
EndChar

StartChar: dieresis
Encoding: 168 168 87
Width: 962
GlyphClass: 2
Flags: W
HStem: 1138 372
VStem: 150 302<1278.22 1353.39 1357.61 1427.1> 168 267<1226 1415.78> 510 302<1278.22 1353.39 1357.61 1427.1> 528 267<1226 1415.78>
LayerCount: 2
Fore
SplineSet
510 1138 m 1,0,1
 528 1202 528 1202 528 1276 c 0,2,3
 528 1347 528 1347 510 1418 c 1,4,5
 644 1444 644 1444 802 1510 c 1,6,-1
 812 1504 l 1,7,8
 795 1423 795 1423 795 1355.5 c 128,-1,9
 795 1288 795 1288 812 1224 c 1,10,11
 668 1196 668 1196 520 1132 c 1,12,-1
 510 1138 l 1,0,1
150 1138 m 1,13,14
 168 1202 168 1202 168 1276 c 0,15,16
 168 1347 168 1347 150 1418 c 1,17,18
 284 1444 284 1444 442 1510 c 1,19,-1
 452 1504 l 1,20,21
 435 1423 435 1423 435 1355.5 c 128,-1,22
 435 1288 435 1288 452 1224 c 1,23,24
 308 1196 308 1196 160 1132 c 1,25,-1
 150 1138 l 1,13,14
EndSplineSet
Validated: 1
EndChar

StartChar: copyright
Encoding: 169 169 88
Width: 1401
GlyphClass: 2
Flags: W
HStem: 187 73<514.363 878.202> 1254 77<516.855 884.384>
VStem: 150 74<569.815 952.807> 342 225<698.219 926.911> 1176 75<558.376 958.928>
LayerCount: 2
Fore
SplineSet
724 350 m 1,0,-1
 714 350 l 1,1,2
 586 383 586 383 487 465 c 0,3,4
 342 585 342 585 342 757 c 0,5,6
 342 907 342 907 465 1030 c 0,7,8
 542 1107 542 1107 685 1163 c 1,9,-1
 695 1163 l 1,10,11
 820 1130 820 1130 922 1048 c 0,12,13
 943 1031 943 1031 961 1013 c 1,14,-1
 769 861 l 1,15,16
 754 874 754 874 735 886 c 0,17,18
 675 924 675 924 606 936 c 1,19,20
 567 874 567 874 567 803 c 0,21,22
 567 713 567 713 684 633 c 0,23,24
 744 592 744 592 820 579 c 1,25,26
 833 603 833 603 833 629 c 0,27,28
 833 666 833 666 808 708 c 9,29,-1
 1035 608 l 17,30,31
 1004 541 1004 541 944 483 c 8,32,33
 862 404 862 404 724 350 c 1,0,-1
701 1331 m 0,34,35
 941 1331 941 1331 1099 1158 c 1,36,37
 1251 987 1251 987 1251 754 c 0,38,39
 1251 502 1251 502 1090 350 c 1,40,41
 919 187 919 187 699 187 c 0,42,43
 476 187 476 187 311 350 c 0,44,45
 150 509 150 509 150 754 c 0,46,47
 150 1000 150 1000 308 1163 c 1,48,49
 469 1331 469 1331 701 1331 c 0,34,35
699 1254 m 0,50,51
 509 1254 509 1254 367 1113 c 0,52,53
 224 971 224 971 224 754 c 0,54,55
 224 561 224 561 364 406 c 0,56,57
 495 260 495 260 701 260 c 0,58,59
 892 260 892 260 1037 406 c 0,60,61
 1176 546 1176 546 1176 754 c 0,62,63
 1176 975 1176 975 1039 1110 c 0,64,65
 893 1254 893 1254 699 1254 c 0,50,51
EndSplineSet
Validated: 1
EndChar

StartChar: ordfeminine
Encoding: 170 170 89
Width: 1221
GlyphClass: 2
Flags: W
HStem: 438 236<262.625 953.624> 697 223<517.139 716.964> 1490 20G<526.5 666.5>
VStem: 259 225<956.438 1079.37> 761 214<927.692 1170.93>
LayerCount: 2
Fore
SplineSet
593 1510 m 1,0,-1
 603 1510 l 1,1,2
 730 1477 730 1477 830 1395 c 0,3,4
 975 1277 975 1277 975 1103 c 0,5,6
 975 970 975 970 1014 781 c 1,7,8
 864 759 864 759 719 692 c 1,9,-1
 709 698 l 1,10,11
 714 720 714 720 718 742 c 1,12,13
 685 720 685 720 632 697 c 1,14,-1
 622 697 l 1,15,16
 512 713 512 713 404 775 c 0,17,18
 259 859 259 859 259 964 c 0,19,20
 259 1153 259 1153 568 1153 c 1,21,22
 484 1098 484 1098 484 1031 c 128,-1,23
 484 964 484 964 578 932 c 0,24,25
 613 920 613 920 658 920 c 0,26,27
 692 920 692 920 728 926 c 1,28,29
 761 980 761 980 761 1054 c 0,30,31
 761 1160 761 1160 643 1233 c 0,32,33
 528 1304 528 1304 335 1317 c 1,34,35
 460 1461 460 1461 593 1510 c 1,0,-1
156 385 m 1,36,-1
 150 395 l 1,37,38
 208 546 208 546 232 727 c 1,39,40
 422 674 422 674 612 674 c 0,41,42
 824 674 824 674 1065 727 c 1,43,-1
 1071 717 l 1,44,45
 1013 566 1013 566 989 385 c 1,46,47
 788 438 788 438 590 438 c 0,48,49
 368 438 368 438 156 385 c 1,36,-1
EndSplineSet
Validated: 1
EndChar

StartChar: guillemotleft
Encoding: 171 171 90
Width: 1830
GlyphClass: 2
Flags: W
LayerCount: 2
Fore
SplineSet
900 587 m 1,0,1
 975 783 975 783 992 979 c 1,2,3
 1292 1084 1292 1084 1624 1362 c 1,4,-1
 1630 1352 l 1,5,6
 1564 1180 1564 1180 1542 1000 c 1,7,8
 1358 940 1358 940 1252 797 c 1,9,10
 1365 647 1365 647 1624 591 c 1,11,-1
 1630 581 l 1,12,13
 1555 385 1555 385 1538 189 c 1,14,15
 1290 451 1290 451 906 577 c 1,16,-1
 900 587 l 1,0,1
150 587 m 1,17,18
 225 783 225 783 242 979 c 1,19,20
 542 1084 542 1084 874 1362 c 1,21,-1
 880 1352 l 1,22,23
 814 1180 814 1180 792 1000 c 1,24,25
 608 940 608 940 502 797 c 1,26,27
 615 645 615 645 874 591 c 1,28,-1
 880 581 l 1,29,30
 805 385 805 385 788 189 c 1,31,32
 528 453 528 453 156 577 c 1,33,-1
 150 587 l 1,17,18
EndSplineSet
Validated: 1
EndChar

StartChar: logicalnot
Encoding: 172 172 91
Width: 1409
GlyphClass: 2
Flags: W
HStem: 659 236<269.751 916.047>
LayerCount: 2
Fore
SplineSet
156 606 m 1,0,1
 150 616 l 1,2,3
 208 767 208 767 232 948 c 1,4,5
 474 895 474 895 706 895 c 0,6,7
 990 895 990 895 1253 948 c 1,8,-1
 1259 938 l 1,9,10
 1118 603 1118 603 1118 290 c 1,11,12
 938 268 938 268 766 202 c 1,13,-1
 756 208 l 1,14,15
 882 441 882 441 920 648 c 1,16,17
 805 659 805 659 684 659 c 0,18,19
 428 659 428 659 156 606 c 1,0,1
EndSplineSet
Validated: 1
EndChar

StartChar: uni00AD
Encoding: 173 173 92
Width: 1409
GlyphClass: 2
Flags: W
HStem: 659 236<269.751 1140.43>
LayerCount: 2
Fore
SplineSet
156 606 m 1,0,-1
 150 616 l 1,1,2
 208 767 208 767 232 948 c 1,3,4
 474 895 474 895 706 895 c 0,5,6
 990 895 990 895 1253 948 c 1,7,-1
 1259 938 l 1,8,9
 1201 787 1201 787 1177 606 c 1,10,11
 944 659 944 659 684 659 c 0,12,13
 428 659 428 659 156 606 c 1,0,-1
EndSplineSet
Validated: 1
EndChar

StartChar: registered
Encoding: 174 174 93
Width: 1401
GlyphClass: 2
Flags: W
HStem: 187 73<532.65 854.758> 514 131<640.628 710> 921 238<480.407 779.188> 1254 77<517.099 884.384>
VStem: 150 74<575.358 952.561> 424 216<375.159 522 645.003 827.958> 811 238<689.965 884.945> 1176 75<557.926 958.928>
LayerCount: 2
Fore
SplineSet
1066 438 m 1,0,1
 1176 565 1176 565 1176 754 c 0,2,3
 1176 975 1176 975 1039 1110 c 0,4,5
 893 1254 893 1254 699 1254 c 0,6,7
 509 1254 509 1254 367 1113 c 0,8,9
 224 971 224 971 224 754 c 0,10,11
 224 570 224 570 364 406 c 0,12,13
 392 373 392 373 410 359 c 1,14,15
 424 515 424 515 424 595 c 0,16,17
 424 734 424 734 408 831 c 1,18,19
 577 840 577 840 656 883 c 1,20,21
 637 737 637 737 637 659 c 1,22,23
 656 645 656 645 674 645 c 0,24,25
 738 645 738 645 786 713 c 0,26,27
 811 748 811 748 811 798 c 0,28,29
 811 845 811 845 778 882 c 24,30,31
 741 921 741 921 655 921 c 0,32,33
 526 921 526 921 359 806 c 1,34,-1
 412 1097 l 1,35,36
 536 1159 536 1159 662 1159 c 0,37,38
 824 1159 824 1159 940 1067 c 0,39,40
 1049 978 1049 978 1049 850 c 0,41,42
 1049 760 1049 760 1011 680 c 0,43,44
 986 627 986 627 911 577 c 1,45,46
 982 492 982 492 1066 438 c 1,0,1
701 1331 m 0,47,48
 941 1331 941 1331 1099 1158 c 1,49,50
 1251 987 1251 987 1251 754 c 0,51,52
 1251 503 1251 503 1090 350 c 0,53,54
 918 187 918 187 699 187 c 0,55,56
 476 187 476 187 311 350 c 0,57,58
 150 509 150 509 150 754 c 128,-1,59
 150 999 150 999 308 1163 c 0,60,61
 470 1331 470 1331 701 1331 c 0,47,48
999 370 m 1,62,63
 912 356 912 356 841 321 c 1,64,65
 781 443 781 443 710 516 c 1,66,-1
 694 514 l 0,67,68
 660 514 660 514 640 522 c 1,69,70
 643 442 643 442 663 373 c 1,71,72
 540 359 540 359 448 333 c 1,73,74
 595 260 595 260 701 260 c 0,75,76
 818 260 818 260 999 370 c 1,62,63
EndSplineSet
Validated: 1
EndChar

StartChar: macron
Encoding: 175 175 94
Width: 1409
GlyphClass: 2
Flags: W
HStem: 1221 236<269.751 1140.43> 1490 20G<220 353 1121.5 1259>
LayerCount: 2
Fore
SplineSet
156 1168 m 1,0,-1
 150 1178 l 1,1,2
 208 1329 208 1329 232 1510 c 1,3,4
 474 1457 474 1457 706 1457 c 0,5,6
 990 1457 990 1457 1253 1510 c 1,7,-1
 1259 1500 l 1,8,9
 1201 1349 1201 1349 1177 1168 c 1,10,11
 944 1221 944 1221 684 1221 c 0,12,13
 428 1221 428 1221 156 1168 c 1,0,-1
EndSplineSet
Validated: 1
EndChar

StartChar: degree
Encoding: 176 176 95
Width: 1025
GlyphClass: 2
Flags: W
HStem: 1490 20G<421.5 566.5>
VStem: 150 225<1045.22 1273.91> 661 214<930.688 1167.66>
LayerCount: 2
Fore
SplineSet
628 926 m 1,0,1
 661 980 661 980 661 1054 c 0,2,3
 661 1156 661 1156 543 1233 c 0,4,5
 483 1271 483 1271 414 1283 c 1,6,7
 375 1221 375 1221 375 1150 c 0,8,9
 375 1060 375 1060 492 980 c 0,10,11
 552 939 552 939 628 926 c 1,0,1
503 1510 m 1,12,13
 630 1477 630 1477 730 1395 c 0,14,15
 875 1277 875 1277 875 1103 c 0,16,17
 875 948 875 948 752 830 c 24,18,19
 670 751 670 751 532 697 c 1,20,-1
 522 697 l 1,21,22
 394 730 394 730 295 812 c 0,23,24
 150 932 150 932 150 1104 c 0,25,26
 150 1254 150 1254 273 1377 c 0,27,28
 350 1454 350 1454 493 1510 c 1,29,-1
 503 1510 l 1,12,13
EndSplineSet
Validated: 1
EndChar

StartChar: plusminus
Encoding: 177 177 96
Width: 1409
GlyphClass: 2
Flags: W
HStem: 131 236<269.751 1140.43> 1490 20G<790 876>
LayerCount: 2
Fore
SplineSet
156 78 m 1,0,-1
 150 88 l 1,1,2
 208 239 208 239 232 420 c 1,3,4
 474 367 474 367 706 367 c 0,5,6
 990 367 990 367 1253 420 c 1,7,-1
 1259 410 l 1,8,9
 1201 259 1201 259 1177 78 c 1,10,11
 944 131 944 131 684 131 c 0,12,13
 428 131 428 131 156 78 c 1,0,-1
156 784 m 1,14,-1
 150 794 l 1,15,16
 208 945 208 945 232 1126 c 1,17,18
 410 1087 410 1087 582 1077 c 1,19,20
 572 1259 572 1259 534 1428 c 1,21,22
 714 1452 714 1452 866 1510 c 1,23,-1
 876 1504 l 1,24,25
 834 1296 834 1296 825 1075 c 1,26,27
 1045 1084 1045 1084 1253 1126 c 1,28,-1
 1259 1116 l 1,29,30
 1201 965 1201 965 1177 784 c 1,31,32
 1009 822 1009 822 826 833 c 1,33,34
 837 660 837 660 876 482 c 1,35,36
 694 458 694 458 544 400 c 1,37,-1
 534 406 l 1,38,39
 576 626 576 626 585 835 c 1,40,41
 375 827 375 827 156 784 c 1,14,-1
EndSplineSet
Validated: 1
EndChar

StartChar: uni00B2
Encoding: 178 178 97
Width: 991
GlyphClass: 2
Flags: W
HStem: 726 201<442.594 779.772> 1490 20G<413 516.5>
VStem: 162 207<1151.96 1294.95> 532 269<1143.75 1260.08>
LayerCount: 2
Fore
SplineSet
446 1510 m 1,0,-1
 458 1510 l 1,1,2
 575 1476 575 1476 666 1418 c 0,3,4
 801 1332 801 1332 801 1228 c 0,5,6
 801 1084 801 1084 614 1006 c 0,7,-1
 441 939 l 1,8,9
 478 927 478 927 515 927 c 0,10,11
 718 927 718 927 835 984 c 1,12,-1
 841 977 l 1,13,14
 797 862 797 862 784 702 c 1,15,16
 649 726 649 726 476 726 c 0,17,18
 324 726 324 726 159 702 c 1,19,-1
 150 708 l 1,20,21
 150 908 150 908 238 995 c 0,22,23
 300 1055 300 1055 465 1131 c 0,24,25
 532 1162 532 1162 532 1205 c 128,-1,26
 532 1248 532 1248 448 1278 c 0,27,-1
 401 1296 l 1,28,29
 369 1260 369 1260 369 1225 c 0,30,31
 369 1186 369 1186 436 1168 c 1,32,-1
 245 1099 l 1,33,34
 162 1135 162 1135 162 1225 c 0,35,36
 162 1332 162 1332 269 1409 c 0,37,38
 380 1489 380 1489 446 1510 c 1,0,-1
EndSplineSet
Validated: 1
EndChar

StartChar: uni00B3
Encoding: 179 179 98
Width: 1003
GlyphClass: 2
Flags: W
HStem: 1490 20G<408.5 501>
VStem: 184 180<1195.35 1323.63> 504 252<1166.29 1301>
LayerCount: 2
Fore
SplineSet
446 1510 m 1,0,-1
 459 1510 l 1,1,2
 543 1497 543 1497 608 1465 c 0,3,4
 756 1392 756 1392 756 1297 c 0,5,6
 756 1212 756 1212 671 1161 c 1,7,8
 737 1150 737 1150 792 1107 c 0,9,10
 853 1060 853 1060 853 973 c 0,11,12
 853 848 853 848 712 776 c 0,13,14
 595 718 595 718 483 704 c 1,15,-1
 469 704 l 1,16,17
 352 721 352 721 270 779 c 0,18,19
 197 830 197 830 150 914 c 1,20,-1
 346 1028 l 1,21,22
 367 990 367 990 427 955 c 0,23,24
 490 917 490 917 568 907 c 1,25,26
 582 934 582 934 581 955 c 0,27,28
 581 999 581 999 517 1017 c 1,29,-1
 336 1068 l 1,30,31
 504 1136 504 1136 504 1231 c 0,32,33
 504 1296 504 1296 433 1311 c 2,34,-1
 368 1325 l 1,35,36
 364 1298 364 1298 364 1276 c 0,37,38
 364 1228 364 1228 455 1218 c 1,39,-1
 260 1139 l 1,40,41
 184 1163 184 1163 184 1254 c 0,42,43
 184 1360 184 1360 288 1434 c 0,44,45
 371 1493 371 1493 446 1510 c 1,0,-1
EndSplineSet
Validated: 1
EndChar

StartChar: acute
Encoding: 180 180 99
Width: 1024
GlyphClass: 2
Flags: W
HStem: 958 552
LayerCount: 2
Fore
SplineSet
478 1510 m 1,0,1
 674 1435 674 1435 870 1418 c 1,2,-1
 874 1408 l 1,3,4
 592 1208 592 1208 458 958 c 1,5,-1
 448 952 l 1,6,7
 291 1011 291 1011 156 1032 c 1,8,-1
 150 1042 l 1,9,10
 372 1248 372 1248 468 1504 c 1,11,-1
 478 1510 l 1,0,1
EndSplineSet
Validated: 1
EndChar

StartChar: periodcentered
Encoding: 183 183 100
Width: 702
GlyphClass: 2
Flags: W
HStem: 520 518
VStem: 168 367<615.063 942.903>
LayerCount: 2
Fore
SplineSet
160 520 m 5,0,-1
 150 526 l 5,1,2
 168 626 168 626 168 736.5 c 132,-1,3
 168 847 168 847 150 946 c 5,4,5
 346 963 346 963 542 1038 c 5,6,-1
 552 1032 l 5,7,8
 535 909 535 909 535 809.5 c 132,-1,9
 535 710 535 710 552 612 c 5,10,11
 356 595 356 595 160 520 c 5,0,-1
EndSplineSet
Validated: 1
EndChar

StartChar: cedilla
Encoding: 184 184 101
Width: 795
GlyphClass: 2
Flags: W
HStem: -380 623
VStem: 288 347<-228.785 40.5372>
LayerCount: 2
Fore
SplineSet
134 -380 m 1,0,-1
 124 -374 l 1,1,2
 288 -230 288 -230 288 -56 c 0,3,4
 288 116 288 116 152 233 c 1,5,-1
 152 243 l 1,6,7
 635 166 635 166 635 -103 c 0,8,9
 635 -220 635 -220 526 -288 c 1,10,11
 330 -305 330 -305 134 -380 c 1,0,-1
EndSplineSet
Validated: 1
EndChar

StartChar: uni00B9
Encoding: 185 185 102
Width: 833
GlyphClass: 2
Flags: W
HStem: 1490 20G<533 633>
VStem: 330 266<789.379 1215.15>
LayerCount: 2
Fore
SplineSet
623 1510 m 1,0,-1
 633 1504 l 1,1,2
 596 1335 596 1335 596 1145.5 c 128,-1,3
 596 956 596 956 632 784 c 1,4,5
 461 763 461 763 305 703 c 1,6,-1
 295 709 l 1,7,8
 330 860 330 860 330 1086 c 0,9,10
 330 1158 330 1158 318 1217 c 1,11,12
 263 1154 263 1154 230 1070 c 1,13,14
 169 1165 169 1165 100 1226 c 1,15,16
 203 1305 203 1305 295 1432 c 1,17,18
 443 1443 443 1443 623 1510 c 1,0,-1
EndSplineSet
Validated: 1
EndChar

StartChar: ordmasculine
Encoding: 186 186 103
Width: 1221
GlyphClass: 2
Flags: W
HStem: 438 236<262.625 953.624> 1490 20G<521.5 666.5>
VStem: 250 225<1045.22 1273.91> 761 214<930.688 1167.66>
LayerCount: 2
Fore
SplineSet
156 385 m 1,0,-1
 150 395 l 1,1,2
 208 546 208 546 232 727 c 1,3,4
 422 674 422 674 612 674 c 0,5,6
 824 674 824 674 1065 727 c 1,7,-1
 1071 717 l 1,8,9
 1013 566 1013 566 989 385 c 1,10,11
 788 438 788 438 590 438 c 0,12,13
 368 438 368 438 156 385 c 1,0,-1
728 926 m 1,14,15
 761 980 761 980 761 1054 c 0,16,17
 761 1156 761 1156 643 1233 c 0,18,19
 583 1271 583 1271 514 1283 c 1,20,21
 475 1221 475 1221 475 1150 c 0,22,23
 475 1060 475 1060 592 980 c 0,24,25
 652 939 652 939 728 926 c 1,14,15
603 1510 m 1,26,27
 730 1477 730 1477 830 1395 c 0,28,29
 975 1277 975 1277 975 1103 c 0,30,31
 975 948 975 948 852 830 c 24,32,33
 770 751 770 751 632 697 c 1,34,-1
 622 697 l 1,35,36
 494 730 494 730 395 812 c 0,37,38
 250 932 250 932 250 1104 c 0,39,40
 250 1254 250 1254 373 1377 c 0,41,42
 450 1454 450 1454 593 1510 c 1,43,-1
 603 1510 l 1,26,27
EndSplineSet
Validated: 1
EndChar

StartChar: guillemotright
Encoding: 187 187 104
Width: 1830
GlyphClass: 2
Flags: W
LayerCount: 2
Fore
SplineSet
930 964 m 1,0,1
 855 768 855 768 838 572 c 1,2,3
 538 467 538 467 206 189 c 1,4,-1
 200 199 l 1,5,6
 266 371 266 371 288 551 c 1,7,8
 472 611 472 611 578 754 c 1,9,10
 465 904 465 904 206 960 c 1,11,-1
 200 970 l 1,12,13
 275 1166 275 1166 292 1362 c 1,14,15
 540 1100 540 1100 924 974 c 1,16,-1
 930 964 l 1,0,1
1680 964 m 1,17,18
 1605 768 1605 768 1588 572 c 1,19,20
 1288 467 1288 467 956 189 c 1,21,-1
 950 199 l 1,22,23
 1016 371 1016 371 1038 551 c 1,24,25
 1222 611 1222 611 1328 754 c 1,26,27
 1215 906 1215 906 956 960 c 1,28,-1
 950 970 l 1,29,30
 1025 1166 1025 1166 1042 1362 c 1,31,32
 1302 1098 1302 1098 1674 974 c 1,33,-1
 1680 964 l 1,17,18
EndSplineSet
Validated: 1
EndChar

StartChar: onequarter
Encoding: 188 188 105
Width: 1674
GlyphClass: 2
Flags: W
HStem: 0 21G<415 511 1136 1224> 1490 20G<533 633 1029 1125>
VStem: 330 266<789.379 1215.15> 1171 266<314.287 512.153>
LayerCount: 2
Fore
SplineSet
623 1510 m 1,0,-1
 633 1504 l 1,1,2
 596 1335 596 1335 596 1145.5 c 128,-1,3
 596 956 596 956 632 784 c 1,4,5
 461 763 461 763 305 703 c 1,6,-1
 295 709 l 1,7,8
 330 860 330 860 330 1086 c 0,9,10
 330 1158 330 1158 318 1217 c 1,11,12
 263 1154 263 1154 230 1070 c 1,13,14
 169 1165 169 1165 100 1226 c 1,15,16
 203 1305 203 1305 295 1432 c 1,17,18
 443 1443 443 1443 623 1510 c 1,0,-1
501 0 m 1,19,20
 329 66 329 66 149 88 c 1,21,22
 465 448 465 448 680 804 c 0,23,24
 861 1105 861 1105 1029 1504 c 1,25,-1
 1039 1510 l 1,26,27
 1211 1444 1211 1444 1391 1422 c 1,28,29
 1129 1079 1129 1079 920 749 c 0,30,31
 690 385 690 385 511 6 c 1,32,-1
 501 0 l 1,19,20
1146 0 m 1,33,-1
 1136 6 l 1,34,35
 1152 74 1152 74 1160 157 c 1,36,37
 1013 157 1013 157 898 142 c 1,38,39
 837 237 837 237 768 298 c 1,40,41
 972 478 972 478 1136 729 c 1,42,43
 1284 740 1284 740 1464 807 c 1,44,-1
 1474 801 l 1,45,46
 1437 632 1437 632 1437 442.5 c 128,-1,47
 1437 253 1437 253 1473 81 c 1,48,49
 1302 60 1302 60 1146 0 c 1,33,-1
1003 300 m 1,50,51
 1089 305 1089 305 1170 317 c 1,52,53
 1171 349 1171 349 1171 383 c 0,54,55
 1171 455 1171 455 1159 514 c 1,56,57
 1094 432 1094 432 1003 300 c 1,50,51
EndSplineSet
Validated: 1
EndChar

StartChar: onehalf
Encoding: 189 189 106
Width: 1726
GlyphClass: 2
Flags: W
HStem: 0 21G<415 511 885 976.5 1451.5 1525.5> 24 201<1177.59 1514.77> 1490 20G<533 633 1029 1125>
VStem: 330 266<789.379 1215.15> 897 207<449.964 592.946> 1267 269<441.746 558.079>
LayerCount: 2
Fore
SplineSet
1181 808 m 1,0,-1
 1193 808 l 1,1,2
 1310 774 1310 774 1401 716 c 0,3,4
 1536 630 1536 630 1536 526 c 0,5,6
 1536 382 1536 382 1349 304 c 0,7,-1
 1176 237 l 1,8,9
 1213 225 1213 225 1250 225 c 0,10,11
 1453 225 1453 225 1570 282 c 1,12,-1
 1576 275 l 1,13,14
 1532 160 1532 160 1519 0 c 1,15,16
 1384 24 1384 24 1211 24 c 0,17,18
 1059 24 1059 24 894 0 c 1,19,-1
 885 6 l 1,20,21
 885 206 885 206 973 293 c 0,22,23
 1035 353 1035 353 1200 429 c 0,24,25
 1267 460 1267 460 1267 503 c 128,-1,26
 1267 546 1267 546 1183 576 c 0,27,-1
 1136 594 l 1,28,29
 1104 558 1104 558 1104 523 c 0,30,31
 1104 484 1104 484 1171 466 c 1,32,-1
 980 397 l 1,33,34
 897 433 897 433 897 523 c 0,35,36
 897 630 897 630 1004 707 c 0,37,38
 1115 787 1115 787 1181 808 c 1,0,-1
501 0 m 1,39,40
 329 66 329 66 149 88 c 1,41,42
 465 448 465 448 680 804 c 0,43,44
 861 1105 861 1105 1029 1504 c 1,45,-1
 1039 1510 l 1,46,47
 1211 1444 1211 1444 1391 1422 c 1,48,49
 1129 1079 1129 1079 920 749 c 0,50,51
 690 385 690 385 511 6 c 1,52,-1
 501 0 l 1,39,40
623 1510 m 1,53,-1
 633 1504 l 1,54,55
 596 1335 596 1335 596 1145.5 c 128,-1,56
 596 956 596 956 632 784 c 1,57,58
 461 763 461 763 305 703 c 1,59,-1
 295 709 l 1,60,61
 330 860 330 860 330 1086 c 0,62,63
 330 1158 330 1158 318 1217 c 1,64,65
 263 1154 263 1154 230 1070 c 1,66,67
 169 1165 169 1165 100 1226 c 1,68,69
 203 1305 203 1305 295 1432 c 1,70,71
 443 1443 443 1443 623 1510 c 1,53,-1
EndSplineSet
Validated: 1
EndChar

StartChar: threequarters
Encoding: 190 190 107
Width: 1914
GlyphClass: 2
Flags: W
HStem: 0 21G<655 751 1376 1464> 1490 20G<408.5 501 1269 1365>
VStem: 184 180<1195.35 1323.63> 504 252<1166.29 1301> 1411 266<314.287 512.153>
LayerCount: 2
Fore
SplineSet
741 0 m 1,0,1
 569 66 569 66 389 88 c 1,2,3
 705 448 705 448 920 804 c 0,4,5
 1101 1105 1101 1105 1269 1504 c 1,6,-1
 1279 1510 l 1,7,8
 1451 1444 1451 1444 1631 1422 c 1,9,10
 1369 1079 1369 1079 1160 749 c 0,11,12
 930 385 930 385 751 6 c 1,13,-1
 741 0 l 1,0,1
1386 0 m 1,14,-1
 1376 6 l 1,15,16
 1392 74 1392 74 1400 157 c 1,17,18
 1253 157 1253 157 1138 142 c 1,19,20
 1077 237 1077 237 1008 298 c 1,21,22
 1212 478 1212 478 1376 729 c 1,23,24
 1524 740 1524 740 1704 807 c 1,25,-1
 1714 801 l 1,26,27
 1677 632 1677 632 1677 442.5 c 128,-1,28
 1677 253 1677 253 1713 81 c 1,29,30
 1542 60 1542 60 1386 0 c 1,14,-1
1243 300 m 1,31,32
 1329 305 1329 305 1410 317 c 1,33,34
 1411 349 1411 349 1411 383 c 0,35,36
 1411 455 1411 455 1399 514 c 1,37,38
 1334 432 1334 432 1243 300 c 1,31,32
446 1510 m 1,39,-1
 459 1510 l 1,40,41
 543 1497 543 1497 608 1465 c 0,42,43
 756 1392 756 1392 756 1297 c 0,44,45
 756 1212 756 1212 671 1161 c 1,46,47
 737 1150 737 1150 792 1107 c 0,48,49
 853 1060 853 1060 853 973 c 0,50,51
 853 848 853 848 712 776 c 0,52,53
 595 718 595 718 483 704 c 1,54,-1
 469 704 l 1,55,56
 352 721 352 721 270 779 c 0,57,58
 197 830 197 830 150 914 c 1,59,-1
 346 1028 l 1,60,61
 367 990 367 990 427 955 c 0,62,63
 490 917 490 917 568 907 c 1,64,65
 582 934 582 934 581 955 c 0,66,67
 581 999 581 999 517 1017 c 1,68,-1
 336 1068 l 1,69,70
 504 1136 504 1136 504 1231 c 0,71,72
 504 1296 504 1296 433 1311 c 2,73,-1
 368 1325 l 1,74,75
 364 1298 364 1298 364 1276 c 0,76,77
 364 1228 364 1228 455 1218 c 1,78,-1
 260 1139 l 1,79,80
 184 1163 184 1163 184 1254 c 0,81,82
 184 1360 184 1360 288 1434 c 0,83,84
 371 1493 371 1493 446 1510 c 1,39,-1
EndSplineSet
Validated: 1
EndChar

StartChar: questiondown
Encoding: 191 191 108
Width: 1381
VWidth: 0
GlyphClass: 2
Flags: W
HStem: 0 21G<553 842> 1490 20G<784 892>
VStem: 150 348<465.012 638.666> 507 367<1137.09 1414.94> 978 253<341.758 580.5>
LayerCount: 2
Fore
SplineSet
724 0 m 1,0,-1
 714 0 l 1,1,2
 392 111 392 111 260 256 c 0,3,4
 150 377 150 377 150 516 c 0,5,6
 150 790 150 790 453 910 c 0,7,8
 579 960 579 960 586 976 c 1,9,-1
 822 1031 l 1,10,11
 822 795 822 795 572 662 c 24,12,13
 498 621 498 621 498 554 c 0,14,15
 498 503 498 503 555 453 c 0,16,17
 670 352 670 352 952 336 c 1,18,19
 978 377 978 377 978 422 c 0,20,21
 978 531 978 531 750 573 c 1,22,-1
 1074 757 l 1,23,24
 1231 648 1231 648 1231 513 c 0,25,26
 1231 369 1231 369 1119 249 c 0,27,28
 960 80 960 80 724 0 c 1,0,-1
882 1510 m 1,29,-1
 892 1504 l 1,30,31
 874 1404 874 1404 874 1318.5 c 128,-1,32
 874 1233 874 1233 892 1134 c 1,33,34
 696 1117 696 1117 500 1042 c 1,35,-1
 490 1048 l 1,36,37
 507 1171 507 1171 507 1245.5 c 128,-1,38
 507 1320 507 1320 490 1418 c 1,39,40
 686 1435 686 1435 882 1510 c 1,29,-1
EndSplineSet
Validated: 1
EndChar

StartChar: multiply
Encoding: 215 215 109
Width: 1318
GlyphClass: 2
Flags: W
LayerCount: 2
Fore
SplineSet
150 1044 m 1,0,-1
 153 1055 l 1,1,2
 301 1121 301 1121 446 1232 c 1,3,4
 544 1079 544 1079 658 950 c 1,5,6
 780 1086 780 1086 873 1232 c 1,7,8
 1017 1122 1017 1122 1165 1055 c 1,9,-1
 1168 1044 l 1,10,11
 991 927 991 927 829 777 c 1,12,13
 991 627 991 627 1168 510 c 1,14,-1
 1165 499 l 1,15,16
 1017 433 1017 433 872 322 c 1,17,18
 780 468 780 468 658 605 c 1,19,20
 544 475 544 475 446 321 c 1,21,22
 300 433 300 433 153 498 c 1,23,-1
 150 509 l 1,24,25
 335 635 335 635 489 777 c 1,26,27
 335 919 335 919 150 1044 c 1,0,-1
EndSplineSet
Validated: 1
EndChar

StartChar: divide
Encoding: 247 247 110
Width: 1409
GlyphClass: 2
Flags: W
HStem: 659 236<269.751 1140.43>
VStem: 521 367<222.057 499.91 1053.06 1330.91>
LayerCount: 2
Fore
SplineSet
156 606 m 1,0,-1
 150 616 l 1,1,2
 208 767 208 767 232 948 c 1,3,4
 474 895 474 895 706 895 c 0,5,6
 990 895 990 895 1253 948 c 1,7,-1
 1259 938 l 1,8,9
 1201 787 1201 787 1177 606 c 1,10,11
 944 659 944 659 684 659 c 0,12,13
 428 659 428 659 156 606 c 1,0,-1
513 127 m 1,14,-1
 503 133 l 1,15,16
 521 233 521 233 521 318.5 c 128,-1,17
 521 404 521 404 503 503 c 1,18,19
 699 520 699 520 895 595 c 1,20,-1
 905 589 l 1,21,22
 888 466 888 466 888 391.5 c 128,-1,23
 888 317 888 317 905 219 c 1,24,25
 709 202 709 202 513 127 c 1,14,-1
513 958 m 1,26,-1
 503 964 l 1,27,28
 521 1064 521 1064 521 1149.5 c 128,-1,29
 521 1235 521 1235 503 1334 c 1,30,31
 699 1351 699 1351 895 1426 c 1,32,-1
 905 1420 l 1,33,34
 888 1297 888 1297 888 1222.5 c 128,-1,35
 888 1148 888 1148 905 1050 c 1,36,37
 709 1033 709 1033 513 958 c 1,26,-1
EndSplineSet
Validated: 1
EndChar

StartChar: Delta
Encoding: 916 916 111
Width: 1483
GlyphClass: 2
Flags: W
HStem: 0 21G<5 202.5 1260 1478> 47 194<410.075 1006.82> 1490 20G<832 940>
LayerCount: 2
Fore
SplineSet
406 263 m 1,0,1
 536 241 536 241 716 241 c 0,2,3
 873 241 873 241 1014 270 c 1,4,5
 897 723 897 723 718 1091 c 1,6,7
 515 708 515 708 406 263 c 1,0,1
11 0 m 1,8,9
 5 6 l 1,10,11
 367 689 367 689 538 1418 c 1,12,13
 734 1435 734 1435 930 1510 c 1,14,-1
 940 1504 l 1,15,16
 1170 730 1170 730 1478 6 c 1,17,-1
 1472 0 l 1,18,19
 1048 47 1048 47 699 47 c 0,20,21
 394 47 394 47 11 0 c 1,8,9
EndSplineSet
Validated: 1
EndChar

StartChar: Pi
Encoding: 928 928 112
Width: 1524
GlyphClass: 2
Flags: W
HStem: 0 21G<180 288 939 1047> 1219 241<558.939 958.293> 1490 20G<1184.5 1344>
VStem: 224 316<134.539 1204.24> 983 316<134.188 1203.44>
LayerCount: 2
Fore
SplineSet
190 0 m 1,0,1
 180 6 l 1,2,3
 224 364 224 364 224 733 c 0,4,5
 224 1152 224 1152 183 1507 c 1,6,-1
 193 1513 l 1,7,8
 495 1460 495 1460 754 1460 c 0,9,10
 1035 1460 1035 1460 1334 1510 c 1,11,-1
 1344 1504 l 1,12,13
 1300 1154 1300 1154 1299 782 c 0,14,15
 1299 429 1299 429 1341 92 c 1,16,17
 1145 75 1145 75 949 0 c 1,18,-1
 939 6 l 1,19,20
 983 360 983 360 983 730 c 0,21,22
 983 969 983 969 963 1211 c 1,23,24
 864 1219 864 1219 749 1219 c 0,25,26
 650 1219 650 1219 556 1210 c 1,27,28
 540 1026 540 1026 540 782 c 0,29,30
 540 432 540 432 582 92 c 1,31,32
 386 75 386 75 190 0 c 1,0,1
EndSplineSet
Validated: 1
EndChar

StartChar: Sigma
Encoding: 931 931 113
Width: 1420
GlyphClass: 2
Flags: W
HStem: 0 21G<50 220 1085.5 1246> 44 242<684.231 1136.89> 1490 20G<463 571 1176 1264>
LayerCount: 2
Fore
SplineSet
60 0 m 1,0,1
 50 6 l 1,2,3
 483 480 483 480 604 758 c 1,4,5
 468 1034 468 1034 169 1418 c 1,6,7
 365 1435 365 1435 561 1510 c 1,8,-1
 571 1504 l 1,9,10
 696 1452 696 1452 904 1452 c 0,11,12
 1094 1452 1094 1452 1258 1510 c 1,13,-1
 1264 1500 l 1,14,15
 1208 1368 1208 1368 1172 1108 c 1,16,17
 960 1121 960 1121 840 1184 c 0,18,19
 676 1270 676 1270 562 1428 c 1,20,21
 681 1092 681 1092 984 762 c 1,22,23
 795 528 795 528 682 296 c 1,24,25
 753 286 753 286 874 286 c 0,26,27
 1083 286 1083 286 1314 402 c 1,28,-1
 1320 392 l 1,29,30
 1264 260 1264 260 1228 0 c 1,31,32
 943 44 943 44 680 44 c 0,33,34
 380 44 380 44 60 0 c 1,0,1
EndSplineSet
Validated: 1
EndChar

StartChar: Omega
Encoding: 937 937 114
Width: 1594
VWidth: 0
GlyphClass: 2
Flags: W
HStem: 0 21G<55 149 658.5 747 899 968.5 1379.5 1465> 1490 20G<652.5 927>
VStem: 165 313<634.855 1004.76> 1116 313<504.805 877.161>
LayerCount: 2
Fore
SplineSet
61 0 m 1,0,1
 55 10 l 1,2,3
 111 142 111 142 147 402 c 1,4,5
 253 298 253 298 407 260 c 1,6,7
 165 460 165 460 165 753 c 0,8,9
 165 1047 165 1047 372 1261 c 24,10,11
 538 1433 538 1433 767 1510 c 1,12,-1
 777 1510 l 1,13,14
 1077 1408 1077 1408 1231 1254 c 24,15,16
 1429 1056 1429 1056 1429 759 c 0,17,18
 1429 507 1429 507 1275 310 c 1,19,20
 1411 336 1411 336 1533 402 c 1,21,-1
 1539 392 l 1,22,23
 1483 260 1483 260 1447 0 c 1,24,25
 1312 23 1312 23 1177 23 c 0,26,27
 1038 23 1038 23 899 0 c 1,28,-1
 899 239 l 1,29,30
 1116 389 1116 389 1116 646 c 0,31,32
 1116 906 1116 906 936 1057 c 0,33,34
 811 1161 811 1161 539 1174 c 1,35,36
 478 1033 478 1033 478 864 c 0,37,38
 478 543 478 543 747 396 c 1,39,-1
 747 0 l 1,40,41
 570 26 570 26 403.5 26 c 128,-1,42
 237 26 237 26 61 0 c 1,0,1
EndSplineSet
Validated: 1
EndChar

StartChar: mu
Encoding: 956 956 115
Width: 1413
GlyphClass: 2
Flags: W
HStem: -380 21G<150 258> 0 21G<671 774.5 861 969> 1110 20G<447 555 1155 1263>
VStem: 150 402<-292.413 75.1575 650.577 1041.7> 194 323<452.328 1004.77> 909 316<294.559 1021.74>
LayerCount: 2
Fore
SplineSet
741 0 m 1,0,-1
 731 0 l 1,1,2
 611 33 611 33 519 81 c 1,3,4
 529 -106 529 -106 552 -288 c 1,5,6
 356 -305 356 -305 160 -380 c 1,7,-1
 150 -374 l 1,8,9
 194 -16 194 -16 194 350 c 0,10,11
 194 683 194 683 153 1038 c 1,12,13
 349 1055 349 1055 545 1130 c 1,14,-1
 555 1124 l 1,15,16
 517 791 517 791 517 646 c 0,17,18
 517 457 517 457 631 377 c 0,19,20
 738 302 738 302 899 291 c 1,21,22
 909 405 909 405 909 503 c 0,23,24
 909 778 909 778 861 1038 c 1,25,26
 1057 1055 1057 1055 1253 1130 c 1,27,-1
 1263 1124 l 1,28,29
 1225 791 1225 791 1225 565 c 0,30,31
 1225 331 1225 331 1263 92 c 1,32,33
 1067 75 1067 75 871 0 c 1,34,-1
 861 6 l 1,35,-1
 868 50 l 1,36,37
 808 21 808 21 741 0 c 1,0,-1
EndSplineSet
Validated: 1
EndChar

StartChar: pi
Encoding: 960 960 116
Width: 1421
GlyphClass: 2
Flags: W
HStem: 0 21G<150 258 869 977> 838 232<517.984 890.001> 1110 20G<150 299 1111.5 1271>
VStem: 188 316<108.265 814.293> 907 316<108.265 817.508>
LayerCount: 2
Fore
SplineSet
160 0 m 1,0,-1
 150 6 l 1,1,2
 188 339 188 339 188 565 c 0,3,4
 188 885 188 885 150 1124 c 1,5,-1
 160 1130 l 1,6,7
 438 1070 438 1070 700 1070 c 128,-1,8
 962 1070 962 1070 1261 1130 c 1,9,-1
 1271 1124 l 1,10,11
 1223 838 1223 838 1223 627 c 0,12,13
 1223 352 1223 352 1271 92 c 1,14,15
 1075 75 1075 75 879 0 c 1,16,-1
 869 6 l 1,17,18
 907 339 907 339 907 565 c 0,19,20
 907 678 907 678 893 822 c 1,21,22
 797 838 797 838 706 838 c 0,23,24
 609 838 609 838 515 818 c 1,25,26
 504 699 504 699 504 627 c 0,27,28
 504 352 504 352 552 92 c 1,29,30
 356 75 356 75 160 0 c 1,0,-1
EndSplineSet
Validated: 1
EndChar

StartChar: uni2010
Encoding: 8208 8208 117
Width: 1329
GlyphClass: 2
Flags: W
HStem: 659 236<304.294 1025.89>
LayerCount: 2
Fore
SplineSet
191 606 m 1,0,-1
 185 616 l 1,1,2
 243 767 243 767 267 948 c 1,3,4
 509 895 509 895 666 895 c 0,5,6
 875 895 875 895 1138 948 c 1,7,-1
 1144 938 l 1,8,9
 1086 787 1086 787 1062 606 c 1,10,11
 829 659 829 659 644 659 c 0,12,13
 463 659 463 659 191 606 c 1,0,-1
EndSplineSet
Validated: 1
EndChar

StartChar: uni2011
Encoding: 8209 8209 118
Width: 1329
GlyphClass: 2
Flags: W
HStem: 659 236<304.294 1025.89>
LayerCount: 2
Fore
SplineSet
191 606 m 1,0,-1
 185 616 l 1,1,2
 243 767 243 767 267 948 c 1,3,4
 509 895 509 895 666 895 c 0,5,6
 875 895 875 895 1138 948 c 1,7,-1
 1144 938 l 1,8,9
 1086 787 1086 787 1062 606 c 1,10,11
 829 659 829 659 644 659 c 0,12,13
 463 659 463 659 191 606 c 1,0,-1
EndSplineSet
Validated: 1
EndChar

StartChar: figuredash
Encoding: 8210 8210 119
Width: 1409
GlyphClass: 2
Flags: W
HStem: 659 236<269.751 1140.43>
LayerCount: 2
Fore
SplineSet
156 606 m 1,0,-1
 150 616 l 1,1,2
 208 767 208 767 232 948 c 1,3,4
 474 895 474 895 706 895 c 0,5,6
 990 895 990 895 1253 948 c 1,7,-1
 1259 938 l 1,8,9
 1201 787 1201 787 1177 606 c 1,10,11
 944 659 944 659 684 659 c 0,12,13
 428 659 428 659 156 606 c 1,0,-1
EndSplineSet
Validated: 1
EndChar

StartChar: endash
Encoding: 8211 8211 120
Width: 1409
GlyphClass: 2
Flags: W
HStem: 659 236<269.751 1140.43>
LayerCount: 2
Fore
SplineSet
156 606 m 1,0,-1
 150 616 l 1,1,2
 208 767 208 767 232 948 c 1,3,4
 474 895 474 895 706 895 c 0,5,6
 990 895 990 895 1253 948 c 1,7,-1
 1259 938 l 1,8,9
 1201 787 1201 787 1177 606 c 1,10,11
 944 659 944 659 684 659 c 0,12,13
 428 659 428 659 156 606 c 1,0,-1
EndSplineSet
Validated: 1
EndChar

StartChar: emdash
Encoding: 8212 8212 121
Width: 1359
GlyphClass: 2
Flags: W
HStem: 659 236<145.362 1207.15>
LayerCount: 2
Fore
SplineSet
31 606 m 1,0,-1
 25 616 l 1,1,2
 83 767 83 767 107 948 c 1,3,4
 349 895 349 895 681 895 c 0,5,6
 1065 895 1065 895 1328 948 c 1,7,-1
 1334 938 l 1,8,9
 1276 787 1276 787 1252 606 c 1,10,11
 1019 659 1019 659 659 659 c 0,12,13
 303 659 303 659 31 606 c 1,0,-1
EndSplineSet
Validated: 1
EndChar

StartChar: afii00208
Encoding: 8213 8213 122
Width: 1359
GlyphClass: 2
Flags: W
HStem: 659 236<145.362 1207.15>
LayerCount: 2
Fore
SplineSet
31 606 m 1,0,-1
 25 616 l 1,1,2
 83 767 83 767 107 948 c 1,3,4
 349 895 349 895 681 895 c 0,5,6
 1065 895 1065 895 1328 948 c 1,7,-1
 1334 938 l 1,8,9
 1276 787 1276 787 1252 606 c 1,10,11
 1019 659 1019 659 659 659 c 0,12,13
 303 659 303 659 31 606 c 1,0,-1
EndSplineSet
Validated: 1
EndChar

StartChar: underscoredbl
Encoding: 8215 8215 123
Width: 1221
GlyphClass: 2
Flags: W
HStem: -380 146<197.394 594.677 626.292 1023.18> -353 92<219.528 1000.53> -172 146<197.394 594.677 626.292 1023.18> -145 92<219.528 1000.53>
LayerCount: 2
Fore
SplineSet
150 -162 m 1,0,1
 193 -90 193 -90 215 -26 c 1,2,3
 359 -53 359 -53 618 -53 c 0,4,5
 884 -53 884 -53 1065 -26 c 1,6,-1
 1071 -36 l 1,7,8
 1028 -108 1028 -108 1005 -172 c 1,9,10
 863 -145 863 -145 603 -145 c 0,11,12
 336 -145 336 -145 156 -172 c 1,13,-1
 150 -162 l 1,0,1
150 -370 m 1,14,15
 193 -298 193 -298 215 -234 c 1,16,17
 359 -261 359 -261 618 -261 c 0,18,19
 884 -261 884 -261 1065 -234 c 1,20,-1
 1071 -244 l 1,21,22
 1028 -316 1028 -316 1005 -380 c 1,23,24
 863 -353 863 -353 603 -353 c 0,25,26
 336 -353 336 -353 156 -380 c 1,27,-1
 150 -370 l 1,14,15
EndSplineSet
Validated: 1
EndChar

StartChar: quoteleft
Encoding: 8216 8216 124
Width: 804
GlyphClass: 2
Flags: W
HStem: 927 623<235 441>
VStem: 160 355<1081.01 1362.31>
LayerCount: 2
Fore
SplineSet
680 1550 m 1,0,-1
 680 1534 l 1,1,2
 515 1441 515 1441 515 1236 c 0,3,4
 515 1074 515 1074 637 1019 c 1,5,6
 441 1002 441 1002 245 927 c 1,7,-1
 235 933 l 1,8,9
 160 1030 160 1030 160 1184 c 0,10,11
 160 1550 160 1550 680 1550 c 1,0,-1
EndSplineSet
Validated: 1
EndChar

StartChar: quoteright
Encoding: 8217 8217 125
Width: 804
GlyphClass: 2
Flags: W
HStem: 927 623<363 569>
VStem: 289 355<1114.69 1395.99>
LayerCount: 2
Fore
SplineSet
559 1550 m 1,0,-1
 569 1544 l 1,1,2
 644 1447 644 1447 644 1293 c 0,3,4
 644 927 644 927 124 927 c 1,5,-1
 124 943 l 1,6,7
 289 1036 289 1036 289 1241 c 0,8,9
 289 1403 289 1403 167 1458 c 1,10,11
 363 1475 363 1475 559 1550 c 1,0,-1
EndSplineSet
Validated: 1
EndChar

StartChar: quotesinglbase
Encoding: 8218 8218 126
Width: 804
GlyphClass: 2
Flags: W
HStem: -226 623<363 569>
VStem: 289 355<-38.3135 242.99>
LayerCount: 2
Fore
SplineSet
559 397 m 1,0,-1
 569 391 l 1,1,2
 644 294 644 294 644 140 c 0,3,4
 644 -226 644 -226 124 -226 c 1,5,-1
 124 -210 l 1,6,7
 289 -117 289 -117 289 88 c 0,8,9
 289 250 289 250 167 305 c 1,10,11
 363 322 363 322 559 397 c 1,0,-1
EndSplineSet
Validated: 1
EndChar

StartChar: quotereversed
Encoding: 8219 8219 127
Width: 804
GlyphClass: 2
Flags: W
HStem: 927 623<235 441>
VStem: 160 355<1114.69 1395.99>
LayerCount: 2
Fore
SplineSet
245 1550 m 1,0,1
 441 1475 441 1475 637 1458 c 1,2,3
 515 1403 515 1403 515 1241 c 0,4,5
 515 1036 515 1036 680 943 c 1,6,7
 680 927 l 1,8,9
 160 927 160 927 160 1293 c 0,10,11
 160 1447 160 1447 235 1544 c 1,12,-1
 245 1550 l 1,0,1
EndSplineSet
Validated: 1
EndChar

StartChar: quotedblleft
Encoding: 8220 8220 128
Width: 1307
GlyphClass: 2
Flags: W
HStem: 927 623<235 441 738 944>
VStem: 160 355<1081.01 1362.31> 663 355<1081.01 1362.31>
LayerCount: 2
Fore
SplineSet
680 1550 m 1,0,-1
 680 1534 l 1,1,2
 515 1441 515 1441 515 1236 c 0,3,4
 515 1074 515 1074 637 1019 c 1,5,6
 441 1002 441 1002 245 927 c 1,7,-1
 235 933 l 1,8,9
 160 1030 160 1030 160 1184 c 0,10,11
 160 1550 160 1550 680 1550 c 1,0,-1
1183 1550 m 1,12,-1
 1183 1534 l 1,13,14
 1018 1441 1018 1441 1018 1236 c 0,15,16
 1018 1074 1018 1074 1140 1019 c 1,17,18
 944 1002 944 1002 748 927 c 1,19,-1
 738 933 l 1,20,21
 663 1030 663 1030 663 1184 c 0,22,23
 663 1550 663 1550 1183 1550 c 1,12,-1
EndSplineSet
Validated: 1
EndChar

StartChar: quotedblright
Encoding: 8221 8221 129
Width: 1307
GlyphClass: 2
Flags: W
HStem: 927 623<363 569 866 1072>
VStem: 289 355<1114.69 1395.99> 792 355<1114.69 1395.99>
LayerCount: 2
Fore
SplineSet
1062 1550 m 1,0,-1
 1072 1544 l 1,1,2
 1147 1447 1147 1447 1147 1293 c 0,3,4
 1147 927 1147 927 627 927 c 1,5,-1
 627 943 l 1,6,7
 792 1036 792 1036 792 1241 c 0,8,9
 792 1403 792 1403 670 1458 c 1,10,11
 866 1475 866 1475 1062 1550 c 1,0,-1
559 1550 m 1,12,-1
 569 1544 l 1,13,14
 644 1447 644 1447 644 1293 c 0,15,16
 644 927 644 927 124 927 c 1,17,-1
 124 943 l 1,18,19
 289 1036 289 1036 289 1241 c 0,20,21
 289 1403 289 1403 167 1458 c 1,22,23
 363 1475 363 1475 559 1550 c 1,12,-1
EndSplineSet
Validated: 1
EndChar

StartChar: quotedblbase
Encoding: 8222 8222 130
Width: 1307
GlyphClass: 2
Flags: W
HStem: -226 623<363 569 866 1072>
VStem: 289 355<-38.3135 242.99> 792 355<-38.3135 242.99>
LayerCount: 2
Fore
SplineSet
1062 397 m 1,0,-1
 1072 391 l 1,1,2
 1147 294 1147 294 1147 140 c 0,3,4
 1147 -226 1147 -226 627 -226 c 1,5,-1
 627 -210 l 1,6,7
 792 -117 792 -117 792 88 c 0,8,9
 792 250 792 250 670 305 c 1,10,11
 866 322 866 322 1062 397 c 1,0,-1
559 397 m 1,12,-1
 569 391 l 1,13,14
 644 294 644 294 644 140 c 0,15,16
 644 -226 644 -226 124 -226 c 1,17,-1
 124 -210 l 1,18,19
 289 -117 289 -117 289 88 c 0,20,21
 289 250 289 250 167 305 c 1,22,23
 363 322 363 322 559 397 c 1,12,-1
EndSplineSet
Validated: 1
EndChar

StartChar: uni201F
Encoding: 8223 8223 131
Width: 1307
GlyphClass: 2
Flags: W
HStem: 927 623<235 441 738 944>
VStem: 160 355<1114.69 1395.99> 663 355<1114.69 1395.99>
LayerCount: 2
Fore
SplineSet
245 1550 m 1,0,1
 441 1475 441 1475 637 1458 c 1,2,3
 515 1403 515 1403 515 1241 c 0,4,5
 515 1036 515 1036 680 943 c 1,6,7
 680 927 l 1,8,9
 160 927 160 927 160 1293 c 0,10,11
 160 1447 160 1447 235 1544 c 1,12,-1
 245 1550 l 1,0,1
748 1550 m 1,13,14
 944 1475 944 1475 1140 1458 c 1,15,16
 1018 1403 1018 1403 1018 1241 c 0,17,18
 1018 1036 1018 1036 1183 943 c 1,19,-1
 1183 927 l 1,20,21
 663 927 663 927 663 1293 c 0,22,23
 663 1447 663 1447 738 1544 c 1,24,-1
 748 1550 l 1,13,14
EndSplineSet
Validated: 1
EndChar

StartChar: dagger
Encoding: 8224 8224 132
Width: 1409
GlyphClass: 2
Flags: W
HStem: 0 21G<502 610> 1490 20G<799 907>
VStem: 502 402<87.5874 718.564 1130.5 1421.7> 546 316<134.188 876>
LayerCount: 2
Fore
SplineSet
512 0 m 1,0,-1
 502 6 l 1,1,2
 546 364 546 364 546 730 c 0,3,4
 546 804 546 804 544 879 c 1,5,6
 354 869 354 869 156 830 c 1,7,-1
 150 840 l 1,8,9
 208 991 208 991 232 1172 c 1,10,11
 384 1139 384 1139 532 1126 c 1,12,13
 522 1270 522 1270 505 1418 c 1,14,15
 701 1435 701 1435 897 1510 c 1,16,-1
 907 1504 l 1,17,18
 883 1317 883 1317 872 1124 c 1,19,20
 1068 1135 1068 1135 1253 1172 c 1,21,-1
 1259 1162 l 1,22,23
 1201 1011 1201 1011 1177 830 c 1,24,25
 1026 864 1026 864 863 876 c 1,26,27
 862 829 862 829 862 782 c 0,28,29
 862 429 862 429 904 92 c 1,30,31
 708 75 708 75 512 0 c 1,0,-1
EndSplineSet
Validated: 1
EndChar

StartChar: daggerdbl
Encoding: 8225 8225 133
Width: 1409
GlyphClass: 2
Flags: W
HStem: 0 21G<502 610> 1490 20G<799 907>
VStem: 505 402<1130.5 1422.41> 546 316<619 876>
LayerCount: 2
Fore
SplineSet
512 0 m 1,0,-1
 502 6 l 1,1,2
 524 188 524 188 535 373 c 1,3,4
 350 362 350 362 156 324 c 1,5,-1
 150 334 l 1,6,7
 208 485 208 485 232 666 c 1,8,9
 391 631 391 631 545 619 c 1,10,11
 546 675 546 675 546 730 c 0,12,13
 546 804 546 804 544 879 c 1,14,15
 354 869 354 869 156 830 c 1,16,-1
 150 840 l 1,17,18
 208 991 208 991 232 1172 c 1,19,20
 384 1139 384 1139 532 1126 c 1,21,22
 522 1270 522 1270 505 1418 c 1,23,24
 701 1435 701 1435 897 1510 c 1,25,-1
 907 1504 l 1,26,27
 883 1317 883 1317 872 1124 c 1,28,29
 1068 1135 1068 1135 1253 1172 c 1,30,-1
 1259 1162 l 1,31,32
 1201 1011 1201 1011 1177 830 c 1,33,34
 1026 864 1026 864 863 876 c 1,35,36
 862 829 862 829 862 782 c 0,37,38
 862 699 862 699 864 617 c 1,39,40
 1064 628 1064 628 1253 666 c 1,41,-1
 1259 656 l 1,42,43
 1201 505 1201 505 1177 324 c 1,44,45
 1032 357 1032 357 877 369 c 1,46,47
 887 229 887 229 904 92 c 1,48,49
 708 75 708 75 512 0 c 1,0,-1
EndSplineSet
Validated: 1
EndChar

StartChar: bullet
Encoding: 8226 8226 134
Width: 1025
GlyphClass: 2
Flags: W
VStem: 150 725<606.981 947.07>
LayerCount: 2
Fore
SplineSet
493 1185 m 1,0,-1
 503 1185 l 1,1,2
 630 1152 630 1152 730 1070 c 0,3,4
 875 952 875 952 875 778 c 0,5,6
 875 623 875 623 752 505 c 24,7,8
 670 426 670 426 532 372 c 1,9,-1
 522 372 l 1,10,11
 394 405 394 405 295 487 c 0,12,13
 150 607 150 607 150 779 c 0,14,15
 150 929 150 929 273 1052 c 0,16,17
 350 1129 350 1129 493 1185 c 1,0,-1
EndSplineSet
Validated: 1
EndChar

StartChar: uni2023
Encoding: 8227 8227 135
Width: 1048
GlyphClass: 2
Flags: W
LayerCount: 2
Fore
SplineSet
161 280 m 1,0,-1
 150 288 l 1,1,2
 200 525 200 525 200 753 c 0,3,4
 200 980 200 980 150 1218 c 1,5,-1
 161 1225 l 1,6,7
 377 1046 377 1046 553 946 c 0,8,9
 765 825 765 825 948 772 c 1,10,-1
 948 760 l 1,11,12
 797 707 797 707 572 569 c 0,13,14
 422 478 422 478 161 280 c 1,0,-1
EndSplineSet
Validated: 1
EndChar

StartChar: onedotenleader
Encoding: 8228 8228 136
Width: 702
GlyphClass: 2
Flags: W
HStem: 0 518
VStem: 168 367<95.0629 422.903>
LayerCount: 2
Fore
SplineSet
160 0 m 1,0,-1
 150 6 l 1,1,2
 168 106 168 106 168 216.5 c 128,-1,3
 168 327 168 327 150 426 c 1,4,5
 346 443 346 443 542 518 c 1,6,-1
 552 512 l 1,7,8
 535 389 535 389 535 289.5 c 128,-1,9
 535 190 535 190 552 92 c 1,10,11
 356 75 356 75 160 0 c 1,0,-1
EndSplineSet
Validated: 1
EndChar

StartChar: twodotenleader
Encoding: 8229 8229 137
Width: 1234
GlyphClass: 2
Flags: W
HStem: 0 21G<150 258 682 790> 92 426<411.125 552 943.125 1084>
VStem: 168 367<95.0629 422.903> 700 367<95.0629 422.903>
LayerCount: 2
Fore
SplineSet
692 0 m 1,0,-1
 682 6 l 1,1,2
 700 106 700 106 700 216.5 c 128,-1,3
 700 327 700 327 682 426 c 1,4,5
 878 443 878 443 1074 518 c 1,6,-1
 1084 512 l 1,7,8
 1067 389 1067 389 1067 289.5 c 128,-1,9
 1067 190 1067 190 1084 92 c 1,10,11
 888 75 888 75 692 0 c 1,0,-1
160 0 m 1,12,-1
 150 6 l 1,13,14
 168 106 168 106 168 216.5 c 128,-1,15
 168 327 168 327 150 426 c 1,16,17
 346 443 346 443 542 518 c 1,18,-1
 552 512 l 1,19,20
 535 389 535 389 535 289.5 c 128,-1,21
 535 190 535 190 552 92 c 1,22,23
 356 75 356 75 160 0 c 1,12,-1
EndSplineSet
Validated: 1
EndChar

StartChar: ellipsis
Encoding: 8230 8230 138
Width: 1766
GlyphClass: 2
Flags: W
HStem: 0 21G<150 258 682 790 1214 1322> 92 426<411.125 552 943.125 1084 1475.12 1616>
VStem: 168 367<95.0629 422.903> 700 367<95.0629 422.903> 1232 367<95.0629 422.903>
CounterMasks: 1 38
LayerCount: 2
Fore
SplineSet
1224 0 m 1,0,-1
 1214 6 l 1,1,2
 1232 106 1232 106 1232 216.5 c 128,-1,3
 1232 327 1232 327 1214 426 c 1,4,5
 1410 443 1410 443 1606 518 c 1,6,-1
 1616 512 l 1,7,8
 1599 389 1599 389 1599 289.5 c 128,-1,9
 1599 190 1599 190 1616 92 c 1,10,11
 1420 75 1420 75 1224 0 c 1,0,-1
692 0 m 1,12,-1
 682 6 l 1,13,14
 700 106 700 106 700 216.5 c 128,-1,15
 700 327 700 327 682 426 c 1,16,17
 878 443 878 443 1074 518 c 1,18,-1
 1084 512 l 1,19,20
 1067 389 1067 389 1067 289.5 c 128,-1,21
 1067 190 1067 190 1084 92 c 1,22,23
 888 75 888 75 692 0 c 1,12,-1
160 0 m 1,24,-1
 150 6 l 1,25,26
 168 106 168 106 168 216.5 c 128,-1,27
 168 327 168 327 150 426 c 1,28,29
 346 443 346 443 542 518 c 1,30,-1
 552 512 l 1,31,32
 535 389 535 389 535 289.5 c 128,-1,33
 535 190 535 190 552 92 c 1,34,35
 356 75 356 75 160 0 c 1,24,-1
EndSplineSet
Validated: 1
EndChar

StartChar: uni2027
Encoding: 8231 8231 139
Width: 702
GlyphClass: 2
Flags: W
HStem: 520 518
VStem: 168 367<615.063 942.903>
LayerCount: 2
Fore
SplineSet
160 520 m 5,0,-1
 150 526 l 5,1,2
 168 626 168 626 168 736.5 c 132,-1,3
 168 847 168 847 150 946 c 5,4,5
 346 963 346 963 542 1038 c 5,6,-1
 552 1032 l 5,7,8
 535 909 535 909 535 809.5 c 132,-1,9
 535 710 535 710 552 612 c 5,10,11
 356 595 356 595 160 520 c 5,0,-1
EndSplineSet
Validated: 1
EndChar

StartChar: perthousand
Encoding: 8240 8240 140
Width: 2687
GlyphClass: 2
Flags: W
HStem: 0 21G<594 690 1354 1497 2120 2263> 1490 20G<421.5 566.5 1208 1304>
VStem: 150 225<1045.22 1273.91> 661 214<930.688 1167.66> 1046 225<348.219 576.911> 1557 214<233.688 470.655> 1812 225<348.219 576.911> 2323 214<233.688 470.655>
LayerCount: 2
Fore
SplineSet
2076 586 m 1,0,1
 2037 524 2037 524 2037 453 c 0,2,3
 2037 363 2037 363 2154 283 c 0,4,5
 2214 242 2214 242 2290 229 c 1,6,7
 2323 283 2323 283 2323 357 c 0,8,9
 2323 459 2323 459 2205 536 c 0,10,11
 2145 574 2145 574 2076 586 c 1,0,1
2194 0 m 1,12,-1
 2184 0 l 1,13,14
 2056 33 2056 33 1957 115 c 0,15,16
 1812 235 1812 235 1812 407 c 0,17,18
 1812 557 1812 557 1935 680 c 0,19,20
 2012 757 2012 757 2155 813 c 1,21,-1
 2165 813 l 1,22,23
 2292 780 2292 780 2392 698 c 0,24,25
 2537 580 2537 580 2537 406 c 0,26,27
 2537 251 2537 251 2414 133 c 24,28,29
 2332 54 2332 54 2194 0 c 1,12,-1
1310 586 m 1,30,31
 1271 524 1271 524 1271 453 c 0,32,33
 1271 363 1271 363 1388 283 c 0,34,35
 1448 242 1448 242 1524 229 c 1,36,37
 1557 283 1557 283 1557 357 c 0,38,39
 1557 459 1557 459 1439 536 c 0,40,41
 1379 574 1379 574 1310 586 c 1,30,31
1428 0 m 1,42,-1
 1418 0 l 1,43,44
 1290 33 1290 33 1191 115 c 0,45,46
 1046 235 1046 235 1046 407 c 0,47,48
 1046 557 1046 557 1169 680 c 0,49,50
 1246 757 1246 757 1389 813 c 1,51,-1
 1399 813 l 1,52,53
 1526 780 1526 780 1626 698 c 0,54,55
 1771 580 1771 580 1771 406 c 0,56,57
 1771 251 1771 251 1648 133 c 24,58,59
 1566 54 1566 54 1428 0 c 1,42,-1
680 0 m 1,60,61
 508 66 508 66 328 88 c 1,62,63
 644 448 644 448 859 804 c 0,64,65
 1040 1105 1040 1105 1208 1504 c 1,66,-1
 1218 1510 l 1,67,68
 1390 1444 1390 1444 1570 1422 c 1,69,70
 1308 1079 1308 1079 1099 749 c 0,71,72
 869 385 869 385 690 6 c 1,73,-1
 680 0 l 1,60,61
628 926 m 1,74,75
 661 980 661 980 661 1054 c 0,76,77
 661 1156 661 1156 543 1233 c 0,78,79
 483 1271 483 1271 414 1283 c 1,80,81
 375 1221 375 1221 375 1150 c 0,82,83
 375 1060 375 1060 492 980 c 0,84,85
 552 939 552 939 628 926 c 1,74,75
503 1510 m 1,86,87
 630 1477 630 1477 730 1395 c 0,88,89
 875 1277 875 1277 875 1103 c 0,90,91
 875 948 875 948 752 830 c 24,92,93
 670 751 670 751 532 697 c 1,94,-1
 522 697 l 1,95,96
 394 730 394 730 295 812 c 0,97,98
 150 932 150 932 150 1104 c 0,99,100
 150 1254 150 1254 273 1377 c 0,101,102
 350 1454 350 1454 493 1510 c 1,103,-1
 503 1510 l 1,86,87
EndSplineSet
Validated: 1
EndChar

StartChar: minute
Encoding: 8242 8242 141
Width: 1072
GlyphClass: 2
Flags: W
LayerCount: 2
Fore
SplineSet
526 1550 m 1,0,1
 722 1475 722 1475 918 1458 c 1,2,-1
 922 1448 l 1,3,4
 616 1154 616 1154 458 846 c 1,5,-1
 448 840 l 1,6,7
 291 899 291 899 156 920 c 1,8,-1
 150 930 l 1,9,10
 398 1215 398 1215 516 1544 c 1,11,-1
 526 1550 l 1,0,1
EndSplineSet
Validated: 1
EndChar

StartChar: second
Encoding: 8243 8243 142
Width: 1566
GlyphClass: 2
Flags: W
LayerCount: 2
Fore
SplineSet
526 1550 m 1,0,1
 722 1475 722 1475 918 1458 c 1,2,-1
 922 1448 l 1,3,4
 616 1154 616 1154 458 846 c 1,5,-1
 448 840 l 1,6,7
 291 899 291 899 156 920 c 1,8,-1
 150 930 l 1,9,10
 398 1215 398 1215 516 1544 c 1,11,-1
 526 1550 l 1,0,1
1020 1550 m 1,12,13
 1216 1475 1216 1475 1412 1458 c 1,14,-1
 1416 1448 l 1,15,16
 1110 1154 1110 1154 952 846 c 1,17,-1
 942 840 l 1,18,19
 785 899 785 899 650 920 c 1,20,-1
 644 930 l 1,21,22
 892 1215 892 1215 1010 1544 c 1,23,-1
 1020 1550 l 1,12,13
EndSplineSet
Validated: 1
EndChar

StartChar: uni2034
Encoding: 8244 8244 143
Width: 2060
GlyphClass: 2
Flags: W
LayerCount: 2
Fore
SplineSet
526 1550 m 1,0,1
 722 1475 722 1475 918 1458 c 1,2,-1
 922 1448 l 1,3,4
 616 1154 616 1154 458 846 c 1,5,-1
 448 840 l 1,6,7
 291 899 291 899 156 920 c 1,8,-1
 150 930 l 1,9,10
 398 1215 398 1215 516 1544 c 1,11,-1
 526 1550 l 1,0,1
1020 1550 m 1,12,13
 1216 1475 1216 1475 1412 1458 c 1,14,-1
 1416 1448 l 1,15,16
 1110 1154 1110 1154 952 846 c 1,17,-1
 942 840 l 1,18,19
 785 899 785 899 650 920 c 1,20,-1
 644 930 l 1,21,22
 892 1215 892 1215 1010 1544 c 1,23,-1
 1020 1550 l 1,12,13
1514 1550 m 1,24,25
 1710 1475 1710 1475 1906 1458 c 1,26,-1
 1910 1448 l 1,27,28
 1604 1154 1604 1154 1446 846 c 1,29,-1
 1436 840 l 1,30,31
 1279 899 1279 899 1144 920 c 1,32,-1
 1138 930 l 1,33,34
 1386 1215 1386 1215 1504 1544 c 1,35,-1
 1514 1550 l 1,24,25
EndSplineSet
Validated: 1
EndChar

StartChar: uni2035
Encoding: 8245 8245 144
Width: 1072
GlyphClass: 2
Flags: W
LayerCount: 2
Fore
SplineSet
546 1550 m 1,0,-1
 556 1544 l 1,1,2
 674 1215 674 1215 922 930 c 1,3,-1
 916 920 l 1,4,5
 781 899 781 899 624 840 c 1,6,-1
 614 846 l 1,7,8
 456 1154 456 1154 150 1448 c 1,9,-1
 154 1458 l 1,10,11
 350 1475 350 1475 546 1550 c 1,0,-1
EndSplineSet
Validated: 1
EndChar

StartChar: uni2036
Encoding: 8246 8246 145
Width: 1566
GlyphClass: 2
Flags: W
LayerCount: 2
Fore
SplineSet
1040 1550 m 1,0,-1
 1050 1544 l 1,1,2
 1168 1215 1168 1215 1416 930 c 1,3,-1
 1410 920 l 1,4,5
 1275 899 1275 899 1118 840 c 1,6,-1
 1108 846 l 1,7,8
 950 1154 950 1154 644 1448 c 1,9,-1
 648 1458 l 1,10,11
 844 1475 844 1475 1040 1550 c 1,0,-1
546 1550 m 1,12,-1
 556 1544 l 1,13,14
 674 1215 674 1215 922 930 c 1,15,-1
 916 920 l 1,16,17
 781 899 781 899 624 840 c 1,18,-1
 614 846 l 1,19,20
 456 1154 456 1154 150 1448 c 1,21,-1
 154 1458 l 1,22,23
 350 1475 350 1475 546 1550 c 1,12,-1
EndSplineSet
Validated: 1
EndChar

StartChar: uni2037
Encoding: 8247 8247 146
Width: 2060
GlyphClass: 2
Flags: W
LayerCount: 2
Fore
SplineSet
1534 1550 m 1,0,-1
 1544 1544 l 1,1,2
 1662 1215 1662 1215 1910 930 c 1,3,-1
 1904 920 l 1,4,5
 1769 899 1769 899 1612 840 c 1,6,-1
 1602 846 l 1,7,8
 1444 1154 1444 1154 1138 1448 c 1,9,-1
 1142 1458 l 1,10,11
 1338 1475 1338 1475 1534 1550 c 1,0,-1
1040 1550 m 1,12,-1
 1050 1544 l 1,13,14
 1168 1215 1168 1215 1416 930 c 1,15,-1
 1410 920 l 1,16,17
 1275 899 1275 899 1118 840 c 1,18,-1
 1108 846 l 1,19,20
 950 1154 950 1154 644 1448 c 1,21,-1
 648 1458 l 1,22,23
 844 1475 844 1475 1040 1550 c 1,12,-1
546 1550 m 1,24,-1
 556 1544 l 1,25,26
 674 1215 674 1215 922 930 c 1,27,-1
 916 920 l 1,28,29
 781 899 781 899 624 840 c 1,30,-1
 614 846 l 1,31,32
 456 1154 456 1154 150 1448 c 1,33,-1
 154 1458 l 1,34,35
 350 1475 350 1475 546 1550 c 1,24,-1
EndSplineSet
Validated: 1
EndChar

StartChar: guilsinglleft
Encoding: 8249 8249 147
Width: 1080
GlyphClass: 2
Flags: W
LayerCount: 2
Fore
SplineSet
150 587 m 1,0,1
 225 783 225 783 242 979 c 1,2,3
 542 1084 542 1084 874 1362 c 1,4,-1
 880 1352 l 1,5,6
 814 1180 814 1180 792 1000 c 1,7,8
 608 940 608 940 502 797 c 1,9,10
 615 645 615 645 874 591 c 1,11,-1
 880 581 l 1,12,13
 805 385 805 385 788 189 c 1,14,15
 528 453 528 453 156 577 c 1,16,-1
 150 587 l 1,0,1
EndSplineSet
Validated: 1
EndChar

StartChar: guilsinglright
Encoding: 8250 8250 148
Width: 1080
GlyphClass: 2
Flags: W
LayerCount: 2
Fore
SplineSet
930 964 m 1,0,1
 855 768 855 768 838 572 c 1,2,3
 538 467 538 467 206 189 c 1,4,-1
 200 199 l 1,5,6
 266 371 266 371 288 551 c 1,7,8
 472 611 472 611 578 754 c 1,9,10
 465 904 465 904 206 960 c 1,11,-1
 200 970 l 1,12,13
 275 1166 275 1166 292 1362 c 1,14,15
 540 1100 540 1100 924 974 c 1,16,-1
 930 964 l 1,0,1
EndSplineSet
Validated: 1
EndChar

StartChar: uni2043
Encoding: 8259 8259 149
Width: 1421
GlyphClass: 2
Flags: W
LayerCount: 2
Fore
SplineSet
872 1343 m 1,0,-1
 882 1337 l 1,1,2
 850 1178 850 1178 837 1012 c 1,3,4
 943 1088 943 1088 1034 1173 c 1,5,6
 1146 1028 1146 1028 1271 926 c 1,7,-1
 1271 915 l 1,8,9
 1115 862 1115 862 962 788 c 1,10,11
 1109 718 1109 718 1271 662 c 1,12,-1
 1271 651 l 1,13,14
 1146 549 1146 549 1034 404 c 1,15,16
 940 490 940 490 841 563 c 1,17,18
 854 441 854 441 882 316 c 1,19,20
 701 292 701 292 550 234 c 1,21,-1
 540 240 l 1,22,23
 572 406 572 406 585 566 c 1,24,25
 483 492 483 492 387 404 c 1,26,27
 276 549 276 549 150 651 c 1,28,-1
 150 662 l 1,29,30
 312 718 312 718 459 788 c 1,31,32
 306 862 306 862 150 915 c 1,33,-1
 150 926 l 1,34,35
 276 1028 276 1028 387 1173 c 1,36,37
 477 1089 477 1089 580 1015 c 1,38,39
 567 1141 567 1141 540 1261 c 1,40,41
 721 1285 721 1285 872 1343 c 1,0,-1
EndSplineSet
Validated: 1
EndChar

StartChar: fraction
Encoding: 8260 8260 150
Width: 1259
GlyphClass: 2
Flags: W
LayerCount: 2
Fore
SplineSet
362 -150 m 1,0,1
 190 -84 190 -84 10 -62 c 1,2,3
 289 382 289 382 543 868 c 0,4,5
 749 1263 749 1263 887 1654 c 1,6,-1
 897 1660 l 1,7,8
 1069 1594 1069 1594 1249 1572 c 1,9,10
 962 1114 962 1114 716 642 c 0,11,12
 512 250 512 250 372 -144 c 1,13,-1
 362 -150 l 1,0,1
EndSplineSet
Validated: 1
EndChar

StartChar: Euro
Encoding: 8364 8364 151
Width: 1647
VWidth: 0
GlyphClass: 2
Flags: W
HStem: 0 21G<759.5 1040> 775 191<580 957.969> 1490 20G<749 1023>
LayerCount: 2
Fore
SplineSet
923 0 m 1,0,1
 913 0 l 1,2,3
 606 104 606 104 458 255 c 0,4,5
 366 349 366 349 317 463 c 1,6,7
 222 453 222 453 126 434 c 1,8,-1
 120 444 l 1,9,10
 171 571 171 571 185 711 c 1,11,12
 224 702 224 702 263 695 c 1,13,14
 261 723 261 723 261 754 c 1,15,16
 194 745 194 745 126 732 c 1,17,-1
 120 742 l 1,18,19
 171 869 171 869 185 1009 c 1,20,21
 241 996 241 996 298 988 c 1,22,23
 349 1138 349 1138 468 1261 c 0,24,25
 635 1433 635 1433 863 1510 c 1,26,-1
 873 1510 l 1,27,28
 1173 1408 1173 1408 1327 1254 c 0,29,30
 1371 1210 1371 1210 1405 1161 c 1,31,-1
 1087 1004 l 1,32,33
 1062 1032 1062 1032 1032 1057 c 0,34,35
 907 1161 907 1161 635 1174 c 1,36,37
 593 1077 593 1077 580 966 c 1,38,39
 812 966 812 966 1023 1009 c 1,40,-1
 1029 999 l 1,41,42
 978 872 978 872 964 732 c 1,43,44
 771 773 771 773 580 775 c 1,45,46
 587 718 587 718 604 668 c 1,47,48
 823 671 823 671 1023 711 c 1,49,-1
 1029 701 l 1,50,51
 978 574 978 574 964 434 c 1,52,53
 849 458 849 458 736 469 c 1,54,55
 882 362 882 362 1151 336 c 1,56,57
 1168 397 1168 397 1168 460 c 0,58,59
 1168 556 1168 556 1130 654 c 1,60,-1
 1497 554 l 1,61,62
 1449 386 1449 386 1318 248 c 0,63,64
 1157 78 1157 78 923 0 c 1,0,1
EndSplineSet
Validated: 1
EndChar

StartChar: afii61248
Encoding: 8453 8453 152
Width: 1921
GlyphClass: 2
Flags: W
HStem: 0 21G<594 690 1354 1497> 1490 20G<421.5 565.5 1208 1304>
VStem: 150 225<1045.22 1273.91> 1046 225<348.219 576.911> 1557 214<233.688 470.655>
LayerCount: 2
Fore
SplineSet
532 697 m 1,0,-1
 522 697 l 1,1,2
 394 730 394 730 295 812 c 0,3,4
 150 932 150 932 150 1104 c 0,5,6
 150 1254 150 1254 273 1377 c 0,7,8
 350 1454 350 1454 493 1510 c 1,9,-1
 503 1510 l 1,10,11
 628 1477 628 1477 730 1395 c 0,12,13
 751 1378 751 1378 769 1360 c 1,14,-1
 577 1208 l 1,15,16
 562 1221 562 1221 543 1233 c 0,17,18
 483 1271 483 1271 414 1283 c 1,19,20
 375 1221 375 1221 375 1150 c 0,21,22
 375 1060 375 1060 492 980 c 0,23,24
 552 939 552 939 628 926 c 1,25,26
 641 950 641 950 641 976 c 0,27,28
 641 1013 641 1013 616 1055 c 9,29,-1
 843 955 l 17,30,31
 812 888 812 888 752 830 c 8,32,33
 670 751 670 751 532 697 c 1,0,-1
1310 586 m 1,34,35
 1271 524 1271 524 1271 453 c 0,36,37
 1271 363 1271 363 1388 283 c 0,38,39
 1448 242 1448 242 1524 229 c 1,40,41
 1557 283 1557 283 1557 357 c 0,42,43
 1557 459 1557 459 1439 536 c 0,44,45
 1379 574 1379 574 1310 586 c 1,34,35
1428 0 m 1,46,-1
 1418 0 l 1,47,48
 1290 33 1290 33 1191 115 c 0,49,50
 1046 235 1046 235 1046 407 c 0,51,52
 1046 557 1046 557 1169 680 c 0,53,54
 1246 757 1246 757 1389 813 c 1,55,-1
 1399 813 l 1,56,57
 1526 780 1526 780 1626 698 c 0,58,59
 1771 580 1771 580 1771 406 c 0,60,61
 1771 251 1771 251 1648 133 c 24,62,63
 1566 54 1566 54 1428 0 c 1,46,-1
680 0 m 1,64,65
 508 66 508 66 328 88 c 1,66,67
 644 448 644 448 859 804 c 0,68,69
 1040 1105 1040 1105 1208 1504 c 1,70,-1
 1218 1510 l 1,71,72
 1390 1444 1390 1444 1570 1422 c 1,73,74
 1308 1079 1308 1079 1099 749 c 0,75,76
 869 385 869 385 690 6 c 1,77,-1
 680 0 l 1,64,65
EndSplineSet
Validated: 1
EndChar

StartChar: afii61289
Encoding: 8467 8467 153
Width: 1220
GlyphClass: 2
Flags: W
HStem: 0 21G<603.5 711.5> 1490 20G<748.5 931.5>
LayerCount: 2
Fore
SplineSet
657 0 m 0,0,1
 550 0 550 0 471 57 c 1,2,-1
 447 20 l 1,3,-1
 50 20 l 1,4,5
 196 191 196 191 318 368 c 1,6,7
 312 432 312 432 312 493 c 0,8,9
 312 600 312 600 388 902 c 0,10,11
 470 1224 470 1224 566 1360 c 0,12,13
 672 1510 672 1510 825 1510 c 0,14,15
 1038 1510 1038 1510 1038 1243 c 0,16,17
 1038 1117 1038 1117 990 952 c 0,18,19
 890 606 890 606 657 323 c 1,20,21
 664 299 664 299 671 283 c 1,22,-1
 731 362 l 1,23,-1
 1070 362 l 1,24,25
 971 169 971 169 851 70 c 0,26,27
 766 0 766 0 657 0 c 0,0,1
EndSplineSet
Validated: 1
EndChar

StartChar: trademark
Encoding: 8482 8482 154
Width: 2028
GlyphClass: 2
Flags: W
HStem: 1490 20G<141 224 729.5 831 1122.5 1197 1704 1768>
VStem: 351 223<797.842 1310.73> 824 190<776.218 928.289>
LayerCount: 2
Fore
SplineSet
326 729 m 1,0,-1
 316 735 l 1,1,2
 351 898 351 898 351 1072 c 0,3,4
 351 1178 351 1178 337 1315 c 1,5,6
 230 1306 230 1306 110 1237 c 1,7,-1
 100 1243 l 1,8,9
 127 1321 127 1321 155 1510 c 1,10,11
 293 1484 293 1484 465.5 1484 c 128,-1,12
 638 1484 638 1484 821 1510 c 1,13,-1
 831 1504 l 1,14,15
 804 1426 804 1426 776 1237 c 1,16,17
 688 1292 688 1292 590 1315 c 1,18,19
 574 1201 574 1201 574 1094 c 0,20,21
 574 948 574 948 598 793 c 1,22,23
 452 782 452 782 326 729 c 1,0,-1
834 729 m 1,24,-1
 824 735 l 1,25,26
 899 1021 899 1021 931 1360 c 1,27,28
 911 1401 911 1401 874 1440 c 1,29,30
 1058 1462 1058 1462 1187 1510 c 1,31,-1
 1197 1504 l 1,32,33
 1261 1177 1261 1177 1364 1016 c 1,34,35
 1452 1178 1452 1178 1513 1412 c 1,36,37
 1507 1428 1507 1428 1499 1441 c 1,38,39
 1650 1460 1650 1460 1758 1510 c 1,40,-1
 1768 1504 l 1,41,42
 1791 1118 1791 1118 1878 794 c 1,43,44
 1752 778 1752 778 1612 729 c 1,45,-1
 1602 735 l 1,46,47
 1602 878 1602 878 1559 1090 c 1,48,49
 1494 947 1494 947 1454 786 c 1,50,51
 1322 780 1322 780 1202 729 c 1,52,-1
 1192 735 l 1,53,54
 1140 932 1140 932 1056 1133 c 1,55,56
 1014 910 1014 910 1014 782 c 1,57,58
 919 774 919 774 834 729 c 1,24,-1
EndSplineSet
Validated: 1
EndChar

StartChar: uni2126
Encoding: 8486 8486 155
Width: 1594
VWidth: 0
GlyphClass: 2
Flags: W
HStem: 0 21G<55 149 658.5 747 899 968.5 1379.5 1465> 1490 20G<652.5 927>
VStem: 165 313<634.855 1004.76> 1116 313<504.805 877.161>
LayerCount: 2
Fore
SplineSet
61 0 m 1,0,1
 55 10 l 1,2,3
 111 142 111 142 147 402 c 1,4,5
 253 298 253 298 407 260 c 1,6,7
 165 460 165 460 165 753 c 0,8,9
 165 1047 165 1047 372 1261 c 24,10,11
 538 1433 538 1433 767 1510 c 1,12,-1
 777 1510 l 1,13,14
 1077 1408 1077 1408 1231 1254 c 24,15,16
 1429 1056 1429 1056 1429 759 c 0,17,18
 1429 507 1429 507 1275 310 c 1,19,20
 1411 336 1411 336 1533 402 c 1,21,-1
 1539 392 l 1,22,23
 1483 260 1483 260 1447 0 c 1,24,25
 1312 23 1312 23 1177 23 c 0,26,27
 1038 23 1038 23 899 0 c 1,28,-1
 899 239 l 1,29,30
 1116 389 1116 389 1116 646 c 0,31,32
 1116 906 1116 906 936 1057 c 0,33,34
 811 1161 811 1161 539 1174 c 1,35,36
 478 1033 478 1033 478 864 c 0,37,38
 478 543 478 543 747 396 c 1,39,-1
 747 0 l 1,40,41
 570 26 570 26 403.5 26 c 128,-1,42
 237 26 237 26 61 0 c 1,0,1
EndSplineSet
Validated: 1
EndChar

StartChar: estimated
Encoding: 8494 8494 156
Width: 1483
GlyphClass: 2
Flags: W
HStem: 0 238<599.593 911.488> 456 230<548 936> 896 234<598.154 884.86>
LayerCount: 2
Fore
SplineSet
1302 377 m 1,0,1
 1234 200 1234 200 1082 96 c 1,2,3
 939 0 939 0 748 0 c 0,4,5
 470 0 470 0 320 154 c 0,6,7
 150 329 150 329 150 556 c 128,-1,8
 150 783 150 783 316 960 c 0,9,10
 482 1130 482 1130 749 1130 c 0,11,12
 1012 1130 1012 1130 1182 942 c 24,13,14
 1333 775 1333 775 1333 531 c 2,15,-1
 1333 456 l 1,16,-1
 548 456 l 1,17,-1
 548 319 l 1,18,19
 638 238 638 238 751 238 c 0,20,21
 858 238 858 238 922 290 c 0,22,23
 968 328 968 328 978 377 c 1,24,-1
 1302 377 l 1,0,1
548 686 m 1,25,-1
 936 686 l 1,26,-1
 936 817 l 1,27,28
 838 896 838 896 749 896 c 0,29,30
 645 896 645 896 548 817 c 1,31,-1
 548 686 l 1,25,-1
EndSplineSet
Validated: 1
EndChar

StartChar: partialdiff
Encoding: 8706 8706 157
Width: 1297
GlyphClass: 2
Flags: W
HStem: 0 295<480.352 639.08> 730 262<643.11 829> 1490 20G<713 865>
VStem: 100 362<315.279 538.411>
LayerCount: 2
Fore
SplineSet
483 0 m 0,0,1
 313 0 313 0 207 101 c 0,2,3
 100 203 100 203 100 376 c 0,4,5
 100 589 100 589 271 765 c 0,6,7
 472 972 472 972 834 992 c 1,8,9
 829 1065 829 1065 812 1122 c 0,10,11
 793 1186 793 1186 768 1211 c 0,12,13
 746 1233 746 1233 719 1232 c 0,14,15
 694 1231 694 1231 675 1196 c 0,16,17
 647 1145 647 1145 614 1058 c 1,18,-1
 341 1180 l 1,19,20
 422 1358 422 1358 537 1433 c 0,21,22
 656 1510 656 1510 770 1510 c 0,23,24
 960 1510 960 1510 1063 1365 c 0,25,26
 1167 1218 1167 1218 1167 933 c 0,27,28
 1167 660 1167 660 1074 439 c 0,29,30
 982 220 982 220 815 110 c 0,31,32
 649 0 649 0 483 0 c 0,0,1
829 730 m 1,33,-1
 772 730 l 2,34,35
 720 730 720 730 658 697 c 0,36,37
 590 661 590 661 526 571 c 128,-1,38
 462 481 462 481 462 391 c 0,39,40
 462 350 462 350 489 321 c 0,41,42
 513 295 513 295 549 295 c 0,43,44
 583 295 583 295 614 318 c 0,45,46
 690 374 690 374 746 467 c 0,47,48
 810 573 810 573 829 730 c 1,33,-1
EndSplineSet
Validated: 1
EndChar

StartChar: uni2206
Encoding: 8710 8710 158
Width: 1483
GlyphClass: 2
Flags: W
HStem: 0 21G<5 202.5 1260 1478> 47 194<410.075 1006.82> 1490 20G<832 940>
LayerCount: 2
Fore
SplineSet
406 263 m 1,0,1
 536 241 536 241 716 241 c 0,2,3
 873 241 873 241 1014 270 c 1,4,5
 897 723 897 723 718 1091 c 1,6,7
 515 708 515 708 406 263 c 1,0,1
11 0 m 1,8,9
 5 6 l 1,10,11
 367 689 367 689 538 1418 c 1,12,13
 734 1435 734 1435 930 1510 c 1,14,-1
 940 1504 l 1,15,16
 1170 730 1170 730 1478 6 c 1,17,-1
 1472 0 l 1,18,19
 1048 47 1048 47 699 47 c 0,20,21
 394 47 394 47 11 0 c 1,8,9
EndSplineSet
Validated: 1
EndChar

StartChar: product
Encoding: 8719 8719 159
Width: 1524
GlyphClass: 2
Flags: W
HStem: -380 21G<180 288 939 1047> 1219 241<558.939 958.293> 1490 20G<1184.5 1344>
VStem: 224 316<-55.9688 1190.9> 983 316<-57.2578 1195.69>
LayerCount: 2
Fore
SplineSet
190 -380 m 1,0,1
 180 -374 l 1,2,3
 224 -16 224 -16 224 543 c 0,4,5
 224 1152 224 1152 183 1507 c 1,6,-1
 193 1513 l 1,7,8
 495 1460 495 1460 754 1460 c 0,9,10
 1035 1460 1035 1460 1334 1510 c 1,11,-1
 1344 1504 l 1,12,13
 1299 1138 1299 1138 1299 592 c 0,14,15
 1299 49 1299 49 1341 -288 c 1,16,17
 1145 -305 1145 -305 949 -380 c 1,18,-1
 939 -374 l 1,19,20
 983 -20 983 -20 983 540 c 0,21,22
 983 969 983 969 963 1211 c 1,23,24
 864 1219 864 1219 749 1219 c 0,25,26
 650 1219 650 1219 556 1210 c 1,27,28
 540 1026 540 1026 540 592 c 0,29,30
 540 52 540 52 582 -288 c 1,31,32
 386 -305 386 -305 190 -380 c 1,0,1
EndSplineSet
Validated: 1
EndChar

StartChar: summation
Encoding: 8721 8721 160
Width: 1420
GlyphClass: 2
Flags: W
HStem: -380 21G<50 220 1085.5 1246> -336 242<684.231 1136.89> 1490 20G<463 571 1176 1264>
LayerCount: 2
Fore
SplineSet
60 -380 m 1,0,1
 50 -374 l 1,2,3
 468 186 468 186 604 568 c 1,4,5
 456 963 456 963 169 1418 c 1,6,7
 365 1435 365 1435 561 1510 c 1,8,-1
 571 1504 l 1,9,10
 696 1452 696 1452 904 1452 c 0,11,12
 1094 1452 1094 1452 1258 1510 c 1,13,-1
 1264 1500 l 1,14,15
 1208 1368 1208 1368 1172 1108 c 1,16,17
 960 1121 960 1121 840 1184 c 0,18,19
 676 1270 676 1270 562 1428 c 1,20,21
 729 879 729 879 984 572 c 1,22,23
 750 186 750 186 682 -84 c 1,24,25
 753 -94 753 -94 874 -94 c 0,26,27
 1083 -94 1083 -94 1314 22 c 1,28,-1
 1320 12 l 1,29,30
 1264 -120 1264 -120 1228 -380 c 1,31,32
 943 -336 943 -336 680 -336 c 0,33,34
 380 -336 380 -336 60 -380 c 1,0,1
EndSplineSet
Validated: 1
EndChar

StartChar: minus
Encoding: 8722 8722 161
Width: 1409
GlyphClass: 2
Flags: W
HStem: 659 236<269.751 1140.43>
LayerCount: 2
Fore
SplineSet
156 606 m 1,0,-1
 150 616 l 1,1,2
 208 767 208 767 232 948 c 1,3,4
 474 895 474 895 706 895 c 0,5,6
 990 895 990 895 1253 948 c 1,7,-1
 1259 938 l 1,8,9
 1201 787 1201 787 1177 606 c 1,10,11
 944 659 944 659 684 659 c 0,12,13
 428 659 428 659 156 606 c 1,0,-1
EndSplineSet
Validated: 1
EndChar

StartChar: uni2215
Encoding: 8725 8725 162
Width: 1259
GlyphClass: 2
Flags: W
LayerCount: 2
Fore
SplineSet
362 -150 m 1,0,1
 190 -84 190 -84 10 -62 c 1,2,3
 289 382 289 382 543 868 c 0,4,5
 749 1263 749 1263 887 1654 c 1,6,-1
 897 1660 l 1,7,8
 1069 1594 1069 1594 1249 1572 c 1,9,10
 962 1114 962 1114 716 642 c 0,11,12
 512 250 512 250 372 -144 c 1,13,-1
 362 -150 l 1,0,1
EndSplineSet
Validated: 1
EndChar

StartChar: asteriskmath
Encoding: 8727 8727 163
Width: 1421
GlyphClass: 2
Flags: W
LayerCount: 2
Fore
SplineSet
872 1343 m 1,0,-1
 882 1337 l 1,1,2
 850 1178 850 1178 837 1012 c 1,3,4
 943 1088 943 1088 1034 1173 c 1,5,6
 1146 1028 1146 1028 1271 926 c 1,7,-1
 1271 915 l 1,8,9
 1115 862 1115 862 962 788 c 1,10,11
 1109 718 1109 718 1271 662 c 1,12,-1
 1271 651 l 1,13,14
 1146 549 1146 549 1034 404 c 1,15,16
 940 490 940 490 841 563 c 1,17,18
 854 441 854 441 882 316 c 1,19,20
 701 292 701 292 550 234 c 1,21,-1
 540 240 l 1,22,23
 572 406 572 406 585 566 c 1,24,25
 483 492 483 492 387 404 c 1,26,27
 276 549 276 549 150 651 c 1,28,-1
 150 662 l 1,29,30
 312 718 312 718 459 788 c 1,31,32
 306 862 306 862 150 915 c 1,33,-1
 150 926 l 1,34,35
 276 1028 276 1028 387 1173 c 1,36,37
 477 1089 477 1089 580 1015 c 1,38,39
 567 1141 567 1141 540 1261 c 1,40,41
 721 1285 721 1285 872 1343 c 1,0,-1
EndSplineSet
Validated: 1
EndChar

StartChar: uni2218
Encoding: 8728 8728 164
Width: 1025
GlyphClass: 2
Flags: W
VStem: 150 225<720.219 948.911> 661 214<605.688 842.655>
LayerCount: 2
Fore
SplineSet
414 958 m 1,0,1
 375 896 375 896 375 825 c 0,2,3
 375 735 375 735 492 655 c 0,4,5
 552 614 552 614 628 601 c 1,6,7
 661 655 661 655 661 729 c 0,8,9
 661 831 661 831 543 908 c 0,10,11
 483 946 483 946 414 958 c 1,0,1
493 1185 m 1,12,-1
 503 1185 l 1,13,14
 630 1152 630 1152 730 1070 c 0,15,16
 875 952 875 952 875 778 c 0,17,18
 875 623 875 623 752 505 c 24,19,20
 670 426 670 426 532 372 c 1,21,-1
 522 372 l 1,22,23
 394 405 394 405 295 487 c 0,24,25
 150 607 150 607 150 779 c 0,26,27
 150 929 150 929 273 1052 c 0,28,29
 350 1129 350 1129 493 1185 c 1,12,-1
EndSplineSet
Validated: 1
EndChar

StartChar: uni2219
Encoding: 8729 8729 165
Width: 702
GlyphClass: 2
Flags: W
HStem: 520 518
VStem: 168 367<615.063 942.903>
LayerCount: 2
Fore
SplineSet
160 520 m 5,0,-1
 150 526 l 5,1,2
 168 626 168 626 168 736.5 c 132,-1,3
 168 847 168 847 150 946 c 5,4,5
 346 963 346 963 542 1038 c 5,6,-1
 552 1032 l 5,7,8
 535 909 535 909 535 809.5 c 132,-1,9
 535 710 535 710 552 612 c 5,10,11
 356 595 356 595 160 520 c 5,0,-1
EndSplineSet
Validated: 1
EndChar

StartChar: radical
Encoding: 8730 8730 166
Width: 1456
GlyphClass: 2
Flags: W
HStem: 0 21G<421 529> 1490 20G<1260 1356>
LayerCount: 2
Fore
SplineSet
431 0 m 1,0,-1
 421 6 l 1,1,2
 302 450 302 450 100 712 c 1,3,4
 296 729 296 729 492 804 c 1,5,-1
 502 798 l 1,6,7
 532 542 532 542 643 419 c 1,8,9
 882 880 882 880 994 1422 c 1,10,11
 1174 1444 1174 1444 1346 1510 c 1,12,-1
 1356 1504 l 1,13,14
 996 818 996 818 823 92 c 1,15,16
 627 75 627 75 431 0 c 1,0,-1
EndSplineSet
Validated: 1
EndChar

StartChar: uni221B
Encoding: 8731 8731 167
Width: 1456
GlyphClass: 2
Flags: W
HStem: 0 21G<421 529> 1490 20G<390 470.5 1260 1356>
VStem: 200 153<1240.56 1352.48> 472 214<1212.44 1336.58>
LayerCount: 2
Fore
SplineSet
423 1510 m 1,0,-1
 434 1510 l 1,1,2
 507 1499 507 1499 561 1472 c 0,3,4
 686 1411 686 1411 686 1329 c 0,5,6
 686 1257 686 1257 614 1213 c 1,7,8
 669 1204 669 1204 717 1167 c 0,9,10
 769 1127 769 1127 769 1054 c 0,11,12
 769 947 769 947 649 886 c 0,13,14
 553 837 553 837 454 825 c 1,15,-1
 442 825 l 1,16,17
 345 839 345 839 273 889 c 0,18,19
 210 933 210 933 171 1003 c 1,20,-1
 338 1100 l 1,21,22
 356 1068 356 1068 407 1038 c 0,23,24
 462 1006 462 1006 527 997 c 1,25,26
 538 1021 538 1021 538 1038 c 0,27,28
 538 1076 538 1076 483 1091 c 1,29,-1
 329 1134 l 1,30,31
 472 1192 472 1192 472 1273 c 0,32,33
 472 1328 472 1328 412 1341 c 2,34,-1
 357 1353 l 1,35,36
 353 1328 353 1328 353 1311 c 0,37,38
 353 1270 353 1270 431 1262 c 1,39,-1
 265 1195 l 1,40,41
 200 1215 200 1215 200 1292 c 0,42,43
 200 1381 200 1381 289 1445 c 0,44,45
 357 1496 357 1496 423 1510 c 1,0,-1
431 0 m 1,46,-1
 421 6 l 1,47,48
 302 450 302 450 100 712 c 1,49,50
 296 729 296 729 492 804 c 1,51,-1
 502 798 l 1,52,53
 532 542 532 542 643 419 c 1,54,55
 882 880 882 880 994 1422 c 1,56,57
 1174 1444 1174 1444 1346 1510 c 1,58,-1
 1356 1504 l 1,59,60
 996 818 996 818 823 92 c 1,61,62
 627 75 627 75 431 0 c 1,46,-1
EndSplineSet
Validated: 1
EndChar

StartChar: infinity
Encoding: 8734 8734 168
Width: 1535
GlyphClass: 2
Flags: W
VStem: 150 225<720.219 948.911> 661 224<719.026 844.029> 1171 214<605.688 842.655>
LayerCount: 2
Fore
SplineSet
493 1185 m 1,0,-1
 503 1185 l 1,1,2
 627 1153 627 1153 730 1070 c 0,3,4
 750 1054 750 1054 768 1036 c 1,5,-1
 783 1052 l 1,6,7
 860 1129 860 1129 1003 1185 c 1,8,-1
 1013 1185 l 1,9,10
 1139 1152 1139 1152 1240 1070 c 0,11,12
 1385 952 1385 952 1385 778 c 0,13,14
 1385 623 1385 623 1262 505 c 0,15,16
 1180 426 1180 426 1042 372 c 1,17,-1
 1032 372 l 1,18,19
 909 404 909 404 805 487 c 0,20,21
 785 503 785 503 768 521 c 1,22,-1
 752 505 l 1,23,24
 670 426 670 426 532 372 c 1,25,-1
 522 372 l 1,26,27
 394 405 394 405 295 487 c 0,28,29
 150 607 150 607 150 779 c 0,30,31
 150 929 150 929 273 1052 c 0,32,33
 350 1129 350 1129 493 1185 c 1,0,-1
414 958 m 1,34,35
 375 896 375 896 375 825 c 0,36,37
 375 735 375 735 492 655 c 0,38,39
 552 614 552 614 628 601 c 1,40,41
 661 655 661 655 661 729 c 0,42,43
 661 831 661 831 543 908 c 0,44,45
 483 946 483 946 414 958 c 1,34,35
924 958 m 1,46,47
 885 896 885 896 885 825 c 0,48,49
 885 735 885 735 1002 655 c 0,50,51
 1062 614 1062 614 1138 601 c 1,52,53
 1171 655 1171 655 1171 729 c 0,54,55
 1171 831 1171 831 1053 908 c 0,56,57
 993 946 993 946 924 958 c 1,46,47
EndSplineSet
Validated: 1
EndChar

StartChar: approxequal
Encoding: 8776 8776 169
Width: 1383
GlyphClass: 2
Flags: W
HStem: 291 316<771.479 1036.96> 456 316<346.038 611.521> 779 316<771.479 1036.96> 944 316<346.038 611.521>
LayerCount: 2
Fore
SplineSet
156 779 m 1,0,-1
 150 789 l 1,1,2
 206 921 206 921 242 1181 c 1,3,4
 345 1260 345 1260 461 1260 c 0,5,6
 591 1260 591 1260 710 1134 c 0,7,8
 747 1095 747 1095 810 1095 c 0,9,10
 1040 1095 1040 1095 1227 1260 c 1,11,-1
 1233 1250 l 1,12,13
 1177 1118 1177 1118 1141 858 c 1,14,15
 1038 779 1038 779 922 779 c 0,16,17
 792 779 792 779 673 905 c 0,18,19
 636 944 636 944 573 944 c 0,20,21
 343 944 343 944 156 779 c 1,0,-1
156 291 m 1,22,-1
 150 301 l 1,23,24
 206 433 206 433 242 693 c 1,25,26
 345 772 345 772 461 772 c 0,27,28
 591 772 591 772 710 646 c 0,29,30
 747 607 747 607 810 607 c 0,31,32
 1040 607 1040 607 1227 772 c 1,33,-1
 1233 762 l 1,34,35
 1177 630 1177 630 1141 370 c 1,36,37
 1038 291 1038 291 922 291 c 0,38,39
 792 291 792 291 673 417 c 0,40,41
 636 456 636 456 573 456 c 0,42,43
 343 456 343 456 156 291 c 1,22,-1
EndSplineSet
Validated: 1
EndChar

StartChar: notequal
Encoding: 8800 8800 170
Width: 1517
GlyphClass: 2
Flags: W
HStem: 453 236<809 1194.43> 868 237<323.751 683>
LayerCount: 2
Fore
SplineSet
502 130 m 1,0,1
 329 198 329 198 150 218 c 1,2,3
 251 321 251 321 340 423 c 1,4,5
 276 413 276 413 210 400 c 1,6,-1
 204 410 l 1,7,8
 262 561 262 561 286 742 c 1,9,10
 427 711 427 711 564 698 c 1,11,12
 613 764 613 764 656 828 c 2,13,-1
 683 868 l 1,14,15
 453 863 453 863 210 816 c 1,16,-1
 204 826 l 1,17,18
 262 977 262 977 286 1158 c 1,19,20
 528 1105 528 1105 760 1105 c 0,21,22
 795 1105 795 1105 829 1106 c 1,23,24
 928 1279 928 1279 1005 1451 c 1,25,-1
 1015 1457 l 1,26,27
 1187 1391 1187 1391 1367 1369 c 1,28,29
 1247 1252 1247 1252 1141 1130 c 1,30,31
 1225 1141 1225 1141 1307 1158 c 1,32,-1
 1313 1148 l 1,33,34
 1255 997 1255 997 1231 816 c 1,35,36
 1084 849 1084 849 927 862 c 1,37,-1
 846 746 l 1,38,-1
 809 689 l 1,39,40
 1067 694 1067 694 1307 742 c 1,41,-1
 1313 732 l 1,42,43
 1255 581 1255 581 1231 400 c 1,44,45
 998 453 998 453 738 453 c 0,46,47
 700 453 700 453 662 452 c 1,48,49
 555 265 555 265 512 136 c 1,50,-1
 502 130 l 1,0,1
EndSplineSet
Validated: 1
EndChar

StartChar: equivalence
Encoding: 8801 8801 171
Width: 1409
GlyphClass: 2
Flags: W
HStem: 243 236<269.751 1140.43> 659 236<269.751 1140.43> 1075 236<269.751 1140.43>
CounterMasks: 1 e0
LayerCount: 2
Fore
SplineSet
156 1022 m 1,0,-1
 150 1032 l 1,1,2
 208 1183 208 1183 232 1364 c 1,3,4
 474 1311 474 1311 706 1311 c 0,5,6
 990 1311 990 1311 1253 1364 c 1,7,-1
 1259 1354 l 1,8,9
 1201 1203 1201 1203 1177 1022 c 1,10,11
 944 1075 944 1075 684 1075 c 0,12,13
 428 1075 428 1075 156 1022 c 1,0,-1
156 190 m 1,14,-1
 150 200 l 1,15,16
 208 351 208 351 232 532 c 1,17,18
 474 479 474 479 706 479 c 0,19,20
 990 479 990 479 1253 532 c 1,21,-1
 1259 522 l 1,22,23
 1201 371 1201 371 1177 190 c 1,24,25
 944 243 944 243 684 243 c 0,26,27
 428 243 428 243 156 190 c 1,14,-1
156 606 m 1,28,-1
 150 616 l 1,29,30
 208 767 208 767 232 948 c 1,31,32
 474 895 474 895 706 895 c 0,33,34
 990 895 990 895 1253 948 c 1,35,-1
 1259 938 l 1,36,37
 1201 787 1201 787 1177 606 c 1,38,39
 944 659 944 659 684 659 c 0,40,41
 428 659 428 659 156 606 c 1,28,-1
EndSplineSet
Validated: 1
EndChar

StartChar: lessequal
Encoding: 8804 8804 172
Width: 1480
GlyphClass: 2
Flags: W
HStem: 77 236<269.751 1140.43>
LayerCount: 2
Fore
SplineSet
156 24 m 1,0,-1
 150 34 l 1,1,2
 208 185 208 185 232 366 c 1,3,4
 474 313 474 313 706 313 c 0,5,6
 990 313 990 313 1253 366 c 1,7,-1
 1259 356 l 1,8,9
 1201 205 1201 205 1177 24 c 1,10,11
 944 77 944 77 684 77 c 0,12,13
 428 77 428 77 156 24 c 1,0,-1
150 770 m 1,14,15
 226 966 226 966 242 1162 c 1,16,17
 782 1244 782 1244 1274 1545 c 1,18,-1
 1280 1535 l 1,19,20
 1214 1364 1214 1364 1192 1183 c 1,21,22
 852 1152 852 1152 569 982 c 1,23,24
 838 804 838 804 1274 774 c 1,25,-1
 1280 764 l 1,26,27
 1206 568 1206 568 1188 372 c 1,28,29
 724 660 724 660 156 760 c 1,30,-1
 150 770 l 1,14,15
EndSplineSet
Validated: 1
EndChar

StartChar: greaterequal
Encoding: 8805 8805 173
Width: 1480
GlyphClass: 2
Flags: W
HStem: 77 236<319.751 1190.43>
LayerCount: 2
Fore
SplineSet
206 24 m 1,0,-1
 200 34 l 1,1,2
 258 185 258 185 282 366 c 1,3,4
 524 313 524 313 756 313 c 0,5,6
 1040 313 1040 313 1303 366 c 1,7,-1
 1309 356 l 1,8,9
 1251 205 1251 205 1227 24 c 1,10,11
 994 77 994 77 734 77 c 0,12,13
 478 77 478 77 206 24 c 1,0,-1
1330 1147 m 1,14,15
 1254 951 1254 951 1238 755 c 1,16,17
 698 673 698 673 206 372 c 1,18,-1
 200 382 l 1,19,20
 266 553 266 553 288 734 c 1,21,22
 628 765 628 765 911 935 c 1,23,24
 642 1113 642 1113 206 1143 c 1,25,-1
 200 1153 l 1,26,27
 274 1349 274 1349 292 1545 c 1,28,29
 756 1257 756 1257 1324 1157 c 1,30,-1
 1330 1147 l 1,14,15
EndSplineSet
Validated: 1
EndChar

StartChar: lozenge
Encoding: 9674 9674 174
Width: 1583
GlyphClass: 2
Flags: W
LayerCount: 2
Fore
SplineSet
952 1384 m 1,0,-1
 962 1378 l 1,1,2
 1133 1083 1133 1083 1433 839 c 1,3,4
 1158 572 1158 572 1022 272 c 1,5,6
 826 255 826 255 630 180 c 1,7,-1
 620 186 l 1,8,9
 446 476 446 476 150 727 c 1,10,11
 440 990 440 990 560 1292 c 1,12,13
 756 1309 756 1309 952 1384 c 1,0,-1
718 1072 m 1,14,15
 578 938 578 938 532 820 c 1,16,17
 640 590 640 590 837 471 c 1,18,19
 942 575 942 575 1032 747 c 1,20,21
 943 950 943 950 718 1072 c 1,14,15
EndSplineSet
Validated: 1
EndChar

StartChar: Y
Encoding: 89 89 175
Width: 1363
Flags: W
HStem: 0 21G<497 605> 1490 20G<299 407 1262 1358>
LayerCount: 2
Fore
SplineSet
507 0 m 1,0,-1
 497 6 l 1,1,2
 524 230 524 230 533 412 c 1,3,4
 324 906 324 906 5 1418 c 1,5,6
 201 1435 201 1435 397 1510 c 1,7,-1
 407 1504 l 1,8,9
 559 1016 559 1016 729 718 c 1,10,11
 897 1028 897 1028 996 1422 c 1,12,13
 1176 1444 1176 1444 1348 1510 c 1,14,-1
 1358 1504 l 1,15,16
 961 831 961 831 866 458 c 1,17,18
 876 273 876 273 899 92 c 1,19,20
 703 75 703 75 507 0 c 1,0,-1
EndSplineSet
Validated: 1
EndChar

StartChar: X
Encoding: 88 88 176
Width: 1413
Flags: W
HStem: 0 21G<30 126 981 1089> 1490 20G<324 432 1287 1383>
LayerCount: 2
Fore
SplineSet
40 0 m 1,0,-1
 30 6 l 1,1,2
 387 429 387 429 569 703 c 1,3,4
 302 1090 302 1090 30 1418 c 1,5,6
 226 1435 226 1435 422 1510 c 1,7,-1
 432 1504 l 1,8,9
 591 1197 591 1197 758 940 c 1,10,11
 894 1152 894 1152 1021 1422 c 1,12,13
 1201 1444 1201 1444 1373 1510 c 1,14,-1
 1383 1504 l 1,15,16
 1083 1083 1083 1083 887 774 c 1,17,18
 1101 447 1101 447 1383 92 c 1,19,20
 1187 75 1187 75 991 0 c 1,21,-1
 981 6 l 1,22,23
 846 279 846 279 692 526 c 1,24,25
 534 312 534 312 392 88 c 1,26,27
 212 66 212 66 40 0 c 1,0,-1
EndSplineSet
Validated: 1
EndChar

StartChar: Z
Encoding: 90 90 177
Width: 1358
Flags: W
HStem: 0 21G<80 236.5 1062.5 1204> 44 242<687 1055.15> 1224 241<339.265 748.43> 1490 20G<223 351 1096.5 1258>
LayerCount: 2
Fore
SplineSet
90 0 m 1,0,-1
 80 6 l 1,1,2
 471 534 471 534 749 1223 c 1,3,4
 728 1224 728 1224 645 1224 c 0,5,6
 385 1224 385 1224 155 1108 c 1,7,-1
 149 1118 l 1,8,9
 205 1250 205 1250 241 1510 c 1,10,11
 461 1465 461 1465 720 1465 c 0,12,13
 945 1465 945 1465 1248 1510 c 1,14,-1
 1258 1504 l 1,15,16
 870 873 870 873 687 286 c 1,17,18
 1004 286 1004 286 1272 402 c 1,19,-1
 1278 392 l 1,20,21
 1222 260 1222 260 1186 0 c 1,22,23
 939 44 939 44 656 44 c 0,24,25
 383 44 383 44 90 0 c 1,0,-1
EndSplineSet
Validated: 1
EndChar

StartChar: J
Encoding: 74 74 178
Width: 1357
VWidth: 0
Flags: W
HStem: 0 21G<402 676.5> 1490 20G<1069 1177>
VStem: 816 316<432.359 1377.93>
LayerCount: 2
Fore
SplineSet
562 0 m 1,0,-1
 552 0 l 1,1,2
 252 102 252 102 98 256 c 16,3,4
 54 300 54 300 20 349 c 1,5,-1
 338 506 l 1,6,7
 363 478 363 478 393 453 c 0,8,9
 518 349 518 349 790 336 c 1,10,11
 816 496 816 496 816 730 c 0,12,13
 816 1099 816 1099 775 1418 c 1,14,15
 971 1435 971 1435 1167 1510 c 1,16,-1
 1177 1504 l 1,17,18
 1132 1146 1132 1146 1132 782 c 0,19,20
 1132 667 1132 667 1136 554 c 1,21,22
 1089 386 1089 386 957 249 c 8,23,24
 791 77 791 77 562 0 c 1,0,-1
EndSplineSet
Validated: 1
EndChar

StartChar: U
Encoding: 85 85 179
Width: 1564
VWidth: 0
Flags: W
HStem: 0 21G<589 883.5> 1490 20G<474 582 1276 1384>
VStem: 211 326<520.145 1408.99> 1023 316<432.359 1377.93>
LayerCount: 2
Fore
SplineSet
769 0 m 1,0,1
 759 0 l 1,2,3
 419 115 419 115 305 256 c 16,4,5
 211 371 211 371 211 547 c 1,6,7
 221 718 221 718 221 930 c 0,8,9
 221 1129 221 1129 180 1418 c 1,10,11
 376 1435 376 1435 572 1510 c 1,12,-1
 582 1504 l 1,13,14
 537 1195 537 1195 537 910 c 0,15,16
 537 523 537 523 629 437 c 0,17,18
 724 349 724 349 997 336 c 1,19,20
 1023 496 1023 496 1023 730 c 0,21,22
 1023 1099 1023 1099 982 1418 c 1,23,24
 1178 1435 1178 1435 1374 1510 c 1,25,-1
 1384 1504 l 1,26,27
 1339 1146 1339 1146 1339 782 c 0,28,29
 1339 667 1339 667 1343 554 c 1,30,31
 1296 386 1296 386 1164 249 c 8,32,33
 998 77 998 77 769 0 c 1,0,1
EndSplineSet
Validated: 1
EndChar

StartChar: K
Encoding: 75 75 180
Width: 1483
Flags: W
HStem: 0 21G<180 288 981 1089> 1490 20G<477 585 1270 1378>
VStem: 224 316<782 1384.77>
LayerCount: 2
Fore
SplineSet
190 0 m 1,0,-1
 180 6 l 1,1,2
 224 364 224 364 224 730 c 0,3,4
 224 1063 224 1063 183 1418 c 1,5,6
 379 1435 379 1435 575 1510 c 1,7,-1
 585 1504 l 1,8,9
 541 1154 541 1154 540 782 c 1,10,11
 806 1076 806 1076 976 1418 c 1,12,13
 1172 1435 1172 1435 1368 1510 c 1,14,-1
 1378 1504 l 1,15,16
 1068 1152 1068 1152 924 904 c 1,17,18
 1132 394 1132 394 1383 92 c 1,19,20
 1187 75 1187 75 991 0 c 1,21,-1
 981 6 l 1,22,23
 870 332 870 332 678 616 c 1,24,25
 601 526 601 526 552 413 c 1,26,27
 562 251 562 251 582 92 c 1,28,29
 386 75 386 75 190 0 c 1,0,-1
EndSplineSet
Validated: 1
EndChar

StartChar: Q
Encoding: 81 81 181
Width: 1504
VWidth: 0
Flags: W
HStem: 0 21G<619.5 828.5 983 1106.5> 1490 20G<607.5 882>
VStem: 120 313<631.98 1004.46> 1071 313<506.499 877.161>
LayerCount: 2
Fore
SplineSet
494 1174 m 1,0,1
 433 1033 433 1033 433 864 c 0,2,3
 433 600 433 600 613 453 c 0,4,5
 689 391 689 391 810 361 c 1,6,7
 727 490 727 490 616 608 c 1,8,9
 701 625 701 625 928 700 c 1,10,-1
 938 694 l 1,11,12
 980 566 980 566 1046 445 c 1,13,14
 1071 544 1071 544 1071 646 c 0,15,16
 1071 906 1071 906 891 1057 c 0,17,18
 766 1161 766 1161 494 1174 c 1,0,1
782 0 m 1,19,-1
 772 0 l 1,20,21
 467 103 467 103 317 255 c 0,22,23
 120 455 120 455 120 751 c 128,-1,24
 120 1047 120 1047 327 1261 c 0,25,26
 493 1433 493 1433 722 1510 c 1,27,-1
 732 1510 l 1,28,29
 1032 1408 1032 1408 1186 1254 c 0,30,31
 1384 1056 1384 1056 1384 759 c 0,32,33
 1384 467 1384 467 1175 246 c 1,34,35
 1234 167 1234 167 1305 92 c 1,36,37
 1220 75 1220 75 993 0 c 1,38,-1
 983 6 l 1,39,40
 971 42 971 42 957 77 c 1,41,42
 875 31 875 31 782 0 c 1,19,-1
EndSplineSet
Validated: 1
EndChar

StartChar: P
Encoding: 80 80 182
Width: 1426
VWidth: 0
Flags: W
HStem: 0 21G<191 299> 352 227<558.182 878.775> 1182 328<372.732 832.767>
VStem: 229 327<96.6201 368 593.832 928.853> 1005 322<704.392 1021.28>
LayerCount: 2
Fore
SplineSet
201 0 m 1,0,-1
 191 6 l 1,1,2
 229 326 229 326 229 515 c 0,3,4
 229 644 229 644 191 938 c 1,5,6
 387 955 387 955 583 1030 c 1,7,-1
 593 1024 l 1,8,9
 550 760 550 760 546 609 c 1,10,11
 639 579 639 579 722 579 c 0,12,13
 847 579 847 579 928 662 c 0,14,15
 1005 742 1005 742 1005 869 c 0,16,17
 1005 995 1005 995 908 1086 c 0,18,19
 808 1182 808 1182 617 1182 c 0,20,21
 376 1182 376 1182 126 1011 c 1,22,-1
 120 1021 l 1,23,24
 195 1217 195 1217 212 1413 c 1,25,26
 379 1510 379 1510 617 1510 c 0,27,28
 941 1510 941 1510 1134 1340 c 128,-1,29
 1327 1170 1327 1170 1327 911 c 0,30,31
 1327 679 1327 679 1167 522 c 0,32,33
 995 352 995 352 723 352 c 0,34,35
 645 352 645 352 556 368 c 1,36,37
 568 240 568 240 593 92 c 1,38,39
 397 75 397 75 201 0 c 1,0,-1
EndSplineSet
Validated: 1
EndChar

StartChar: D
Encoding: 68 68 183
Width: 1528
VWidth: 0
Flags: W
HStem: 0 241<804 900.341> 1182 328<372.732 834.91>
VStem: 229 317<271.891 928.853> 1084 324<474.68 927.39>
LayerCount: 2
Fore
SplineSet
201 0 m 1,0,1
 191 6 l 1,2,3
 229 326 229 326 229 515 c 0,4,5
 229 644 229 644 191 938 c 1,6,7
 387 955 387 955 583 1030 c 1,8,-1
 593 1024 l 1,9,10
 546 734 546 734 546 580 c 0,11,12
 546 392 546 392 567 268 c 1,13,14
 650 241 650 241 737 241 c 0,15,16
 831 241 831 241 900 282 c 0,17,18
 968 323 968 323 1010 407 c 0,19,20
 1084 551 1084 551 1084 723 c 0,21,22
 1084 931 1084 931 935 1070 c 0,23,24
 814 1182 814 1182 617 1182 c 0,25,26
 376 1182 376 1182 126 1011 c 1,27,-1
 120 1021 l 1,28,29
 195 1217 195 1217 212 1413 c 1,30,31
 379 1510 379 1510 617 1510 c 0,32,33
 942 1510 942 1510 1156 1326 c 0,34,35
 1408 1108 1408 1108 1408 740 c 0,36,37
 1408 509 1408 509 1290 318 c 0,38,39
 1092 0 1092 0 804 0 c 1,40,-1
 593 92 l 1,41,42
 397 75 397 75 201 0 c 1,0,1
EndSplineSet
Validated: 1
EndChar

StartChar: R
Encoding: 82 82 184
Width: 1513
VWidth: 0
Flags: W
HStem: 0 21G<191 299 981 1089> 352 227<558.779 760.252> 1182 328<372.732 832.767>
VStem: 229 327<96.6201 368 593.832 928.853> 1005 322<704.392 1020.84>
LayerCount: 2
Fore
SplineSet
201 0 m 1,0,-1
 191 6 l 1,1,2
 229 326 229 326 229 515 c 0,3,4
 229 644 229 644 191 938 c 1,5,6
 387 955 387 955 583 1030 c 1,7,-1
 593 1024 l 1,8,9
 550 760 550 760 546 609 c 1,10,11
 639 579 639 579 722 579 c 0,12,13
 848 579 848 579 928 662 c 0,14,15
 1005 742 1005 742 1005 869 c 0,16,17
 1005 993 1005 993 908 1086 c 24,18,19
 808 1182 808 1182 617 1182 c 0,20,21
 376 1182 376 1182 126 1011 c 1,22,-1
 120 1021 l 1,23,24
 195 1217 195 1217 212 1413 c 1,25,26
 379 1510 379 1510 617 1510 c 0,27,28
 941 1510 941 1510 1134 1340 c 128,-1,29
 1327 1170 1327 1170 1327 911 c 0,30,31
 1327 679 1327 679 1167 522 c 0,32,33
 1113 469 1113 469 1049 432 c 1,34,35
 1181 253 1181 253 1383 92 c 1,36,37
 1187 75 1187 75 991 0 c 1,38,-1
 981 6 l 1,39,40
 861 203 861 203 723 352 c 1,41,42
 645 352 645 352 556 368 c 1,43,44
 568 240 568 240 593 92 c 1,45,46
 397 75 397 75 201 0 c 1,0,-1
EndSplineSet
Validated: 1
EndChar

StartChar: S
Encoding: 83 83 185
Width: 1356
VWidth: 0
Flags: W
HStem: 0 21G<554 832> 1490 20G<538 814.5>
VStem: 155 251<911.5 1182.01> 966 270<358.023 639>
DStem2: 548 1001 457 693 0.940293 -0.340366<-156.196 562.748>
LayerCount: 2
Fore
SplineSet
715 0 m 1,0,1
 705 0 l 1,2,3
 403 99 403 99 250 255 c 0,4,5
 168 339 168 339 120 439 c 1,6,-1
 435 581 l 1,7,8
 496 488 496 488 546 453 c 0,9,10
 722 328 722 328 943 296 c 1,11,12
 966 352 966 352 966 424 c 0,13,14
 966 525 966 525 800 580 c 2,15,-1
 457 693 l 2,16,17
 155 792 155 792 155 1031 c 0,18,19
 155 1151 155 1151 260 1261 c 0,20,21
 421 1429 421 1429 655 1510 c 1,22,-1
 665 1510 l 1,23,24
 964 1409 964 1409 1119 1254 c 0,25,26
 1130 1243 1130 1243 1146 1225 c 9,27,-1
 873 1011 l 17,28,29
 835 1050 835 1050 824 1057 c 0,30,31
 638 1188 638 1188 437 1234 c 1,32,33
 407 1188 407 1188 406 1130 c 0,34,35
 406 1052 406 1052 548 1001 c 2,36,-1
 932 862 l 2,37,38
 1236 752 1236 752 1236 526 c 0,39,40
 1236 381 1236 381 1110 248 c 0,41,42
 949 78 949 78 715 0 c 1,0,1
EndSplineSet
Validated: 1
EndChar

StartChar: two
Encoding: 50 50 186
Width: 1401
VWidth: 0
Flags: W
HStem: 0 21G<120 280.5 1065 1207> 45 259<524.496 1141.86> 1490 20G<564 846>
VStem: 175 253<929.5 1168.3> 908 348<871.713 1044.01>
LayerCount: 2
Fore
SplineSet
130 0 m 1,0,1
 120 6 l 1,2,3
 217 420 217 420 516 640 c 0,4,5
 558 671 558 671 834 848 c 0,6,7
 908 895 908 895 908 956 c 0,8,9
 908 1007 908 1007 851 1057 c 0,10,11
 736 1158 736 1158 454 1174 c 1,12,13
 428 1134 428 1134 428 1088 c 0,14,15
 428 979 428 979 656 937 c 1,16,-1
 332 753 l 1,17,18
 175 862 175 862 175 997 c 0,19,20
 175 1141 175 1141 287 1261 c 0,21,22
 446 1430 446 1430 682 1510 c 1,23,-1
 692 1510 l 1,24,25
 1000 1404 1000 1404 1146 1254 c 0,26,27
 1256 1141 1256 1141 1256 994 c 24,28,29
 1256 736 1256 736 953 600 c 0,30,31
 784 524 784 524 693 471 c 0,32,33
 574 402 574 402 518 341 c 1,34,35
 657 304 657 304 837 304 c 0,36,37
 1080 304 1080 304 1275 402 c 1,38,-1
 1281 392 l 1,39,40
 1225 260 1225 260 1189 0 c 1,41,42
 941 45 941 45 691 45 c 0,43,44
 431 45 431 45 130 0 c 1,0,1
EndSplineSet
Validated: 1
EndChar

StartChar: three
Encoding: 51 51 187
Width: 1355
Flags: W
HStem: 0 21G<555.5 833.5> 1490 20G<535 773.5>
VStem: 214 277<1023.42 1229.02> 795 319<998.96 1142.68> 966 269<357.694 577.5>
LayerCount: 2
Fore
SplineSet
715 0 m 1,0,-1
 705 0 l 1,1,2
 406 100 406 100 250 255 c 0,3,4
 171 334 171 334 120 438 c 1,5,-1
 435 582 l 1,6,7
 474 515 474 515 546 453 c 0,8,9
 667 349 667 349 943 336 c 1,10,11
 966 386 966 386 966 421 c 0,12,13
 966 520 966 520 798 580 c 2,14,-1
 367 733 l 1,15,-1
 674 884 l 1,16,17
 795 942 795 942 795 1038 c 0,18,19
 795 1117 795 1117 742 1149 c 0,20,21
 628 1217 628 1217 511 1240 c 1,22,23
 491 1200 491 1200 491 1172 c 0,24,25
 491 1082 491 1082 630 1054 c 1,26,-1
 322 887 l 1,27,28
 214 974 214 974 214 1091 c 0,29,30
 214 1182 214 1182 300 1287 c 0,31,32
 415 1428 415 1428 655 1510 c 1,33,-1
 665 1510 l 1,34,35
 882 1437 882 1437 1007 1339 c 0,36,37
 1114 1255 1114 1255 1114 1138 c 0,38,39
 1114 995 1114 995 952 888 c 1,40,-1
 917 866 l 1,41,42
 1086 809 1086 809 1161 719 c 0,43,44
 1235 630 1235 630 1235 525 c 0,45,46
 1235 381 1235 381 1110 249 c 0,47,48
 952 81 952 81 715 0 c 1,0,-1
EndSplineSet
Validated: 1
EndChar

StartChar: five
Encoding: 53 53 188
Width: 1355
Flags: W
HStem: 0 21G<555.5 833.5> 1490 20G<540 648 1123.5 1206>
VStem: 275 340<990.539 1413.46> 966 269<357.694 582>
DStem2: 638 988 798 580 0.952744 -0.303774<-25.2384 445.728>
LayerCount: 2
Fore
SplineSet
715 0 m 1,0,-1
 705 0 l 1,1,2
 406 100 406 100 250 255 c 0,3,4
 171 334 171 334 120 438 c 1,5,-1
 435 582 l 1,6,7
 474 515 474 515 546 453 c 0,8,9
 667 349 667 349 943 336 c 1,10,11
 966 386 966 386 966 421 c 0,12,13
 966 526 966 526 798 580 c 2,14,-1
 246 756 l 1,15,16
 275 895 275 895 275 1088 c 0,17,18
 275 1273 275 1273 246 1418 c 1,19,20
 442 1435 442 1435 638 1510 c 1,21,-1
 648 1504 l 1,22,23
 751 1461 751 1461 928 1461 c 0,24,25
 1047 1461 1047 1461 1200 1510 c 1,26,-1
 1206 1500 l 1,27,28
 1150 1368 1150 1368 1114 1108 c 1,29,30
 930 1121 930 1121 829 1183 c 0,31,32
 713 1254 713 1254 639 1428 c 1,33,34
 615 1298 615 1298 615 1183.5 c 128,-1,35
 615 1069 615 1069 638 988 c 9,36,-1
 916 900 l 18,37,38
 1076 849 1076 849 1160 738 c 0,39,40
 1235 639 1235 639 1235 525 c 0,41,42
 1235 381 1235 381 1110 249 c 0,43,44
 952 81 952 81 715 0 c 1,0,-1
EndSplineSet
Validated: 1
EndChar

StartChar: cent
Encoding: 162 162 189
Width: 1188
Flags: W
VStem: 100 289<486.36 774.402> 460 262<-72.2856 20.4338 1097.02 1199.78> 506 176<407.575 762>
LayerCount: 2
Fore
SplineSet
470 -150 m 1,0,-1
 460 -144 l 1,1,2
 471 -42 471 -42 480 51 c 1,3,4
 366 99 366 99 288 166 c 0,5,6
 100 327 100 327 100 569 c 0,7,8
 100 765 100 765 239 914 c 0,9,10
 340 1022 340 1022 476 1086 c 1,11,12
 471 1138 471 1138 466 1192 c 1,13,14
 591 1217 591 1217 718 1280 c 1,15,-1
 728 1274 l 1,16,17
 718 1180 718 1180 710 1094 c 1,18,19
 847 1042 847 1042 940 964 c 0,20,21
 1013 903 1013 903 1057 829 c 1,22,-1
 787 665 l 1,23,24
 750 716 750 716 686 762 c 1,25,26
 682 670 682 670 682 590 c 0,27,28
 682 466 682 466 692 307 c 1,29,30
 743 295 743 295 803 291 c 1,31,32
 803 370 803 370 782 458 c 1,33,-1
 1088 361 l 1,34,35
 1053 282 1053 282 989 216 c 0,36,37
 870 92 870 92 713 27 c 1,38,-1
 722 -62 l 1,39,40
 599 -89 599 -89 470 -150 c 1,0,-1
503 403 m 1,41,42
 506 475 506 475 506 540 c 0,43,44
 506 668 506 668 496 832 c 1,45,46
 465 836 465 836 431 839 c 1,47,48
 389 732 389 732 389 646 c 0,49,50
 389 504 389 504 503 403 c 1,41,42
EndSplineSet
Validated: 1
EndChar

StartChar: paragraph
Encoding: 182 182 190
Width: 1266
Flags: W
HStem: 0 21G<711 761> 1490 20G<406.5 546 1008 1116>
VStem: 100 782<843.576 1248.45> 711 171<40.1382 513.393> 755 127<264.346 730> 942 171<89.4849 595.598> 942 129<314.879 1249.6>
LayerCount: 2
Fore
SplineSet
721 0 m 1,0,-1
 711 6 l 1,1,2
 755 364 755 364 755 730 c 1,3,-1
 551 589 l 1,4,-1
 541 589 l 1,5,6
 306 627 306 627 203 751 c 128,-1,7
 100 875 100 875 100 1061 c 0,8,9
 100 1240 100 1240 241 1375 c 0,10,11
 329 1460 329 1460 484 1510 c 1,12,-1
 494 1510 l 1,13,14
 598 1490 598 1490 671 1445 c 0,15,16
 692 1432 692 1432 714 1418 c 1,17,18
 910 1435 910 1435 1106 1510 c 1,19,-1
 1116 1504 l 1,20,21
 1072 1154 1072 1154 1071 782 c 0,22,23
 1071 429 1071 429 1113 92 c 1,24,-1
 942 62 l 1,25,-1
 942 1277 l 1,26,-1
 882 1277 l 1,27,-1
 882 52 l 1,28,29
 801 31 801 31 721 0 c 1,0,-1
EndSplineSet
Validated: 1
EndChar

StartChar: uni00B5
Encoding: 181 181 191
Width: 1413
Flags: W
HStem: -380 21G<150 258> 0 21G<671 774.5 861 969> 1110 20G<447 555 1155 1263>
VStem: 150 402<-292.413 75.1575 650.577 1041.7> 194 323<452.328 1004.77> 909 316<294.559 1021.74>
LayerCount: 2
Fore
SplineSet
741 0 m 1,0,-1
 731 0 l 1,1,2
 611 33 611 33 519 81 c 1,3,4
 529 -106 529 -106 552 -288 c 1,5,6
 356 -305 356 -305 160 -380 c 1,7,-1
 150 -374 l 1,8,9
 194 -16 194 -16 194 350 c 0,10,11
 194 683 194 683 153 1038 c 1,12,13
 349 1055 349 1055 545 1130 c 1,14,-1
 555 1124 l 1,15,16
 517 791 517 791 517 646 c 0,17,18
 517 457 517 457 631 377 c 0,19,20
 738 302 738 302 899 291 c 1,21,22
 909 405 909 405 909 503 c 0,23,24
 909 778 909 778 861 1038 c 1,25,26
 1057 1055 1057 1055 1253 1130 c 1,27,-1
 1263 1124 l 1,28,29
 1225 791 1225 791 1225 565 c 0,30,31
 1225 331 1225 331 1263 92 c 1,32,33
 1067 75 1067 75 871 0 c 1,34,-1
 861 6 l 1,35,-1
 868 50 l 1,36,37
 808 21 808 21 741 0 c 1,0,-1
EndSplineSet
Validated: 1
EndChar

StartChar: M
Encoding: 77 77 192
Width: 1854
Flags: W
HStem: 0 21G<50 133.5 689 797 1402 1510> 1490 20G<445 553 1499 1607>
VStem: 1412 194<241 1406>
LayerCount: 2
Fore
SplineSet
60 0 m 1,0,-1
 50 6 l 1,1,2
 214 592 214 592 261 1181 c 1,3,-1
 151 1418 l 1,4,5
 347 1435 347 1435 543 1510 c 1,6,-1
 553 1504 l 1,7,8
 660 888 660 888 911 419 c 1,9,10
 1127 828 1127 828 1238 1298 c 1,11,-1
 1205 1418 l 1,12,13
 1401 1435 1401 1435 1597 1510 c 1,14,-1
 1607 1504 l 1,15,16
 1606 1454 1606 1454 1606 1406 c 0,17,18
 1606 664 1606 664 1804 92 c 1,19,20
 1608 75 1608 75 1412 0 c 1,21,-1
 1402 6 l 1,22,23
 1412 125 1412 125 1412 241 c 0,24,25
 1412 564 1412 564 1334 866 c 1,26,27
 1166 480 1166 480 1091 92 c 1,28,29
 895 75 895 75 699 0 c 1,30,-1
 689 6 l 1,31,32
 603 468 603 468 420 796 c 1,33,34
 372 460 372 460 372 88 c 1,35,36
 207 66 207 66 60 0 c 1,0,-1
EndSplineSet
Validated: 1
EndChar

StartChar: B
Encoding: 66 66 193
Width: 1500
VWidth: 0
Flags: W
HStem: 0 241<804 948.359> 1182 328<372.732 766.889>
VStem: 229 317<271.891 928.853> 808 291<973.12 1133.42> 1072 308<355.535 596.62>
LayerCount: 2
Fore
SplineSet
201 0 m 1,0,-1
 191 6 l 1,1,2
 229 326 229 326 229 515 c 0,3,4
 229 644 229 644 191 938 c 1,5,6
 387 955 387 955 583 1030 c 1,7,-1
 593 1024 l 1,8,9
 546 734 546 734 546 580 c 0,10,11
 546 392 546 392 567 268 c 1,12,13
 649 241 649 241 737 241 c 0,14,15
 896 241 896 241 975 303 c 0,16,17
 1072 378 1072 378 1072 484 c 0,18,19
 1072 569 1072 569 1014 608 c 0,20,21
 958 647 958 647 854 647 c 0,22,23
 746 647 746 647 626 522 c 1,24,-1
 620 532 l 1,25,26
 695 728 695 728 712 924 c 1,27,28
 808 964 808 964 808 1031 c 128,-1,29
 808 1098 808 1098 774 1131 c 0,30,31
 722 1182 722 1182 617 1182 c 0,32,33
 376 1182 376 1182 126 1011 c 1,34,-1
 120 1021 l 1,35,36
 195 1217 195 1217 212 1413 c 1,37,38
 379 1510 379 1510 617 1510 c 0,39,40
 830 1510 830 1510 970 1393 c 0,41,42
 1099 1286 1099 1286 1099 1127 c 0,43,44
 1099 1014 1099 1014 1022 930 c 1,45,46
 1163 895 1163 895 1256 803 c 0,47,48
 1380 680 1380 680 1380 498 c 0,49,50
 1380 287 1380 287 1212 147 c 0,51,52
 1035 0 1035 0 804 0 c 1,53,-1
 593 92 l 1,54,55
 397 75 397 75 201 0 c 1,0,-1
EndSplineSet
Validated: 1
EndChar

StartChar: F
Encoding: 70 70 194
Width: 1193
Flags: W
HStem: 0 21G<180 288> 593 242<543 863.315> 1490 20G<477 585 1060.5 1143>
LayerCount: 2
Fore
SplineSet
190 0 m 1,0,-1
 180 6 l 1,1,2
 224 364 224 364 224 730 c 0,3,4
 224 1063 224 1063 183 1418 c 1,5,6
 379 1435 379 1435 575 1510 c 1,7,-1
 585 1504 l 1,8,9
 694 1461 694 1461 865 1461 c 0,10,11
 984 1461 984 1461 1137 1510 c 1,12,-1
 1143 1500 l 1,13,14
 1087 1368 1087 1368 1051 1108 c 1,15,16
 867 1121 867 1121 766 1183 c 0,17,18
 650 1254 650 1254 576 1428 c 1,19,20
 544 1136 544 1136 540 835 c 1,21,22
 816 835 816 835 1044 950 c 1,23,-1
 1050 940 l 1,24,25
 994 808 994 808 958 548 c 1,26,27
 805 593 805 593 543 593 c 1,28,29
 551 342 551 342 582 92 c 1,30,31
 386 75 386 75 190 0 c 1,0,-1
EndSplineSet
Validated: 1
EndChar

StartChar: dollar
Encoding: 36 36 195
Width: 1356
Flags: W
VStem: 155 251<912 1171.53> 544 262<-72.2856 29.5315 1473.56 1579.78> 585 191<424 591 987 1093> 966 270<357.901 638.5>
LayerCount: 2
Fore
SplineSet
554 -150 m 1,0,-1
 544 -144 l 1,1,2
 555 -47 555 -47 563 53 c 1,3,4
 365 138 365 138 250 255 c 0,5,6
 169 338 169 338 120 439 c 1,7,-1
 435 581 l 1,8,9
 487 502 487 502 546 453 c 0,10,11
 564 438 564 438 585 424 c 1,12,13
 589 535 589 535 590 649 c 1,14,-1
 457 693 l 2,15,16
 155 793 155 793 155 1031 c 0,17,18
 155 1152 155 1152 260 1261 c 0,19,20
 387 1393 387 1393 559 1472 c 1,21,22
 555 1522 555 1522 550 1572 c 1,23,24
 675 1597 675 1597 802 1660 c 1,25,-1
 812 1654 l 1,26,27
 801 1559 801 1559 793 1461 c 1,28,29
 999 1374 999 1374 1119 1254 c 0,30,31
 1130 1243 1130 1243 1146 1225 c 1,32,-1
 873 1011 l 1,33,34
 848 1037 848 1037 824 1057 c 128,-1,35
 800 1077 800 1077 772 1093 c 1,36,37
 768 1008 768 1008 767 922 c 1,38,-1
 932 862 l 2,39,40
 1236 751 1236 751 1236 526 c 0,41,42
 1236 381 1236 381 1110 248 c 0,43,44
 978 109 978 109 797 31 c 1,45,46
 801 -16 801 -16 806 -62 c 1,47,48
 683 -89 683 -89 554 -150 c 1,0,-1
587 987 m 1,49,50
 584 1073 584 1073 580 1158 c 1,51,52
 510 1170 510 1170 427 1174 c 1,53,54
 406 1129 406 1129 406 1106 c 0,55,56
 406 1053 406 1053 548 1001 c 2,57,-1
 587 987 l 1,49,50
768 591 m 1,58,59
 770 471 770 471 776 354 c 1,60,61
 851 340 851 340 943 336 c 1,62,63
 966 392 966 392 966 424 c 0,64,65
 966 525 966 525 800 580 c 2,66,-1
 768 591 l 1,58,59
EndSplineSet
Validated: 1
EndChar

StartChar: Agrave
Encoding: 192 192 196
Width: 1483
Flags: W
HStem: 0 21G<5 101 1076 1184> 421 231<528.469 904.804> 1490 20G<832 940>
LayerCount: 2
Fore
SplineSet
15 0 m 1,0,-1
 5 6 l 1,1,2
 365 692 365 692 538 1418 c 1,3,4
 734 1435 734 1435 930 1510 c 1,5,-1
 940 1504 l 1,6,7
 1125 723 1125 723 1478 92 c 1,8,9
 1282 75 1282 75 1086 0 c 1,10,-1
 1076 6 l 1,11,12
 1044 219 1044 219 984 411 c 1,13,14
 873 421 873 421 703 421 c 0,15,16
 544 421 544 421 447 411 c 1,17,18
 401 253 401 253 367 88 c 1,19,20
 187 66 187 66 15 0 c 1,0,-1
527 655 m 1,21,22
 589 652 589 652 715 652 c 0,23,24
 849 652 849 652 907 654 c 1,25,26
 825 888 825 888 718 1091 c 1,27,28
 609 881 609 881 527 655 c 1,21,22
620 1880 m 1,29,-1
 631 1878 l 1,30,31
 744 1734 744 1734 931 1664 c 1,32,-1
 929 1652 l 1,33,34
 806 1586 806 1586 730 1520 c 1,35,-1
 719 1522 l 1,36,37
 545 1617 545 1617 283 1649 c 1,38,-1
 283 1659 l 1,39,40
 461 1742 461 1742 620 1880 c 1,29,-1
EndSplineSet
Validated: 1
EndChar

StartChar: Aacute
Encoding: 193 193 197
Width: 1483
Flags: W
HStem: 0 21G<5 101 1076 1184> 421 231<528.469 904.804> 1490 20G<832 940>
LayerCount: 2
Fore
SplineSet
15 0 m 1,0,-1
 5 6 l 1,1,2
 365 692 365 692 538 1418 c 1,3,4
 734 1435 734 1435 930 1510 c 1,5,-1
 940 1504 l 1,6,7
 1125 723 1125 723 1478 92 c 1,8,9
 1282 75 1282 75 1086 0 c 1,10,-1
 1076 6 l 1,11,12
 1044 219 1044 219 984 411 c 1,13,14
 873 421 873 421 703 421 c 0,15,16
 544 421 544 421 447 411 c 1,17,18
 401 253 401 253 367 88 c 1,19,20
 187 66 187 66 15 0 c 1,0,-1
527 655 m 1,21,22
 589 652 589 652 715 652 c 0,23,24
 849 652 849 652 907 654 c 1,25,26
 825 888 825 888 718 1091 c 1,27,28
 609 881 609 881 527 655 c 1,21,22
910 1880 m 1,29,30
 1069 1742 1069 1742 1247 1659 c 1,31,-1
 1247 1649 l 1,32,33
 985 1617 985 1617 811 1522 c 1,34,-1
 800 1520 l 1,35,36
 724 1586 724 1586 601 1652 c 1,37,-1
 599 1664 l 1,38,39
 786 1734 786 1734 899 1878 c 1,40,-1
 910 1880 l 1,29,30
EndSplineSet
Validated: 1
EndChar

StartChar: Acircumflex
Encoding: 194 194 198
Width: 1483
Flags: W
HStem: 0 21G<5 101 1076 1184> 421 231<528.469 904.804> 1490 20G<832 940>
LayerCount: 2
Fore
SplineSet
15 0 m 1,0,-1
 5 6 l 1,1,2
 365 692 365 692 538 1418 c 1,3,4
 734 1435 734 1435 930 1510 c 1,5,-1
 940 1504 l 1,6,7
 1125 723 1125 723 1478 92 c 1,8,9
 1282 75 1282 75 1086 0 c 1,10,-1
 1076 6 l 1,11,12
 1044 219 1044 219 984 411 c 1,13,14
 873 421 873 421 703 421 c 0,15,16
 544 421 544 421 447 411 c 1,17,18
 401 253 401 253 367 88 c 1,19,20
 187 66 187 66 15 0 c 1,0,-1
527 655 m 1,21,22
 589 652 589 652 715 652 c 0,23,24
 849 652 849 652 907 654 c 1,25,26
 825 888 825 888 718 1091 c 1,27,28
 609 881 609 881 527 655 c 1,21,22
923 1880 m 1,29,-1
 933 1874 l 1,30,31
 933 1705 933 1705 1087 1595 c 1,32,-1
 1087 1585 l 1,33,34
 977 1575 977 1575 865 1530 c 1,35,-1
 855 1536 l 1,36,37
 747 1619 747 1619 726 1683 c 1,38,39
 709 1616 709 1616 599 1536 c 1,40,-1
 589 1530 l 1,41,42
 497 1567 497 1567 367 1585 c 1,43,-1
 367 1595 l 1,44,45
 497 1671 497 1671 513 1791 c 1,46,47
 719 1805 719 1805 923 1880 c 1,29,-1
EndSplineSet
Validated: 1
EndChar

StartChar: Atilde
Encoding: 195 195 199
Width: 1483
Flags: W
HStem: 0 21G<5 101 1076 1184> 421 231<528.469 904.804> 1490 20G<832 940> 1557 219<790.569 973.665> 1661 219<535.335 718.431>
LayerCount: 2
Fore
SplineSet
15 0 m 1,0,-1
 5 6 l 1,1,2
 365 692 365 692 538 1418 c 1,3,4
 734 1435 734 1435 930 1510 c 1,5,-1
 940 1504 l 1,6,7
 1125 723 1125 723 1478 92 c 1,8,9
 1282 75 1282 75 1086 0 c 1,10,-1
 1076 6 l 1,11,12
 1044 219 1044 219 984 411 c 1,13,14
 873 421 873 421 703 421 c 0,15,16
 544 421 544 421 447 411 c 1,17,18
 401 253 401 253 367 88 c 1,19,20
 187 66 187 66 15 0 c 1,0,-1
527 655 m 1,21,22
 589 652 589 652 715 652 c 0,23,24
 849 652 849 652 907 654 c 1,25,26
 825 888 825 888 718 1091 c 1,27,28
 609 881 609 881 527 655 c 1,21,22
1072 1880 m 1,29,-1
 1083 1873 l 1,30,31
 1004 1729 1004 1729 988 1616 c 1,32,33
 937 1558 937 1558 870 1557 c 0,34,35
 794 1557 794 1557 748 1594 c 0,36,37
 664 1661 664 1661 628 1661 c 0,38,39
 584 1661 584 1661 535 1626 c 0,40,41
 450 1567 450 1567 437 1557 c 1,42,-1
 426 1564 l 1,43,44
 505 1708 505 1708 521 1821 c 1,45,46
 572 1879 572 1879 639 1880 c 0,47,48
 715 1880 715 1880 761 1843 c 0,49,50
 845 1776 845 1776 881 1776 c 0,51,52
 925 1776 925 1776 974 1811 c 0,53,54
 1059 1870 1059 1870 1072 1880 c 1,29,-1
EndSplineSet
Validated: 1
EndChar

StartChar: Adieresis
Encoding: 196 196 200
Width: 1483
Flags: W
HStem: 0 21G<5 101 1076 1184> 421 231<528.469 904.804> 1490 20G<832 940>
VStem: 415 267<1622 1785.78> 775 267<1622 1785.78>
DStem2: 397 1788 407 1528 0.970361 0.241661<-1.20604 252.563> 757 1788 767 1528 0.970361 0.241661<-1.20604 252.563>
LayerCount: 2
Fore
SplineSet
15 0 m 1,0,-1
 5 6 l 1,1,2
 365 692 365 692 538 1418 c 1,3,4
 734 1435 734 1435 930 1510 c 1,5,-1
 940 1504 l 1,6,7
 1125 723 1125 723 1478 92 c 1,8,9
 1282 75 1282 75 1086 0 c 1,10,-1
 1076 6 l 1,11,12
 1044 219 1044 219 984 411 c 1,13,14
 873 421 873 421 703 421 c 0,15,16
 544 421 544 421 447 411 c 1,17,18
 401 253 401 253 367 88 c 1,19,20
 187 66 187 66 15 0 c 1,0,-1
527 655 m 1,21,22
 589 652 589 652 715 652 c 0,23,24
 849 652 849 652 907 654 c 1,25,26
 825 888 825 888 718 1091 c 1,27,28
 609 881 609 881 527 655 c 1,21,22
757 1534 m 1,29,30
 775 1598 775 1598 775 1659 c 0,31,32
 775 1717 775 1717 757 1788 c 1,33,34
 891 1814 891 1814 1049 1880 c 1,35,-1
 1059 1874 l 1,36,37
 1042 1793 1042 1793 1042 1738.5 c 128,-1,38
 1042 1684 1042 1684 1059 1620 c 1,39,40
 915 1592 915 1592 767 1528 c 1,41,-1
 757 1534 l 1,29,30
397 1534 m 1,42,43
 415 1598 415 1598 415 1659 c 0,44,45
 415 1717 415 1717 397 1788 c 1,46,47
 531 1814 531 1814 689 1880 c 1,48,-1
 699 1874 l 1,49,50
 682 1793 682 1793 682 1738.5 c 128,-1,51
 682 1684 682 1684 699 1620 c 1,52,53
 555 1592 555 1592 407 1528 c 1,54,-1
 397 1534 l 1,42,43
EndSplineSet
Validated: 1
EndChar

StartChar: Aring
Encoding: 197 197 201
Width: 1483
Flags: W
HStem: 0 21G<5 101 1076 1184> 421 231<528.469 904.804> 1490 20G<832 940>
VStem: 519 148<1640.9 1761.08> 793 142<1620.21 1741.67>
LayerCount: 2
Fore
SplineSet
15 0 m 1,0,-1
 5 6 l 1,1,2
 365 692 365 692 538 1418 c 1,3,4
 734 1435 734 1435 930 1510 c 1,5,-1
 940 1504 l 1,6,7
 1125 723 1125 723 1478 92 c 1,8,9
 1282 75 1282 75 1086 0 c 1,10,-1
 1076 6 l 1,11,12
 1044 219 1044 219 984 411 c 1,13,14
 873 421 873 421 703 421 c 0,15,16
 544 421 544 421 447 411 c 1,17,18
 401 253 401 253 367 88 c 1,19,20
 187 66 187 66 15 0 c 1,0,-1
527 655 m 1,21,22
 589 652 589 652 715 652 c 0,23,24
 849 652 849 652 907 654 c 1,25,26
 825 888 825 888 718 1091 c 1,27,28
 609 881 609 881 527 655 c 1,21,22
776 1619 m 1,29,30
 793 1646 793 1646 793 1676 c 0,31,32
 793 1710 793 1710 758 1739 c 0,33,34
 732 1759 732 1759 684 1762 c 1,35,36
 667 1735 667 1735 667 1705 c 0,37,38
 667 1667 667 1667 700 1644 c 0,39,40
 728 1625 728 1625 776 1619 c 1,29,30
727 1880 m 1,41,42
 818 1859 818 1859 876 1806 c 0,43,44
 935 1752 935 1752 935 1686 c 0,45,46
 935 1624 935 1624 874 1570 c 0,47,48
 815 1518 815 1518 718 1503 c 1,49,50
 641 1523 641 1523 580 1574 c 128,-1,51
 519 1625 519 1625 519 1694 c 0,52,53
 519 1764 519 1764 598 1822 c 0,54,55
 638 1852 638 1852 727 1880 c 1,41,42
EndSplineSet
Validated: 1
EndChar

StartChar: AE
Encoding: 198 198 202
Width: 1868
Flags: W
HStem: 0 21G<5 101 799 912.5 1648.5 1744> 45 241<1186.12 1634.89> 597 231<609.469 842 1162 1454.31> 1490 20G<1042 1204 1679.5 1762>
VStem: 842 320<301.148 593 835 1284.6>
LayerCount: 2
Fore
SplineSet
15 0 m 1,0,1
 5 6 l 1,2,3
 398 692 398 692 553 1406 c 1,4,5
 890 1420 890 1420 1194 1510 c 1,6,-1
 1204 1504 l 1,7,8
 1307 1461 1307 1461 1484 1461 c 0,9,10
 1603 1461 1603 1461 1756 1510 c 1,11,-1
 1762 1500 l 1,12,13
 1706 1368 1706 1368 1670 1108 c 1,14,15
 1486 1121 1486 1121 1385 1183 c 0,16,17
 1269 1254 1269 1254 1195 1428 c 1,18,19
 1163 1136 1163 1136 1159 835 c 1,20,21
 1435 835 1435 835 1663 950 c 1,22,-1
 1669 940 l 1,23,24
 1613 808 1613 808 1577 548 c 1,25,26
 1424 593 1424 593 1162 593 c 1,27,28
 1165 461 1165 461 1180 296 c 1,29,30
 1251 286 1251 286 1372 286 c 0,31,32
 1581 286 1581 286 1812 402 c 1,33,-1
 1818 392 l 1,34,35
 1762 260 1762 260 1726 0 c 1,36,37
 1571 45 1571 45 1377 45 c 0,38,39
 1016 45 1016 45 809 0 c 1,40,-1
 799 6 l 1,41,42
 835 299 835 299 842 597 c 1,43,44
 814 597 814 597 784 597 c 0,45,46
 625 597 625 597 528 587 c 1,47,48
 435 332 435 332 367 88 c 1,49,50
 187 66 187 66 15 0 c 1,0,1
815 1292 m 1,51,52
 690 1062 690 1062 608 831 c 1,53,54
 670 828 670 828 796 828 c 0,55,56
 820 828 820 828 842 828 c 1,57,58
 838 1055 838 1055 815 1292 c 1,51,52
EndSplineSet
Validated: 1
EndChar

StartChar: Amacron
Encoding: 256 256 203
Width: 1483
Flags: W
HStem: 0 21G<5 101 1076 1184> 421 231<528.469 904.804> 1490 20G<832 940> 1609 181<498.845 990.212>
LayerCount: 2
Fore
SplineSet
15 0 m 1,0,-1
 5 6 l 1,1,2
 365 692 365 692 538 1418 c 1,3,4
 734 1435 734 1435 930 1510 c 1,5,-1
 940 1504 l 1,6,7
 1125 723 1125 723 1478 92 c 1,8,9
 1282 75 1282 75 1086 0 c 1,10,-1
 1076 6 l 1,11,12
 1044 219 1044 219 984 411 c 1,13,14
 873 421 873 421 703 421 c 0,15,16
 544 421 544 421 447 411 c 1,17,18
 401 253 401 253 367 88 c 1,19,20
 187 66 187 66 15 0 c 1,0,-1
527 655 m 1,21,22
 589 652 589 652 715 652 c 0,23,24
 849 652 849 652 907 654 c 1,25,26
 825 888 825 888 718 1091 c 1,27,28
 609 881 609 881 527 655 c 1,21,22
495 1833 m 1,29,30
 618 1790 618 1790 746 1790 c 0,31,32
 892 1790 892 1790 1053 1833 c 1,33,-1
 1059 1823 l 1,34,35
 1008 1696 1008 1696 994 1566 c 1,36,37
 873 1609 873 1609 724 1609 c 0,38,39
 584 1609 584 1609 436 1566 c 1,40,-1
 430 1576 l 1,41,42
 481 1703 481 1703 495 1833 c 1,29,30
EndSplineSet
Validated: 1
EndChar

StartChar: Abreve
Encoding: 258 258 204
Width: 1483
Flags: W
HStem: 0 21G<5 101 1076 1184> 421 231<528.469 904.804> 1490 20G<832 940> 1560 210<583.594 894.531>
LayerCount: 2
Fore
SplineSet
15 0 m 1,0,-1
 5 6 l 1,1,2
 365 692 365 692 538 1418 c 1,3,4
 734 1435 734 1435 930 1510 c 1,5,-1
 940 1504 l 1,6,7
 1125 723 1125 723 1478 92 c 1,8,9
 1282 75 1282 75 1086 0 c 1,10,-1
 1076 6 l 1,11,12
 1044 219 1044 219 984 411 c 1,13,14
 873 421 873 421 703 421 c 0,15,16
 544 421 544 421 447 411 c 1,17,18
 401 253 401 253 367 88 c 1,19,20
 187 66 187 66 15 0 c 1,0,-1
527 655 m 1,21,22
 589 652 589 652 715 652 c 0,23,24
 849 652 849 652 907 654 c 1,25,26
 825 888 825 888 718 1091 c 1,27,28
 609 881 609 881 527 655 c 1,21,22
472 1874 m 1,29,-1
 482 1880 l 1,30,31
 626 1770 626 1770 734 1770 c 0,32,33
 847 1770 847 1770 1004 1880 c 1,34,-1
 1014 1874 l 1,35,36
 1014 1560 1014 1560 728 1560 c 0,37,38
 472 1560 472 1560 472 1874 c 1,29,-1
EndSplineSet
Validated: 1
EndChar

StartChar: Aogonek
Encoding: 260 260 205
Width: 1483
Flags: W
HStem: -380 21G<1170 1278> 0 21G<5 101> 421 231<528.469 904.804> 1490 20G<832 940>
VStem: 788 293<-214.147 6.53162>
LayerCount: 2
Fore
SplineSet
527 655 m 1,0,1
 589 652 589 652 715 652 c 0,2,3
 849 652 849 652 907 654 c 1,4,5
 825 888 825 888 718 1091 c 1,6,7
 609 881 609 881 527 655 c 1,0,1
15 0 m 1,8,-1
 5 6 l 1,9,10
 365 692 365 692 538 1418 c 1,11,12
 734 1435 734 1435 930 1510 c 1,13,-1
 940 1504 l 1,14,15
 1125 723 1125 723 1478 92 c 1,16,17
 1282 75 1282 75 1086 0 c 1,18,19
 1081 -31 1081 -31 1081 -61 c 0,20,21
 1081 -230 1081 -230 1278 -374 c 1,22,-1
 1268 -380 l 1,23,24
 1072 -305 1072 -305 876 -288 c 1,25,26
 788 -199 788 -199 788 -83 c 0,27,28
 788 92 788 92 1042 189 c 1,29,30
 1018 303 1018 303 984 411 c 1,31,32
 873 421 873 421 703 421 c 0,33,34
 544 421 544 421 447 411 c 1,35,36
 401 253 401 253 367 88 c 1,37,38
 187 66 187 66 15 0 c 1,8,-1
EndSplineSet
Validated: 1
EndChar

StartChar: Ccedilla
Encoding: 199 199 206
Width: 1456
VWidth: 0
Flags: W
HStem: -380 21G<472 580> 1490 20G<607.5 882>
VStem: 120 313<632.48 1004.46> 669 293<-214.147 49.701>
LayerCount: 2
Fore
SplineSet
646 47 m 1,0,1
 434 136 434 136 317 255 c 0,2,3
 120 455 120 455 120 751 c 128,-1,4
 120 1047 120 1047 327 1261 c 0,5,6
 493 1433 493 1433 722 1510 c 1,7,-1
 732 1510 l 1,8,9
 1032 1408 1032 1408 1186 1254 c 0,10,11
 1230 1210 1230 1210 1264 1161 c 1,12,-1
 946 1004 l 1,13,14
 921 1032 921 1032 891 1057 c 0,15,16
 766 1161 766 1161 494 1174 c 1,17,18
 433 1033 433 1033 433 864 c 0,19,20
 433 602 433 602 613 453 c 0,21,22
 742 346 742 346 1010 336 c 1,23,24
 1027 397 1027 397 1027 460 c 0,25,26
 1027 556 1027 556 989 654 c 1,27,-1
 1356 554 l 1,28,29
 1308 388 1308 388 1177 248 c 0,30,31
 1065 129 1065 129 917 56 c 1,32,33
 962 -5 962 -5 962 -83 c 0,34,35
 962 -199 962 -199 874 -288 c 1,36,37
 678 -305 678 -305 482 -380 c 1,38,-1
 472 -374 l 1,39,40
 669 -230 669 -230 669 -61 c 0,41,42
 669 -7 669 -7 646 47 c 1,0,1
EndSplineSet
Validated: 1
EndChar

StartChar: Cacute
Encoding: 262 262 207
Width: 1456
VWidth: 0
Flags: W
HStem: 0 21G<619.5 899> 1490 20G<607.5 882>
VStem: 120 313<632.48 1004.46>
LayerCount: 2
Fore
SplineSet
910 1880 m 1,0,1
 1069 1742 1069 1742 1247 1659 c 1,2,-1
 1247 1649 l 1,3,4
 985 1617 985 1617 811 1522 c 1,5,-1
 800 1520 l 1,6,7
 724 1586 724 1586 601 1652 c 1,8,-1
 599 1664 l 1,9,10
 786 1734 786 1734 899 1878 c 1,11,-1
 910 1880 l 1,0,1
782 0 m 1,12,-1
 772 0 l 1,13,14
 467 103 467 103 317 255 c 0,15,16
 120 455 120 455 120 751 c 128,-1,17
 120 1047 120 1047 327 1261 c 24,18,19
 493 1433 493 1433 722 1510 c 1,20,-1
 732 1510 l 1,21,22
 1032 1408 1032 1408 1186 1254 c 16,23,24
 1230 1210 1230 1210 1264 1161 c 1,25,-1
 946 1004 l 1,26,27
 921 1032 921 1032 891 1057 c 0,28,29
 766 1161 766 1161 494 1174 c 1,30,31
 433 1033 433 1033 433 864 c 0,32,33
 433 602 433 602 613 453 c 0,34,35
 742 346 742 346 1010 336 c 1,36,37
 1027 397 1027 397 1027 460 c 0,38,39
 1027 556 1027 556 989 654 c 9,40,-1
 1356 554 l 17,41,42
 1308 386 1308 386 1177 248 c 0,43,44
 1016 78 1016 78 782 0 c 1,12,-1
EndSplineSet
Validated: 1
EndChar

StartChar: Ccircumflex
Encoding: 264 264 208
Width: 1456
VWidth: 0
Flags: W
HStem: 0 21G<619.5 899> 1490 20G<607.5 882>
VStem: 120 313<632.48 1004.46>
LayerCount: 2
Fore
SplineSet
923 1880 m 1,0,-1
 933 1874 l 1,1,2
 933 1705 933 1705 1087 1595 c 1,3,-1
 1087 1585 l 1,4,5
 977 1575 977 1575 865 1530 c 1,6,-1
 855 1536 l 1,7,8
 747 1619 747 1619 726 1683 c 1,9,10
 709 1616 709 1616 599 1536 c 1,11,-1
 589 1530 l 1,12,13
 497 1567 497 1567 367 1585 c 1,14,-1
 367 1595 l 1,15,16
 497 1671 497 1671 513 1791 c 1,17,18
 719 1805 719 1805 923 1880 c 1,0,-1
782 0 m 1,19,-1
 772 0 l 1,20,21
 467 103 467 103 317 255 c 0,22,23
 120 455 120 455 120 751 c 128,-1,24
 120 1047 120 1047 327 1261 c 24,25,26
 493 1433 493 1433 722 1510 c 1,27,-1
 732 1510 l 1,28,29
 1032 1408 1032 1408 1186 1254 c 16,30,31
 1230 1210 1230 1210 1264 1161 c 1,32,-1
 946 1004 l 1,33,34
 921 1032 921 1032 891 1057 c 0,35,36
 766 1161 766 1161 494 1174 c 1,37,38
 433 1033 433 1033 433 864 c 0,39,40
 433 602 433 602 613 453 c 0,41,42
 742 346 742 346 1010 336 c 1,43,44
 1027 397 1027 397 1027 460 c 0,45,46
 1027 556 1027 556 989 654 c 9,47,-1
 1356 554 l 17,48,49
 1308 386 1308 386 1177 248 c 0,50,51
 1016 78 1016 78 782 0 c 1,19,-1
EndSplineSet
Validated: 1
EndChar

StartChar: Cdotaccent
Encoding: 266 266 209
Width: 1456
VWidth: 0
Flags: W
HStem: 0 21G<619.5 899> 1490 20G<607.5 882>
VStem: 120 313<632.48 1004.46> 538 367<1596 1785.78>
LayerCount: 2
Fore
SplineSet
520 1508 m 1,0,1
 538 1572 538 1572 538 1646 c 0,2,3
 538 1717 538 1717 520 1788 c 1,4,5
 716 1805 716 1805 912 1880 c 1,6,-1
 922 1874 l 1,7,8
 905 1793 905 1793 905 1725.5 c 128,-1,9
 905 1658 905 1658 922 1594 c 1,10,11
 726 1577 726 1577 530 1502 c 1,12,-1
 520 1508 l 1,0,1
782 0 m 1,13,-1
 772 0 l 1,14,15
 467 103 467 103 317 255 c 0,16,17
 120 455 120 455 120 751 c 128,-1,18
 120 1047 120 1047 327 1261 c 24,19,20
 493 1433 493 1433 722 1510 c 1,21,-1
 732 1510 l 1,22,23
 1032 1408 1032 1408 1186 1254 c 16,24,25
 1230 1210 1230 1210 1264 1161 c 1,26,-1
 946 1004 l 1,27,28
 921 1032 921 1032 891 1057 c 0,29,30
 766 1161 766 1161 494 1174 c 1,31,32
 433 1033 433 1033 433 864 c 0,33,34
 433 602 433 602 613 453 c 0,35,36
 742 346 742 346 1010 336 c 1,37,38
 1027 397 1027 397 1027 460 c 0,39,40
 1027 556 1027 556 989 654 c 9,41,-1
 1356 554 l 17,42,43
 1308 386 1308 386 1177 248 c 0,44,45
 1016 78 1016 78 782 0 c 1,13,-1
EndSplineSet
Validated: 1
EndChar

StartChar: Ccaron
Encoding: 268 268 210
Width: 1456
VWidth: 0
Flags: W
HStem: 0 21G<619.5 899> 1490 20G<607.5 882>
VStem: 120 313<632.48 1004.46>
LayerCount: 2
Fore
SplineSet
582 1880 m 1,0,-1
 592 1874 l 1,1,2
 700 1791 700 1791 721 1727 c 1,3,4
 738 1794 738 1794 848 1874 c 1,5,-1
 858 1880 l 1,6,7
 950 1843 950 1843 1080 1825 c 1,8,-1
 1080 1815 l 1,9,10
 950 1739 950 1739 934 1619 c 1,11,12
 728 1605 728 1605 524 1530 c 1,13,-1
 514 1536 l 1,14,15
 514 1705 514 1705 360 1815 c 1,16,-1
 360 1825 l 1,17,18
 470 1835 470 1835 582 1880 c 1,0,-1
782 0 m 1,19,-1
 772 0 l 1,20,21
 467 103 467 103 317 255 c 0,22,23
 120 455 120 455 120 751 c 128,-1,24
 120 1047 120 1047 327 1261 c 24,25,26
 493 1433 493 1433 722 1510 c 1,27,-1
 732 1510 l 1,28,29
 1032 1408 1032 1408 1186 1254 c 16,30,31
 1230 1210 1230 1210 1264 1161 c 1,32,-1
 946 1004 l 1,33,34
 921 1032 921 1032 891 1057 c 0,35,36
 766 1161 766 1161 494 1174 c 1,37,38
 433 1033 433 1033 433 864 c 0,39,40
 433 602 433 602 613 453 c 0,41,42
 742 346 742 346 1010 336 c 1,43,44
 1027 397 1027 397 1027 460 c 0,45,46
 1027 556 1027 556 989 654 c 9,47,-1
 1356 554 l 17,48,49
 1308 386 1308 386 1177 248 c 0,50,51
 1016 78 1016 78 782 0 c 1,19,-1
EndSplineSet
Validated: 1
EndChar

StartChar: Eth
Encoding: 208 208 211
Width: 1528
VWidth: 0
Flags: W
HStem: 0 241<804 900.341> 1182 328<372.732 834.91>
VStem: 229 318<271.261 513> 1084 324<474.68 927.39>
LayerCount: 2
Fore
SplineSet
201 0 m 1,0,-1
 191 6 l 1,1,2
 229 325 229 325 229 513 c 1,3,4
 139 503 139 503 56 482 c 1,5,-1
 50 492 l 1,6,7
 89 619 89 619 115 809 c 1,8,9
 162 797 162 797 209 788 c 1,10,11
 202 857 202 857 191 938 c 1,12,13
 387 955 387 955 583 1030 c 1,14,-1
 593 1024 l 1,15,16
 570 879 570 879 558 768 c 1,17,18
 718 776 718 776 853 809 c 1,19,-1
 859 799 l 1,20,21
 820 672 820 672 794 482 c 1,22,23
 677 512 677 512 547 521 c 1,24,25
 549 372 549 372 567 268 c 1,26,27
 650 241 650 241 737 241 c 0,28,29
 831 241 831 241 900 282 c 0,30,31
 968 323 968 323 1010 407 c 1,32,33
 1084 551 1084 551 1084 723 c 0,34,35
 1084 931 1084 931 935 1070 c 0,36,37
 814 1182 814 1182 617 1182 c 0,38,39
 376 1182 376 1182 126 1011 c 1,40,-1
 120 1021 l 1,41,42
 195 1217 195 1217 212 1413 c 1,43,44
 379 1510 379 1510 617 1510 c 0,45,46
 942 1510 942 1510 1156 1326 c 0,47,48
 1408 1108 1408 1108 1408 740 c 0,49,50
 1408 509 1408 509 1290 318 c 0,51,52
 1092 0 1092 0 804 0 c 1,53,-1
 593 92 l 1,54,55
 397 75 397 75 201 0 c 1,0,-1
EndSplineSet
Validated: 1
EndChar

StartChar: Dcaron
Encoding: 270 270 212
Width: 1528
VWidth: 0
Flags: W
HStem: 0 241<804 900.341> 1182 328<372.732 834.91>
VStem: 229 317<271.891 928.853> 1084 324<474.68 927.39>
LayerCount: 2
Fore
SplineSet
582 1880 m 1,0,-1
 592 1874 l 1,1,2
 700 1791 700 1791 721 1727 c 1,3,4
 738 1794 738 1794 848 1874 c 1,5,-1
 858 1880 l 1,6,7
 950 1843 950 1843 1080 1825 c 1,8,-1
 1080 1815 l 1,9,10
 950 1739 950 1739 934 1619 c 1,11,12
 728 1605 728 1605 524 1530 c 1,13,-1
 514 1536 l 1,14,15
 514 1705 514 1705 360 1815 c 1,16,-1
 360 1825 l 1,17,18
 470 1835 470 1835 582 1880 c 1,0,-1
201 0 m 1,19,-1
 191 6 l 1,20,21
 229 326 229 326 229 515 c 0,22,23
 229 644 229 644 191 938 c 1,24,25
 387 955 387 955 583 1030 c 1,26,-1
 593 1024 l 1,27,28
 546 734 546 734 546 580 c 0,29,30
 546 392 546 392 567 268 c 1,31,32
 650 241 650 241 737 241 c 0,33,34
 831 241 831 241 900 282 c 0,35,36
 968 323 968 323 1010 407 c 0,37,38
 1084 551 1084 551 1084 723 c 0,39,40
 1084 931 1084 931 935 1070 c 0,41,42
 814 1182 814 1182 617 1182 c 0,43,44
 376 1182 376 1182 126 1011 c 1,45,-1
 120 1021 l 1,46,47
 195 1217 195 1217 212 1413 c 1,48,49
 379 1510 379 1510 617 1510 c 0,50,51
 942 1510 942 1510 1156 1326 c 0,52,53
 1408 1108 1408 1108 1408 740 c 0,54,55
 1408 509 1408 509 1290 318 c 0,56,57
 1092 0 1092 0 804 0 c 1,58,-1
 593 92 l 1,59,60
 397 75 397 75 201 0 c 1,19,-1
EndSplineSet
Validated: 1
EndChar

StartChar: Dcroat
Encoding: 272 272 213
Width: 1528
VWidth: 0
Flags: W
HStem: 0 241<804 900.341> 1182 328<372.732 834.91>
VStem: 229 318<271.261 513> 1084 324<474.68 927.39>
LayerCount: 2
Fore
SplineSet
201 0 m 1,0,-1
 191 6 l 1,1,2
 229 325 229 325 229 513 c 1,3,4
 139 503 139 503 56 482 c 1,5,-1
 50 492 l 1,6,7
 89 619 89 619 115 809 c 1,8,9
 162 797 162 797 209 788 c 1,10,11
 202 857 202 857 191 938 c 1,12,13
 387 955 387 955 583 1030 c 1,14,-1
 593 1024 l 1,15,16
 570 879 570 879 558 768 c 1,17,18
 718 776 718 776 853 809 c 1,19,-1
 859 799 l 1,20,21
 820 672 820 672 794 482 c 1,22,23
 677 512 677 512 547 521 c 1,24,25
 549 372 549 372 567 268 c 1,26,27
 650 241 650 241 737 241 c 0,28,29
 831 241 831 241 900 282 c 0,30,31
 968 323 968 323 1010 407 c 1,32,33
 1084 551 1084 551 1084 723 c 0,34,35
 1084 931 1084 931 935 1070 c 0,36,37
 814 1182 814 1182 617 1182 c 0,38,39
 376 1182 376 1182 126 1011 c 1,40,-1
 120 1021 l 1,41,42
 195 1217 195 1217 212 1413 c 1,43,44
 379 1510 379 1510 617 1510 c 0,45,46
 942 1510 942 1510 1156 1326 c 0,47,48
 1408 1108 1408 1108 1408 740 c 0,49,50
 1408 509 1408 509 1290 318 c 0,51,52
 1092 0 1092 0 804 0 c 1,53,-1
 593 92 l 1,54,55
 397 75 397 75 201 0 c 1,0,-1
EndSplineSet
Validated: 1
EndChar

StartChar: Egrave
Encoding: 200 200 214
Width: 1249
Flags: W
HStem: 0 21G<180 293.5 1029.5 1125> 45 241<567.119 1015.89> 593 242<543 863.315> 1490 20G<477 585 1060.5 1143>
VStem: 224 319<301.148 593 835 1384.77>
LayerCount: 2
Fore
SplineSet
638 1880 m 1,0,-1
 649 1878 l 1,1,2
 762 1734 762 1734 949 1664 c 1,3,-1
 947 1652 l 1,4,5
 824 1586 824 1586 748 1520 c 1,6,-1
 737 1522 l 1,7,8
 563 1617 563 1617 301 1649 c 1,9,-1
 301 1659 l 1,10,11
 479 1742 479 1742 638 1880 c 1,0,-1
190 0 m 1,12,-1
 180 6 l 1,13,14
 224 364 224 364 224 730 c 0,15,16
 224 1063 224 1063 183 1418 c 1,17,18
 379 1435 379 1435 575 1510 c 1,19,-1
 585 1504 l 1,20,21
 688 1461 688 1461 865 1461 c 0,22,23
 984 1461 984 1461 1137 1510 c 1,24,-1
 1143 1500 l 1,25,26
 1087 1368 1087 1368 1051 1108 c 1,27,28
 867 1121 867 1121 766 1183 c 0,29,30
 650 1254 650 1254 576 1428 c 1,31,32
 544 1136 544 1136 540 835 c 1,33,34
 816 835 816 835 1044 950 c 1,35,-1
 1050 940 l 1,36,37
 994 808 994 808 958 548 c 1,38,39
 805 593 805 593 543 593 c 1,40,41
 546 461 546 461 561 296 c 1,42,43
 632 286 632 286 753 286 c 0,44,45
 962 286 962 286 1193 402 c 1,46,-1
 1199 392 l 1,47,48
 1143 260 1143 260 1107 0 c 1,49,50
 952 45 952 45 758 45 c 0,51,52
 397 45 397 45 190 0 c 1,12,-1
EndSplineSet
Validated: 1
EndChar

StartChar: Eacute
Encoding: 201 201 215
Width: 1249
Flags: W
HStem: 0 21G<180 293.5 1029.5 1125> 45 241<567.119 1015.89> 593 242<543 863.315> 1490 20G<477 585 1060.5 1143>
VStem: 224 319<301.148 593 835 1384.77>
LayerCount: 2
Fore
SplineSet
910 1880 m 1,0,1
 1069 1742 1069 1742 1247 1659 c 1,2,-1
 1247 1649 l 1,3,4
 985 1617 985 1617 811 1522 c 1,5,-1
 800 1520 l 1,6,7
 724 1586 724 1586 601 1652 c 1,8,-1
 599 1664 l 1,9,10
 786 1734 786 1734 899 1878 c 1,11,-1
 910 1880 l 1,0,1
190 0 m 1,12,-1
 180 6 l 1,13,14
 224 364 224 364 224 730 c 0,15,16
 224 1063 224 1063 183 1418 c 1,17,18
 379 1435 379 1435 575 1510 c 1,19,-1
 585 1504 l 1,20,21
 688 1461 688 1461 865 1461 c 0,22,23
 984 1461 984 1461 1137 1510 c 1,24,-1
 1143 1500 l 1,25,26
 1087 1368 1087 1368 1051 1108 c 1,27,28
 867 1121 867 1121 766 1183 c 0,29,30
 650 1254 650 1254 576 1428 c 1,31,32
 544 1136 544 1136 540 835 c 1,33,34
 816 835 816 835 1044 950 c 1,35,-1
 1050 940 l 1,36,37
 994 808 994 808 958 548 c 1,38,39
 805 593 805 593 543 593 c 1,40,41
 546 461 546 461 561 296 c 1,42,43
 632 286 632 286 753 286 c 0,44,45
 962 286 962 286 1193 402 c 1,46,-1
 1199 392 l 1,47,48
 1143 260 1143 260 1107 0 c 1,49,50
 952 45 952 45 758 45 c 0,51,52
 397 45 397 45 190 0 c 1,12,-1
EndSplineSet
Validated: 1
EndChar

StartChar: Ecircumflex
Encoding: 202 202 216
Width: 1249
Flags: W
HStem: 0 21G<180 293.5 1029.5 1125> 45 241<567.119 1015.89> 593 242<543 863.315> 1490 20G<477 585 1060.5 1143>
VStem: 224 319<301.148 593 835 1384.77>
LayerCount: 2
Fore
SplineSet
923 1880 m 1,0,-1
 933 1874 l 1,1,2
 933 1705 933 1705 1087 1595 c 1,3,-1
 1087 1585 l 1,4,5
 977 1575 977 1575 865 1530 c 1,6,-1
 855 1536 l 1,7,8
 747 1619 747 1619 726 1683 c 1,9,10
 709 1616 709 1616 599 1536 c 1,11,-1
 589 1530 l 1,12,13
 497 1567 497 1567 367 1585 c 1,14,-1
 367 1595 l 1,15,16
 497 1671 497 1671 513 1791 c 1,17,18
 719 1805 719 1805 923 1880 c 1,0,-1
190 0 m 1,19,-1
 180 6 l 1,20,21
 224 364 224 364 224 730 c 0,22,23
 224 1063 224 1063 183 1418 c 1,24,25
 379 1435 379 1435 575 1510 c 1,26,-1
 585 1504 l 1,27,28
 688 1461 688 1461 865 1461 c 0,29,30
 984 1461 984 1461 1137 1510 c 1,31,-1
 1143 1500 l 1,32,33
 1087 1368 1087 1368 1051 1108 c 1,34,35
 867 1121 867 1121 766 1183 c 0,36,37
 650 1254 650 1254 576 1428 c 1,38,39
 544 1136 544 1136 540 835 c 1,40,41
 816 835 816 835 1044 950 c 1,42,-1
 1050 940 l 1,43,44
 994 808 994 808 958 548 c 1,45,46
 805 593 805 593 543 593 c 1,47,48
 546 461 546 461 561 296 c 1,49,50
 632 286 632 286 753 286 c 0,51,52
 962 286 962 286 1193 402 c 1,53,-1
 1199 392 l 1,54,55
 1143 260 1143 260 1107 0 c 1,56,57
 952 45 952 45 758 45 c 0,58,59
 397 45 397 45 190 0 c 1,19,-1
EndSplineSet
Validated: 1
EndChar

StartChar: Edieresis
Encoding: 203 203 217
Width: 1249
Flags: W
HStem: 0 21G<180 293.5 1029.5 1125> 45 241<567.119 1015.89> 593 242<543 863.315> 1490 20G<477 585 1060.5 1143>
VStem: 224 319<301.148 593 835 1384.77> 415 267<1622 1785.78> 775 267<1622 1785.78>
DStem2: 397 1788 407 1528 0.970361 0.241661<-1.20604 252.563> 757 1788 767 1528 0.970361 0.241661<-1.20604 252.563>
LayerCount: 2
Fore
SplineSet
757 1534 m 1,0,1
 775 1598 775 1598 775 1659 c 0,2,3
 775 1717 775 1717 757 1788 c 1,4,5
 891 1814 891 1814 1049 1880 c 1,6,-1
 1059 1874 l 1,7,8
 1042 1793 1042 1793 1042 1738.5 c 128,-1,9
 1042 1684 1042 1684 1059 1620 c 1,10,11
 915 1592 915 1592 767 1528 c 1,12,-1
 757 1534 l 1,0,1
397 1534 m 1,13,14
 415 1598 415 1598 415 1659 c 0,15,16
 415 1717 415 1717 397 1788 c 1,17,18
 531 1814 531 1814 689 1880 c 1,19,-1
 699 1874 l 1,20,21
 682 1793 682 1793 682 1738.5 c 128,-1,22
 682 1684 682 1684 699 1620 c 1,23,24
 555 1592 555 1592 407 1528 c 1,25,-1
 397 1534 l 1,13,14
190 0 m 1,26,-1
 180 6 l 1,27,28
 224 364 224 364 224 730 c 0,29,30
 224 1063 224 1063 183 1418 c 1,31,32
 379 1435 379 1435 575 1510 c 1,33,-1
 585 1504 l 1,34,35
 688 1461 688 1461 865 1461 c 0,36,37
 984 1461 984 1461 1137 1510 c 1,38,-1
 1143 1500 l 1,39,40
 1087 1368 1087 1368 1051 1108 c 1,41,42
 867 1121 867 1121 766 1183 c 0,43,44
 650 1254 650 1254 576 1428 c 1,45,46
 544 1136 544 1136 540 835 c 1,47,48
 816 835 816 835 1044 950 c 1,49,-1
 1050 940 l 1,50,51
 994 808 994 808 958 548 c 1,52,53
 805 593 805 593 543 593 c 1,54,55
 546 461 546 461 561 296 c 1,56,57
 632 286 632 286 753 286 c 0,58,59
 962 286 962 286 1193 402 c 1,60,-1
 1199 392 l 1,61,62
 1143 260 1143 260 1107 0 c 1,63,64
 952 45 952 45 758 45 c 0,65,66
 397 45 397 45 190 0 c 1,26,-1
EndSplineSet
Validated: 1
EndChar

StartChar: Emacron
Encoding: 274 274 218
Width: 1249
Flags: W
HStem: 0 21G<180 293.5 1029.5 1125> 45 241<567.119 1015.89> 593 242<543 863.315> 1490 20G<477 585 1060.5 1143> 1609 181<498.845 990.212>
VStem: 224 319<301.148 593 835 1384.77>
LayerCount: 2
Fore
SplineSet
495 1833 m 1,0,1
 618 1790 618 1790 746 1790 c 0,2,3
 892 1790 892 1790 1053 1833 c 1,4,-1
 1059 1823 l 1,5,6
 1008 1696 1008 1696 994 1566 c 1,7,8
 873 1609 873 1609 724 1609 c 0,9,10
 584 1609 584 1609 436 1566 c 1,11,-1
 430 1576 l 1,12,13
 481 1703 481 1703 495 1833 c 1,0,1
190 0 m 1,14,-1
 180 6 l 1,15,16
 224 364 224 364 224 730 c 0,17,18
 224 1063 224 1063 183 1418 c 1,19,20
 379 1435 379 1435 575 1510 c 1,21,-1
 585 1504 l 1,22,23
 688 1461 688 1461 865 1461 c 0,24,25
 984 1461 984 1461 1137 1510 c 1,26,-1
 1143 1500 l 1,27,28
 1087 1368 1087 1368 1051 1108 c 1,29,30
 867 1121 867 1121 766 1183 c 0,31,32
 650 1254 650 1254 576 1428 c 1,33,34
 544 1136 544 1136 540 835 c 1,35,36
 816 835 816 835 1044 950 c 1,37,-1
 1050 940 l 1,38,39
 994 808 994 808 958 548 c 1,40,41
 805 593 805 593 543 593 c 1,42,43
 546 461 546 461 561 296 c 1,44,45
 632 286 632 286 753 286 c 0,46,47
 962 286 962 286 1193 402 c 1,48,-1
 1199 392 l 1,49,50
 1143 260 1143 260 1107 0 c 1,51,52
 952 45 952 45 758 45 c 0,53,54
 397 45 397 45 190 0 c 1,14,-1
EndSplineSet
Validated: 1
EndChar

StartChar: Ebreve
Encoding: 276 276 219
Width: 1249
Flags: W
HStem: 0 21G<180 293.5 1029.5 1125> 45 241<567.119 1015.89> 593 242<543 863.315> 1490 20G<477 585 1060.5 1143> 1560 210<583.594 894.531>
VStem: 224 319<301.148 593 835 1384.77>
LayerCount: 2
Fore
SplineSet
472 1874 m 1,0,-1
 482 1880 l 1,1,2
 626 1770 626 1770 734 1770 c 0,3,4
 847 1770 847 1770 1004 1880 c 1,5,-1
 1014 1874 l 1,6,7
 1014 1560 1014 1560 728 1560 c 0,8,9
 472 1560 472 1560 472 1874 c 1,0,-1
190 0 m 1,10,-1
 180 6 l 1,11,12
 224 364 224 364 224 730 c 0,13,14
 224 1063 224 1063 183 1418 c 1,15,16
 379 1435 379 1435 575 1510 c 1,17,-1
 585 1504 l 1,18,19
 688 1461 688 1461 865 1461 c 0,20,21
 984 1461 984 1461 1137 1510 c 1,22,-1
 1143 1500 l 1,23,24
 1087 1368 1087 1368 1051 1108 c 1,25,26
 867 1121 867 1121 766 1183 c 0,27,28
 650 1254 650 1254 576 1428 c 1,29,30
 544 1136 544 1136 540 835 c 1,31,32
 816 835 816 835 1044 950 c 1,33,-1
 1050 940 l 1,34,35
 994 808 994 808 958 548 c 1,36,37
 805 593 805 593 543 593 c 1,38,39
 546 461 546 461 561 296 c 1,40,41
 632 286 632 286 753 286 c 0,42,43
 962 286 962 286 1193 402 c 1,44,-1
 1199 392 l 1,45,46
 1143 260 1143 260 1107 0 c 1,47,48
 952 45 952 45 758 45 c 0,49,50
 397 45 397 45 190 0 c 1,10,-1
EndSplineSet
Validated: 1
EndChar

StartChar: Edotaccent
Encoding: 278 278 220
Width: 1249
Flags: W
HStem: 0 21G<180 293.5 1029.5 1125> 45 241<567.119 1015.89> 593 242<543 863.315> 1490 20G<477 585 1060.5 1143>
VStem: 224 319<301.148 593 835 1384.77> 400 367<1596 1785.78>
LayerCount: 2
Fore
SplineSet
382 1508 m 1,0,1
 400 1572 400 1572 400 1646 c 0,2,3
 400 1717 400 1717 382 1788 c 1,4,5
 578 1805 578 1805 774 1880 c 1,6,-1
 784 1874 l 1,7,8
 767 1793 767 1793 767 1725.5 c 128,-1,9
 767 1658 767 1658 784 1594 c 1,10,11
 588 1577 588 1577 392 1502 c 1,12,-1
 382 1508 l 1,0,1
190 0 m 1,13,-1
 180 6 l 1,14,15
 224 364 224 364 224 730 c 0,16,17
 224 1063 224 1063 183 1418 c 1,18,19
 379 1435 379 1435 575 1510 c 1,20,-1
 585 1504 l 1,21,22
 688 1461 688 1461 865 1461 c 0,23,24
 984 1461 984 1461 1137 1510 c 1,25,-1
 1143 1500 l 1,26,27
 1087 1368 1087 1368 1051 1108 c 1,28,29
 867 1121 867 1121 766 1183 c 0,30,31
 650 1254 650 1254 576 1428 c 1,32,33
 544 1136 544 1136 540 835 c 1,34,35
 816 835 816 835 1044 950 c 1,36,-1
 1050 940 l 1,37,38
 994 808 994 808 958 548 c 1,39,40
 805 593 805 593 543 593 c 1,41,42
 546 461 546 461 561 296 c 1,43,44
 632 286 632 286 753 286 c 0,45,46
 962 286 962 286 1193 402 c 1,47,-1
 1199 392 l 1,48,49
 1143 260 1143 260 1107 0 c 1,50,51
 952 45 952 45 758 45 c 0,52,53
 397 45 397 45 190 0 c 1,13,-1
EndSplineSet
Validated: 1
EndChar

StartChar: Eogonek
Encoding: 280 280 221
Width: 1249
Flags: W
HStem: -380 21G<1066 1174> 0 21G<180 288 1079.5 1125> 45 241<563.231 721> 593 242<543 863.315> 1490 20G<477 585 1060.5 1143>
VStem: 224 319<301.148 593 835 1384.77> 684 293<-214.147 24.8243>
LayerCount: 2
Fore
SplineSet
190 0 m 1,0,-1
 180 6 l 1,1,2
 224 364 224 364 224 730 c 0,3,4
 224 1063 224 1063 183 1418 c 1,5,6
 379 1435 379 1435 575 1510 c 1,7,-1
 585 1504 l 1,8,9
 688 1461 688 1461 865 1461 c 0,10,11
 984 1461 984 1461 1137 1510 c 1,12,-1
 1143 1500 l 1,13,14
 1087 1368 1087 1368 1051 1108 c 1,15,16
 867 1121 867 1121 766 1183 c 0,17,18
 650 1254 650 1254 576 1428 c 1,19,20
 544 1136 544 1136 540 835 c 1,21,22
 816 835 816 835 1044 950 c 1,23,-1
 1050 940 l 1,24,25
 994 808 994 808 958 548 c 1,26,27
 805 593 805 593 543 593 c 1,28,29
 546 461 546 461 561 296 c 1,30,31
 632 286 632 286 753 286 c 0,32,33
 962 286 962 286 1193 402 c 1,34,-1
 1199 392 l 1,35,36
 1143 260 1143 260 1107 0 c 1,37,38
 1052 16 1052 16 992 26 c 1,39,40
 977 -17 977 -17 977 -61 c 0,41,42
 977 -230 977 -230 1174 -374 c 1,43,-1
 1164 -380 l 1,44,45
 968 -305 968 -305 772 -288 c 1,46,47
 684 -199 684 -199 684 -83 c 0,48,49
 684 -12 684 -12 721 45 c 1,50,51
 386 43 386 43 190 0 c 1,0,-1
EndSplineSet
Validated: 1
EndChar

StartChar: Ecaron
Encoding: 282 282 222
Width: 1249
Flags: W
HStem: 0 21G<180 293.5 1029.5 1125> 45 241<567.119 1015.89> 593 242<543 863.315> 1490 20G<477 585 1060.5 1143>
VStem: 224 319<301.148 593 835 1384.77>
LayerCount: 2
Fore
SplineSet
582 1880 m 1,0,-1
 592 1874 l 1,1,2
 700 1791 700 1791 721 1727 c 1,3,4
 738 1794 738 1794 848 1874 c 1,5,-1
 858 1880 l 1,6,7
 950 1843 950 1843 1080 1825 c 1,8,-1
 1080 1815 l 1,9,10
 950 1739 950 1739 934 1619 c 1,11,12
 728 1605 728 1605 524 1530 c 1,13,-1
 514 1536 l 1,14,15
 514 1705 514 1705 360 1815 c 1,16,-1
 360 1825 l 1,17,18
 470 1835 470 1835 582 1880 c 1,0,-1
190 0 m 1,19,-1
 180 6 l 1,20,21
 224 364 224 364 224 730 c 0,22,23
 224 1063 224 1063 183 1418 c 1,24,25
 379 1435 379 1435 575 1510 c 1,26,-1
 585 1504 l 1,27,28
 688 1461 688 1461 865 1461 c 0,29,30
 984 1461 984 1461 1137 1510 c 1,31,-1
 1143 1500 l 1,32,33
 1087 1368 1087 1368 1051 1108 c 1,34,35
 867 1121 867 1121 766 1183 c 0,36,37
 650 1254 650 1254 576 1428 c 1,38,39
 544 1136 544 1136 540 835 c 1,40,41
 816 835 816 835 1044 950 c 1,42,-1
 1050 940 l 1,43,44
 994 808 994 808 958 548 c 1,45,46
 805 593 805 593 543 593 c 1,47,48
 546 461 546 461 561 296 c 1,49,50
 632 286 632 286 753 286 c 0,51,52
 962 286 962 286 1193 402 c 1,53,-1
 1199 392 l 1,54,55
 1143 260 1143 260 1107 0 c 1,56,57
 952 45 952 45 758 45 c 0,58,59
 397 45 397 45 190 0 c 1,19,-1
EndSplineSet
Validated: 1
EndChar

StartChar: uni0191
Encoding: 401 401 223
Width: 1193
Flags: W
HStem: -380 21G<8 120.5> 593 242<543 863.315> 1490 20G<477 585 1060.5 1143>
VStem: 224 319<73.3442 593 835 1384.77>
LayerCount: 2
Fore
SplineSet
18 -380 m 9,0,-1
 8 -374 l 17,1,2
 163 -138 163 -138 202 132 c 0,3,4
 224 284 224 284 224 730 c 0,5,6
 224 1063 224 1063 183 1418 c 1,7,8
 379 1435 379 1435 575 1510 c 1,9,-1
 585 1504 l 1,10,11
 694 1461 694 1461 865 1461 c 0,12,13
 984 1461 984 1461 1137 1510 c 1,14,-1
 1143 1500 l 1,15,16
 1087 1368 1087 1368 1051 1108 c 1,17,18
 867 1121 867 1121 766 1183 c 0,19,20
 650 1254 650 1254 576 1428 c 1,21,22
 544 1136 544 1136 540 835 c 1,23,24
 816 835 816 835 1044 950 c 1,25,-1
 1050 940 l 1,26,27
 994 808 994 808 958 548 c 1,28,29
 805 593 805 593 543 593 c 1,30,31
 555 342 555 342 566 221 c 1,32,33
 551 28 551 28 368 -164 c 0,34,35
 223 -316 223 -316 18 -380 c 9,0,-1
EndSplineSet
Validated: 1
EndChar

